<?xml version="1.0" encoding="utf-8"?>
<!-- Generator: Adobe Illustrator 24.0.1, SVG Export Plug-In . SVG Version: 6.00 Build 0)  -->
<svg version="1.1" id="Layer_1" xmlns="http://www.w3.org/2000/svg" xmlns:xlink="http://www.w3.org/1999/xlink" x="0px" y="0px"
	 viewBox="0 0 1355 462" style="enable-background:new 0 0 1355 462;" xml:space="preserve">
<style type="text/css">
	.st0{fill:#D2ECFF;}
	.st1{fill:none;stroke:#000000;stroke-width:5;stroke-miterlimit:10;}
	.st2{fill:#0052A0;}
	.st3{fill:#BF0000;}
</style>
<rect class="st0" width="1355" height="462"/>
<line class="st1" x1="113" y1="74" x2="113" y2="388"/>
<g>
	<line class="st1" x1="286.5" y1="57" x2="286.5" y2="73"/>
	<line class="st1" x1="463.37" y1="57" x2="463.37" y2="73"/>
	<line class="st1" x1="640.25" y1="57" x2="640.25" y2="73"/>
	<line class="st1" x1="817.12" y1="57" x2="817.12" y2="73"/>
	<line class="st1" x1="994" y1="57" x2="994" y2="73"/>
</g>
<g>
	<g>
		<path d="M131.78,64.63v-0.24c0.01-2.5,1.15-4.42,3.03-7.18c1.29-1.88,1.64-2.61,1.64-4.37c0-1.89-0.29-2.73-1.42-2.73
			c-1.07,0-1.47,0.84-1.47,2.21v0.73h-1.62v-0.79c0-1.73,0.53-3.63,3.17-3.63c2.49,0,3.09,1.79,3.09,4.11
			c0,2.48-0.68,3.44-1.94,5.22c-1.46,2.11-2.44,3.79-2.56,5.14h4.84l-0.25,1.51H131.78z"/>
		<path d="M146.31,52.65v8.09c0,2.69-1.03,4.09-3.38,4.09c-2.16,0-3.27-1.35-3.27-4.05v-8.02c0-2.98,1.4-4.12,3.37-4.12
			C144.96,48.64,146.31,49.75,146.31,52.65z M141.37,52.6v8.29c0,1.57,0.49,2.33,1.62,2.33c1.02,0,1.58-0.6,1.58-2.39v-8.25
			c0-1.69-0.61-2.34-1.6-2.34C142.01,50.24,141.37,50.8,141.37,52.6z"/>
		<path d="M154.67,52.65v8.09c0,2.69-1.03,4.09-3.38,4.09c-2.16,0-3.27-1.35-3.27-4.05v-8.02c0-2.98,1.4-4.12,3.37-4.12
			C153.32,48.64,154.67,49.75,154.67,52.65z M149.74,52.6v8.29c0,1.57,0.49,2.33,1.62,2.33c1.02,0,1.58-0.6,1.58-2.39v-8.25
			c0-1.69-0.61-2.34-1.6-2.34C150.37,50.24,149.74,50.8,149.74,52.6z"/>
		<path d="M163.03,52.65v8.09c0,2.69-1.03,4.09-3.38,4.09c-2.16,0-3.27-1.35-3.27-4.05v-8.02c0-2.98,1.4-4.12,3.37-4.12
			C161.69,48.64,163.03,49.75,163.03,52.65z M158.1,52.6v8.29c0,1.57,0.49,2.33,1.62,2.33c1.02,0,1.58-0.6,1.58-2.39v-8.25
			c0-1.69-0.61-2.34-1.6-2.34C158.73,50.24,158.1,50.8,158.1,52.6z"/>
		<path d="M170.14,53.67v4.21h3.87v1.37h-3.87v4.23h-1.43v-4.23h-3.92v-1.37h3.92v-4.21H170.14z"/>
	</g>
</g>
<g>
	<rect x="1164" y="102" class="st2" width="40" height="40"/>
</g>
<rect x="1164" y="168" class="st3" width="40" height="40"/>
<rect x="305" y="74" class="st3" width="20" height="145"/>
<g>
	<rect x="276" y="74" class="st2" width="20" height="180"/>
</g>
<g>
	<rect x="450" y="74" class="st2" width="20" height="145"/>
</g>
<rect x="479" y="74" class="st3" width="20" height="110"/>
<rect x="659" y="74" class="st3" width="20" height="135"/>
<g>
	<rect x="630" y="74" class="st2" width="20" height="185"/>
</g>
<rect x="836" y="74" class="st3" width="20" height="90"/>
<g>
	<rect x="807" y="74" class="st2" width="20" height="145"/>
</g>
<rect x="1013" y="74" class="st3" width="20" height="145"/>
<g>
	<rect x="984" y="74" class="st2" width="20" height="105"/>
</g>
<line class="st1" x1="1134" y1="74" x2="113" y2="74"/>
<line class="st1" x1="113" y1="164.5" x2="84" y2="164.5"/>
<line class="st1" x1="113" y1="259.5" x2="84" y2="259.5"/>
<g>
	<g>
		<path d="M270.02,48.71V22.66c-0.67,0.37-2.14,0.83-2.79,0.91v-2.58c1.39-0.34,2.89-1.49,3.51-2.37h1.91v30.09H270.02z"/>
		<path d="M275.94,41.87v-3.38c0-3.86,1.28-5.06,2.41-5.9c-1.3-0.95-2.06-2.5-2.06-5.56v-1.79c0-4.27,1.65-6.78,4.93-6.78
			c2.89,0,4.71,2.07,4.71,6.79v1.63c0,3.76-0.99,4.92-2.12,5.69c1.45,0.84,2.41,2.38,2.41,5.86v3.25c0,5.01-1.65,7.4-5.19,7.4
			C277.88,49.08,275.94,46.93,275.94,41.87z M283.6,41.99v-3.87c0-2.86-0.83-4.05-2.53-4.05c-1.7,0-2.52,1.24-2.52,4.16v3.71
			c0,2.5,0.7,4.3,2.51,4.3C283.01,46.24,283.6,44.58,283.6,41.99z M278.83,25.09v2.5c0,2.17,0.71,3.63,2.3,3.63
			c1.49,0,2.24-1.1,2.24-3.7v-2.46c0-2.09-0.41-3.79-2.26-3.79C279.4,21.28,278.83,22.9,278.83,25.09z"/>
		<path d="M294.55,35.18v3.04h-6.25v-3.04H294.55z"/>
		<path d="M298.47,48.71V22.66c-0.67,0.37-2.14,0.83-2.79,0.91v-2.58c1.39-0.34,2.89-1.49,3.51-2.37h1.91v30.09H298.47z"/>
		<path d="M307.14,42.25v0.3c0,2.58,0.78,3.76,2.17,3.76c1.83,0,2.39-1.43,2.39-6.26v-5.38c-0.53,1.38-1.41,2.28-3.21,2.28
			c-3.1,0-4.17-2.87-4.17-7v-4.35c0-4.42,1.62-7.14,5.02-7.14c3.22,0,4.95,2.36,4.95,7.32v13.46c0,5.83-0.5,9.86-5.01,9.86
			c-3.79,0-4.74-3.22-4.74-6.68v-0.16H307.14z M306.94,25.29v4.64c0,2.07,0.35,4.13,2.24,4.13c2.03,0,2.5-2.25,2.5-5.28v-3.41
			c0-2.74-0.65-4.17-2.36-4.17C307.75,21.2,306.94,22.4,306.94,25.29z"/>
		<path d="M443.92,48.71V22.66c-0.67,0.37-2.14,0.83-2.79,0.91v-2.58c1.39-0.34,2.89-1.49,3.51-2.37h1.91v30.09H443.92z"/>
		<path d="M458.9,18.81v2.46c-3.01,7.34-5.34,16.48-6.34,27.45h-2.69c0.81-9.61,3.32-19.89,6.32-26.98h-7.25v-2.93H458.9z"/>
		<path d="M466.37,35.18v3.04h-6.25v-3.04H466.37z"/>
		<path d="M470.29,48.71V22.66c-0.67,0.37-2.14,0.83-2.79,0.91v-2.58c1.39-0.34,2.89-1.49,3.51-2.37h1.91v30.09H470.29z"/>
		<path d="M476.21,41.87v-3.38c0-3.86,1.28-5.06,2.41-5.9c-1.3-0.95-2.06-2.5-2.06-5.56v-1.79c0-4.27,1.65-6.78,4.93-6.78
			c2.89,0,4.71,2.07,4.71,6.79v1.63c0,3.76-0.99,4.92-2.12,5.69c1.45,0.84,2.41,2.38,2.41,5.86v3.25c0,5.01-1.65,7.4-5.19,7.4
			C478.15,49.08,476.21,46.93,476.21,41.87z M483.87,41.99v-3.87c0-2.86-0.83-4.05-2.53-4.05c-1.7,0-2.52,1.24-2.52,4.16v3.71
			c0,2.5,0.7,4.3,2.51,4.3C483.28,46.24,483.87,44.58,483.87,41.99z M479.1,25.09v2.5c0,2.17,0.71,3.63,2.3,3.63
			c1.49,0,2.24-1.1,2.24-3.7v-2.46c0-2.09-0.41-3.79-2.26-3.79C479.67,21.28,479.1,22.9,479.1,25.09z"/>
		<path d="M620.97,48.71V22.66c-0.67,0.37-2.14,0.83-2.79,0.91v-2.58c1.39-0.34,2.89-1.49,3.51-2.37h1.91v30.09H620.97z"/>
		<path d="M634.34,25.29v-0.31c0-1.36-0.2-3.74-2.21-3.74c-1.99,0-2.47,1.8-2.47,5.57v4.44c0.53-1.2,1.49-2.33,3.39-2.33
			c3.09,0,4.11,3.02,4.11,6.67v5.55c0,4.6-1.11,7.95-5.1,7.95c-4.04,0-5-3.66-5-7.96V26.9c0-5.11,1.16-8.46,5.1-8.46
			c3.93,0,4.71,3.55,4.71,6.64v0.21H634.34z M634.54,41.59v-5.46c0-2.55-0.48-4.29-2.3-4.29c-2.03,0-2.57,2.17-2.57,5.12v4.63
			c0,2.49,0.48,4.73,2.43,4.73C633.77,46.32,634.54,44.9,634.54,41.59z"/>
		<path d="M645.43,35.18v3.04h-6.25v-3.04H645.43z"/>
		<path d="M649.35,48.71V22.66c-0.67,0.37-2.14,0.83-2.79,0.91v-2.58c1.39-0.34,2.89-1.49,3.51-2.37h1.91v30.09H649.35z"/>
		<path d="M664.33,18.81v2.46c-3.01,7.34-5.34,16.48-6.34,27.45h-2.69c0.81-9.61,3.32-19.89,6.32-26.98h-7.25v-2.93H664.33z"/>
		<path d="M797.95,48.71V22.66c-0.67,0.37-2.14,0.83-2.79,0.91v-2.58c1.39-0.34,2.89-1.49,3.51-2.37h1.91v30.09H797.95z"/>
		<path d="M813.39,21.74h-6c-0.13,2.56-0.36,6.65-0.55,8.92c0.48-0.98,1.6-1.74,3.02-1.74c3.21,0,4.29,2.97,4.29,7.91v3.49
			c0,4.9-0.99,8.77-5.26,8.77c-3.9,0-5.08-3.29-5.08-7.14v-0.51h2.64v0.8c0,1.95,0.52,4.07,2.44,4.07c2.14,0,2.53-2.2,2.53-5.44
			v-3.88c0-3.29-0.41-5.22-2.37-5.22c-1.55,0-2.2,1.1-2.59,3.27l-2.38-0.33c0.38-4.15,0.84-12.78,0.98-15.88h8.63L813.39,21.74z"/>
		<path d="M822.49,35.18v3.04h-6.25v-3.04H822.49z"/>
		<path d="M826.41,48.71V22.66c-0.67,0.37-2.14,0.83-2.79,0.91v-2.58c1.39-0.34,2.89-1.49,3.51-2.37h1.91v30.09H826.41z"/>
		<path d="M839.78,25.29v-0.31c0-1.36-0.2-3.74-2.21-3.74c-1.99,0-2.47,1.8-2.47,5.57v4.44c0.53-1.2,1.49-2.33,3.39-2.33
			c3.09,0,4.11,3.02,4.11,6.67v5.55c0,4.6-1.11,7.95-5.1,7.95c-4.04,0-5-3.66-5-7.96V26.9c0-5.11,1.16-8.46,5.1-8.46
			c3.93,0,4.71,3.55,4.71,6.64v0.21H839.78z M839.97,41.59v-5.46c0-2.55-0.48-4.29-2.3-4.29c-2.03,0-2.57,2.17-2.57,5.12v4.63
			c0,2.49,0.48,4.73,2.43,4.73C839.2,46.32,839.97,44.9,839.97,41.59z"/>
		<path d="M977.01,48.71V22.66c-0.67,0.37-2.14,0.83-2.79,0.91v-2.58c1.39-0.34,2.89-1.49,3.51-2.37h1.91v30.09H977.01z"/>
		<path d="M989.22,48.71v-8.1h-6.84V38.2l5.87-19.39h3.44v19.05h1.9l-0.24,2.76h-1.67v8.1H989.22z M989.22,30.66
			c0-2.84,0.07-5.69,0.13-8.5h-0.04c-1.33,5.18-2.89,10.59-4.35,15.7h4.25V30.66z"/>
		<path d="M1001.14,35.18v3.04h-6.25v-3.04H1001.14z"/>
		<path d="M1005.06,48.71V22.66c-0.67,0.37-2.14,0.83-2.79,0.91v-2.58c1.39-0.34,2.89-1.49,3.51-2.37h1.91v30.09H1005.06z"/>
		<path d="M1020.49,21.74h-6c-0.13,2.56-0.36,6.65-0.55,8.92c0.48-0.98,1.6-1.74,3.02-1.74c3.21,0,4.29,2.97,4.29,7.91v3.49
			c0,4.9-0.99,8.77-5.26,8.77c-3.9,0-5.08-3.29-5.08-7.14v-0.51h2.64v0.8c0,1.95,0.52,4.07,2.44,4.07c2.14,0,2.53-2.2,2.53-5.44
			v-3.88c0-3.29-0.41-5.22-2.37-5.22c-1.55,0-2.2,1.1-2.59,3.27l-2.38-0.33c0.38-4.15,0.84-12.78,0.98-15.88h8.63L1020.49,21.74z"/>
	</g>
</g>
<g>
	<g>
		<path d="M1236.46,107.24h8.64v3.03h-6v10h5.66v3.03h-5.66v14.67h-2.64V107.24z"/>
		<path d="M1256.83,129.15v1.04c0,3.91-0.57,8.18-5.05,8.18c-4.29,0-5.03-3.77-5.03-8.29v-15.63c0-4.92,1.71-7.63,5.06-7.63
			c4.16,0,4.91,3.66,4.91,7.69v1.2h-2.68v-1.44c0-2.43-0.31-4.46-2.27-4.46c-1.86,0-2.33,1.82-2.33,4.53v15.96
			c0,3.08,0.54,5.11,2.41,5.11c1.93,0,2.29-2.08,2.29-4.97v-1.29H1256.83z"/>
		<path d="M1259.38,107.24h4.32c3.85,0,5.3,2.51,5.3,6.68v1.38c0,4.32-1.06,5.64-2.3,6.21c1.34,0.53,2.81,1.99,2.81,6.17v2.27
			c0,5.35-1.5,8.01-5.72,8.01h-4.4V107.24z M1263.58,120.24c2.22,0,2.89-1.11,2.89-4.69v-1.38c0-2.79-0.83-4.16-2.96-4.16h-1.56
			v10.23H1263.58z M1261.95,135.21h1.59c2.67,0,3.33-1.58,3.33-5.32v-2.12c0-3.35-0.95-4.79-3.34-4.79h-1.59V135.21z"/>
		<path d="M1238.87,197.16l-1.19,9.81h-2.67l4.08-30.73h3.76l4.24,30.73h-2.76l-1.28-9.81H1238.87z M1242.71,194.16
			c-0.87-6.77-1.49-12-1.73-14.9h-0.11c-0.09,2.38-0.98,9.29-1.65,14.9H1242.71z"/>
		<path d="M1251.39,179.27h-4.01v-3.03h10.65v3.03h-3.99v27.7h-2.64V179.27z"/>
		<path d="M1271.94,194.15c0-5.63,0.08-11.71,0.15-14.99h-0.04c-0.62,5.16-2.51,18.68-3.84,27.82h-2.58
			c-1.01-7.9-2.96-22.35-3.56-27.84H1262c0.07,3.56,0.21,10.54,0.21,15.8v12.04h-2.45v-30.73h3.91c1.36,9.08,2.99,20.35,3.32,24.26
			h0.04c0.39-3.83,2.29-15.72,3.64-24.26h3.83v30.73h-2.56V194.15z"/>
	</g>
</g>
<g>
	<g>
		<path d="M90.45,154.12v-0.27c0.01-2.83,1.05-5,2.76-8.12c1.17-2.12,1.5-2.95,1.5-4.95c0-2.14-0.27-3.08-1.3-3.08
			c-0.98,0-1.34,0.95-1.34,2.5v0.83H90.6v-0.9c0-1.95,0.48-4.11,2.89-4.11c2.28,0,2.83,2.02,2.83,4.65c0,2.8-0.62,3.89-1.77,5.91
			c-1.33,2.38-2.23,4.28-2.34,5.82h4.42l-0.22,1.71H90.45z"/>
		<path d="M98.65,154.12v-15.57c-0.4,0.22-1.28,0.5-1.67,0.54v-1.54c0.83-0.2,1.73-0.89,2.1-1.42h1.14v17.99H98.65z"/>
	</g>
</g>
<g>
	<g>
		<path d="M94.53,249.12v-4.84h-4.09v-1.44l3.51-11.59h2.06v11.39h1.14l-0.14,1.65h-1v4.84H94.53z M94.53,238.34
			c0-1.7,0.04-3.4,0.08-5.08h-0.02c-0.8,3.1-1.73,6.33-2.6,9.38h2.54V238.34z"/>
		<path d="M99.14,249.12v-15.57c-0.4,0.22-1.28,0.5-1.67,0.54v-1.54c0.83-0.2,1.73-0.89,2.1-1.42h1.14v17.98H99.14z"/>
	</g>
</g>
</svg>
