<?xml version="1.0" encoding="utf-8"?>
<!-- Generator: Adobe Illustrator 24.0.1, SVG Export Plug-In . SVG Version: 6.00 Build 0)  -->
<svg version="1.1" id="Layer_1" xmlns="http://www.w3.org/2000/svg" xmlns:xlink="http://www.w3.org/1999/xlink" x="0px" y="0px"
	 viewBox="0 0 439.9 115.54" style="enable-background:new 0 0 439.9 115.54;" xml:space="preserve">
<style type="text/css">
	.st0{fill:#0052A0;}
	.st1{fill:#FFFFFF;}
</style>
<g>
	<rect class="st0" width="439.9" height="115.54"/>
</g>
<g>
	<g>
		<path class="st1" d="M66.61,84.19h-4.52c-0.15-0.87-0.31-3.42-0.35-4.63c-1.35,3.96-4.38,5.34-7.86,5.34
			c-7.39,0-9.82-5.46-9.82-14V44.17c0-8.76,3.53-14.13,11.43-14.13c9.32,0,11.01,6.58,11.01,13.38v1.36h-5.69v-1.49
			c0-3.74-0.44-8.05-5.37-8.05c-3.72,0-5.58,2.35-5.58,8.42V71.2c0,5.27,1.37,8.63,5.27,8.63c4.9,0,5.74-4.52,5.74-11.35v-8.52
			h-5.93v-4.97h11.67V84.19z"/>
		<path class="st1" d="M95.76,43.88v26.93c0,9.39-3.87,14.09-11.83,14.09c-8.28,0-11.3-5.27-11.3-14.02v-27
			c0-9.08,4.13-13.85,11.69-13.85C92.21,30.04,95.76,35.44,95.76,43.88z M78.43,43.62v27.73c0,6.01,2.18,8.4,5.77,8.4
			c3.78,0,5.76-2.32,5.76-8.66V43.63c0-5.67-1.95-8.39-5.8-8.39C80.3,35.23,78.43,37.8,78.43,43.62z"/>
		<path class="st1" d="M107.66,67.14l-2.55,17.06h-5.76l8.78-53.44h8.1l9.14,53.44h-5.96l-2.75-17.06H107.66z M115.93,61.91
			c-1.87-11.77-3.21-20.86-3.72-25.91h-0.23c-0.2,4.13-2.11,16.15-3.55,25.91H115.93z"/>
		<path class="st1" d="M130.15,30.75h5.69v48.32h13.44l-0.63,5.12h-18.49V30.75z"/>
		<path class="st1" d="M155.97,69.15v3.1c0,5.03,1.74,7.72,5.48,7.72c3.83,0,5.34-2.77,5.34-8.63c0-6.25-1.37-8.68-7-13.07
			c-5.72-4.47-8.62-7.17-8.62-15.05c0-6.77,2.03-13.27,10.41-13.22c7.96,0.04,10.06,5.34,10.06,12.12v2.48h-5.65v-2.33
			c0-4.44-0.87-7.3-4.52-7.3c-3.67,0-4.61,3.21-4.61,7.4c0,4.97,0.99,6.85,5.89,10.56c7.42,5.61,9.77,8.73,9.77,17.61
			c0,7.51-2.15,14.36-11.16,14.36c-8.63,0-11.07-5.65-11.07-12.69v-3.07H155.97z"/>
		<path class="st1" d="M209.54,68.86v1.81c0,6.79-1.22,14.23-10.89,14.23c-9.25,0-10.84-6.56-10.84-14.41V43.31
			c0-8.55,3.67-13.27,10.91-13.27c8.97,0,10.57,6.37,10.57,13.37v2.09h-5.77v-2.51c0-4.23-0.66-7.75-4.89-7.75
			c-4.01,0-5.02,3.17-5.02,7.88v27.75c0,5.36,1.17,8.89,5.19,8.89c4.17,0,4.92-3.62,4.92-8.65v-2.24H209.54z"/>
		<path class="st1" d="M236.96,43.88v26.93c0,9.39-3.87,14.09-11.83,14.09c-8.28,0-11.3-5.27-11.3-14.02v-27
			c0-9.08,4.13-13.85,11.69-13.85C233.41,30.04,236.96,35.44,236.96,43.88z M219.62,43.62v27.73c0,6.01,2.18,8.4,5.77,8.4
			c3.78,0,5.76-2.32,5.76-8.66V43.63c0-5.67-1.95-8.39-5.8-8.39C221.49,35.23,219.62,37.8,219.62,43.62z"/>
		<path class="st1" d="M243.67,84.19V30.75h6.79c2.88,9.89,10.31,37.91,11.19,42.27h0.12c-0.31-7.19-0.4-14.71-0.4-23.42V30.75h5.36
			v53.44h-6.56c-2.84-10.03-10.5-39.44-11.51-43.7h-0.08c0.36,6.44,0.49,14.97,0.49,24.62v19.08H243.67z"/>
		<path class="st1" d="M295.14,68.86v1.81c0,6.79-1.22,14.23-10.89,14.23c-9.25,0-10.84-6.56-10.84-14.41V43.31
			c0-8.55,3.67-13.27,10.91-13.27c8.97,0,10.58,6.37,10.58,13.37v2.09h-5.77v-2.51c0-4.23-0.66-7.75-4.89-7.75
			c-4.01,0-5.02,3.17-5.02,7.88v27.75c0,5.36,1.17,8.89,5.19,8.89c4.17,0,4.92-3.62,4.92-8.65v-2.24H295.14z"/>
		<path class="st1" d="M318.26,58.32h-11.99v20.65h13.61l-0.77,5.23h-18.52V30.75h18.36v5.27h-12.67v17.07h11.99V58.32z"/>
		<path class="st1" d="M324.55,30.75h9.69c11.54,0,13,7.13,13,15.62v21.11c0,8.2-1.27,16.71-13.36,16.71h-9.34V30.75z M330.23,79.26
			h3.22c6.47,0,7.99-3.66,7.99-10.66V45.69c0-6.17-1.11-9.96-7.93-9.96h-3.27V79.26z"/>
		<path class="st1" d="M371.62,58.32h-11.99v20.65h13.61l-0.77,5.23h-18.52V30.75h18.36v5.27h-12.67v17.07h11.99V58.32z"/>
		<path class="st1" d="M377.91,30.75h9.69c11.54,0,13,7.13,13,15.62v21.11c0,8.2-1.27,16.71-13.36,16.71h-9.34V30.75z M383.59,79.26
			h3.22c6.47,0,7.99-3.66,7.99-10.66V45.69c0-6.17-1.11-9.96-7.93-9.96h-3.27V79.26z"/>
	</g>
</g>
</svg>
