<?xml version="1.0" encoding="utf-8"?>
<!-- Generator: Adobe Illustrator 24.0.1, SVG Export Plug-In . SVG Version: 6.00 Build 0)  -->
<svg version="1.1" id="Layer_1" xmlns="http://www.w3.org/2000/svg" xmlns:xlink="http://www.w3.org/1999/xlink" x="0px" y="0px"
	 viewBox="0 0 1414 462" style="enable-background:new 0 0 1414 462;" xml:space="preserve">
<style type="text/css">
	.st0{fill:#D2ECFF;}
	.st1{fill:none;stroke:#FFFFFF;stroke-width:5;stroke-miterlimit:10;}
	.st2{fill:#04AD14;}
	.st3{fill:#F0FC00;}
	.st4{fill:#AA0505;}
	.st5{fill:none;stroke:#174968;stroke-width:7;stroke-miterlimit:10;stroke-dasharray:5;}
</style>
<rect class="st0" width="1413" height="462"/>
<line class="st1" x1="35" y1="78.5" x2="1404" y2="77.5"/>
<circle class="st2" cx="34.5" cy="77.5" r="10.5"/>
<circle class="st2" cx="71.5" cy="77.5" r="10.5"/>
<circle class="st2" cx="108.5" cy="77.5" r="10.5"/>
<circle class="st2" cx="145.5" cy="77.5" r="10.5"/>
<circle class="st3" cx="182.5" cy="77.5" r="10.5"/>
<circle class="st4" cx="219.5" cy="77.5" r="10.5"/>
<circle class="st3" cx="256.5" cy="77.5" r="10.5"/>
<circle class="st3" cx="293.5" cy="77.5" r="10.5"/>
<circle class="st2" cx="330.5" cy="77.5" r="10.5"/>
<circle class="st2" cx="367.5" cy="77.5" r="10.5"/>
<circle class="st2" cx="404.5" cy="77.5" r="10.5"/>
<circle class="st4" cx="441.5" cy="77.5" r="10.5"/>
<circle class="st3" cx="478.5" cy="77.5" r="10.5"/>
<circle class="st2" cx="515.5" cy="77.5" r="10.5"/>
<circle class="st2" cx="552.5" cy="77.5" r="10.5"/>
<circle class="st2" cx="589.5" cy="77.5" r="10.5"/>
<circle class="st2" cx="626.5" cy="77.5" r="10.5"/>
<circle class="st2" cx="663.5" cy="77.5" r="10.5"/>
<circle class="st2" cx="700.5" cy="77.5" r="10.5"/>
<circle class="st3" cx="737.5" cy="77.5" r="10.5"/>
<circle class="st3" cx="774.5" cy="77.5" r="10.5"/>
<circle class="st2" cx="811.5" cy="77.5" r="10.5"/>
<circle class="st2" cx="848.5" cy="77.5" r="10.5"/>
<circle class="st2" cx="885.5" cy="77.5" r="10.5"/>
<circle class="st2" cx="922.5" cy="77.5" r="10.5"/>
<circle class="st2" cx="959.5" cy="77.5" r="10.5"/>
<circle class="st2" cx="996.5" cy="77.5" r="10.5"/>
<circle class="st3" cx="1033.5" cy="77.5" r="10.5"/>
<circle class="st2" cx="1070.5" cy="77.5" r="10.5"/>
<circle class="st3" cx="1107.5" cy="77.5" r="10.5"/>
<circle class="st2" cx="1144.5" cy="77.5" r="10.5"/>
<circle class="st2" cx="1181.5" cy="77.5" r="10.5"/>
<circle class="st2" cx="1218.5" cy="77.5" r="10.5"/>
<circle class="st2" cx="1255.5" cy="77.5" r="10.5"/>
<circle class="st2" cx="1292.5" cy="77.5" r="10.5"/>
<circle class="st4" cx="1329.5" cy="77.5" r="10.5"/>
<circle class="st2" cx="1366.5" cy="77.5" r="10.5"/>
<circle class="st3" cx="1403.5" cy="77.5" r="10.5"/>
<line class="st1" x1="35" y1="146.5" x2="1404" y2="145.5"/>
<circle class="st2" cx="34.5" cy="145.5" r="10.5"/>
<circle class="st2" cx="71.5" cy="145.5" r="10.5"/>
<circle class="st2" cx="108.5" cy="145.5" r="10.5"/>
<circle class="st2" cx="145.5" cy="145.5" r="10.5"/>
<circle class="st2" cx="182.5" cy="145.5" r="10.5"/>
<circle class="st2" cx="219.5" cy="145.5" r="10.5"/>
<circle class="st2" cx="256.5" cy="145.5" r="10.5"/>
<circle class="st3" cx="293.5" cy="145.5" r="10.5"/>
<circle class="st2" cx="330.5" cy="145.5" r="10.5"/>
<circle class="st2" cx="367.5" cy="145.5" r="10.5"/>
<circle class="st2" cx="404.5" cy="145.5" r="10.5"/>
<circle class="st2" cx="441.5" cy="145.5" r="10.5"/>
<circle class="st3" cx="478.5" cy="145.5" r="10.5"/>
<circle class="st3" cx="515.5" cy="145.5" r="10.5"/>
<circle class="st2" cx="552.5" cy="145.5" r="10.5"/>
<circle class="st2" cx="589.5" cy="145.5" r="10.5"/>
<circle class="st2" cx="626.5" cy="145.5" r="10.5"/>
<circle class="st2" cx="663.5" cy="145.5" r="10.5"/>
<circle class="st2" cx="700.5" cy="145.5" r="10.5"/>
<circle class="st2" cx="737.5" cy="145.5" r="10.5"/>
<circle class="st2" cx="774.5" cy="145.5" r="10.5"/>
<circle class="st3" cx="811.5" cy="145.5" r="10.5"/>
<circle class="st3" cx="848.5" cy="145.5" r="10.5"/>
<circle class="st2" cx="885.5" cy="145.5" r="10.5"/>
<circle class="st2" cx="922.5" cy="145.5" r="10.5"/>
<circle class="st2" cx="959.5" cy="145.5" r="10.5"/>
<circle class="st2" cx="996.5" cy="145.5" r="10.5"/>
<circle class="st2" cx="1033.5" cy="145.5" r="10.5"/>
<circle class="st2" cx="1070.5" cy="145.5" r="10.5"/>
<circle class="st3" cx="1107.5" cy="145.5" r="10.5"/>
<circle class="st2" cx="1144.5" cy="145.5" r="10.5"/>
<circle class="st2" cx="1181.5" cy="145.5" r="10.5"/>
<circle class="st3" cx="1218.5" cy="145.5" r="10.5"/>
<circle class="st2" cx="1255.5" cy="145.5" r="10.5"/>
<circle class="st2" cx="1292.5" cy="145.5" r="10.5"/>
<circle class="st3" cx="1329.5" cy="145.5" r="10.5"/>
<circle class="st4" cx="1366.5" cy="145.5" r="10.5"/>
<circle class="st2" cx="1403.5" cy="145.5" r="10.5"/>
<line class="st1" x1="35" y1="214.5" x2="1404" y2="213.5"/>
<circle class="st2" cx="34.5" cy="213.5" r="10.5"/>
<circle class="st2" cx="71.5" cy="213.5" r="10.5"/>
<circle class="st4" cx="108.5" cy="213.5" r="10.5"/>
<circle class="st2" cx="145.5" cy="213.5" r="10.5"/>
<circle class="st3" cx="182.5" cy="213.5" r="10.5"/>
<circle class="st2" cx="219.5" cy="213.5" r="10.5"/>
<circle class="st4" cx="256.5" cy="213.5" r="10.5"/>
<circle class="st2" cx="293.5" cy="213.5" r="10.5"/>
<circle class="st2" cx="330.5" cy="213.5" r="10.5"/>
<circle class="st2" cx="367.5" cy="213.5" r="10.5"/>
<circle class="st2" cx="404.5" cy="213.5" r="10.5"/>
<circle class="st3" cx="441.5" cy="213.5" r="10.5"/>
<circle class="st3" cx="478.5" cy="213.5" r="10.5"/>
<circle class="st3" cx="515.5" cy="213.5" r="10.5"/>
<circle class="st2" cx="552.5" cy="213.5" r="10.5"/>
<circle class="st2" cx="589.5" cy="213.5" r="10.5"/>
<circle class="st3" cx="626.5" cy="213.5" r="10.5"/>
<circle class="st2" cx="663.5" cy="213.5" r="10.5"/>
<circle class="st2" cx="700.5" cy="213.5" r="10.5"/>
<circle class="st3" cx="737.5" cy="213.5" r="10.5"/>
<circle class="st2" cx="774.5" cy="213.5" r="10.5"/>
<circle class="st2" cx="811.5" cy="213.5" r="10.5"/>
<circle class="st2" cx="848.5" cy="213.5" r="10.5"/>
<circle class="st2" cx="885.5" cy="213.5" r="10.5"/>
<circle class="st2" cx="922.5" cy="213.5" r="10.5"/>
<circle class="st2" cx="959.5" cy="213.5" r="10.5"/>
<circle class="st4" cx="996.5" cy="213.5" r="10.5"/>
<circle class="st2" cx="1033.5" cy="213.5" r="10.5"/>
<circle class="st2" cx="1070.5" cy="213.5" r="10.5"/>
<circle class="st2" cx="1107.5" cy="213.5" r="10.5"/>
<circle class="st4" cx="1144.5" cy="213.5" r="10.5"/>
<circle class="st2" cx="1181.5" cy="213.5" r="10.5"/>
<circle class="st2" cx="1218.5" cy="213.5" r="10.5"/>
<circle class="st2" cx="1255.5" cy="213.5" r="10.5"/>
<circle class="st2" cx="1292.5" cy="213.5" r="10.5"/>
<circle class="st2" cx="1329.5" cy="213.5" r="10.5"/>
<circle class="st2" cx="1366.5" cy="213.5" r="10.5"/>
<circle class="st2" cx="1403.5" cy="213.5" r="10.5"/>
<line class="st1" x1="35" y1="282.5" x2="1404" y2="281.5"/>
<circle class="st2" cx="34.5" cy="281.5" r="10.5"/>
<circle class="st2" cx="71.5" cy="281.5" r="10.5"/>
<circle class="st2" cx="108.5" cy="281.5" r="10.5"/>
<circle class="st2" cx="145.5" cy="281.5" r="10.5"/>
<circle class="st4" cx="182.5" cy="281.5" r="10.5"/>
<circle class="st2" cx="219.5" cy="281.5" r="10.5"/>
<circle class="st4" cx="256.5" cy="281.5" r="10.5"/>
<circle class="st2" cx="293.5" cy="281.5" r="10.5"/>
<circle class="st2" cx="330.5" cy="281.5" r="10.5"/>
<circle class="st2" cx="367.5" cy="281.5" r="10.5"/>
<circle class="st2" cx="404.5" cy="281.5" r="10.5"/>
<circle class="st2" cx="441.5" cy="281.5" r="10.5"/>
<circle class="st2" cx="478.5" cy="281.5" r="10.5"/>
<circle class="st3" cx="515.5" cy="281.5" r="10.5"/>
<circle class="st3" cx="552.5" cy="281.5" r="10.5"/>
<circle class="st2" cx="589.5" cy="281.5" r="10.5"/>
<circle class="st2" cx="626.5" cy="281.5" r="10.5"/>
<circle class="st3" cx="663.5" cy="281.5" r="10.5"/>
<circle class="st2" cx="700.5" cy="281.5" r="10.5"/>
<circle class="st2" cx="737.5" cy="281.5" r="10.5"/>
<circle class="st2" cx="774.5" cy="281.5" r="10.5"/>
<circle class="st2" cx="811.5" cy="281.5" r="10.5"/>
<circle class="st2" cx="848.5" cy="281.5" r="10.5"/>
<circle class="st2" cx="885.5" cy="281.5" r="10.5"/>
<circle class="st2" cx="922.5" cy="281.5" r="10.5"/>
<circle class="st2" cx="959.5" cy="281.5" r="10.5"/>
<circle class="st2" cx="996.5" cy="281.5" r="10.5"/>
<circle class="st2" cx="1033.5" cy="281.5" r="10.5"/>
<circle class="st2" cx="1070.5" cy="281.5" r="10.5"/>
<circle class="st3" cx="1107.5" cy="281.5" r="10.5"/>
<circle class="st4" cx="1144.5" cy="281.5" r="10.5"/>
<circle class="st4" cx="1181.5" cy="281.5" r="10.5"/>
<circle class="st4" cx="1218.5" cy="281.5" r="10.5"/>
<circle class="st2" cx="1255.5" cy="281.5" r="10.5"/>
<circle class="st2" cx="1292.5" cy="281.5" r="10.5"/>
<circle class="st2" cx="1329.5" cy="281.5" r="10.5"/>
<circle class="st2" cx="1366.5" cy="281.5" r="10.5"/>
<circle class="st2" cx="1403.5" cy="281.5" r="10.5"/>
<line class="st1" x1="35" y1="350.5" x2="1404" y2="349.5"/>
<circle class="st2" cx="34.5" cy="349.5" r="10.5"/>
<circle class="st2" cx="71.5" cy="349.5" r="10.5"/>
<circle class="st2" cx="108.5" cy="349.5" r="10.5"/>
<circle class="st2" cx="145.5" cy="349.5" r="10.5"/>
<circle class="st3" cx="182.5" cy="349.5" r="10.5"/>
<circle class="st2" cx="219.5" cy="349.5" r="10.5"/>
<circle class="st2" cx="256.5" cy="349.5" r="10.5"/>
<circle class="st2" cx="293.5" cy="349.5" r="10.5"/>
<circle class="st4" cx="330.5" cy="349.5" r="10.5"/>
<circle class="st4" cx="367.5" cy="349.5" r="10.5"/>
<circle class="st2" cx="404.5" cy="349.5" r="10.5"/>
<circle class="st2" cx="441.5" cy="349.5" r="10.5"/>
<circle class="st2" cx="478.5" cy="349.5" r="10.5"/>
<circle class="st2" cx="515.5" cy="349.5" r="10.5"/>
<circle class="st3" cx="552.5" cy="349.5" r="10.5"/>
<circle class="st2" cx="589.5" cy="349.5" r="10.5"/>
<circle class="st2" cx="626.5" cy="349.5" r="10.5"/>
<circle class="st2" cx="663.5" cy="349.5" r="10.5"/>
<circle class="st2" cx="700.5" cy="349.5" r="10.5"/>
<circle class="st2" cx="737.5" cy="349.5" r="10.5"/>
<circle class="st2" cx="774.5" cy="349.5" r="10.5"/>
<circle class="st2" cx="811.5" cy="349.5" r="10.5"/>
<circle class="st2" cx="848.5" cy="349.5" r="10.5"/>
<circle class="st4" cx="885.5" cy="349.5" r="10.5"/>
<circle class="st2" cx="922.5" cy="349.5" r="10.5"/>
<circle class="st2" cx="959.5" cy="349.5" r="10.5"/>
<circle class="st2" cx="996.5" cy="349.5" r="10.5"/>
<circle class="st2" cx="1033.5" cy="349.5" r="10.5"/>
<circle class="st4" cx="1070.5" cy="349.5" r="10.5"/>
<circle class="st2" cx="1107.5" cy="349.5" r="10.5"/>
<circle class="st3" cx="1144.5" cy="349.5" r="10.5"/>
<circle class="st2" cx="1181.5" cy="349.5" r="10.5"/>
<circle class="st2" cx="1218.5" cy="349.5" r="10.5"/>
<circle class="st2" cx="1255.5" cy="349.5" r="10.5"/>
<circle class="st2" cx="1292.5" cy="349.5" r="10.5"/>
<circle class="st2" cx="1329.5" cy="349.5" r="10.5"/>
<circle class="st2" cx="1366.5" cy="349.5" r="10.5"/>
<circle class="st3" cx="1403.5" cy="349.5" r="10.5"/>
<rect x="162.5" y="35.5" class="st5" width="187" height="357"/>
<rect x="459" y="35" class="st5" width="113" height="357"/>
<rect x="1091" y="35" class="st5" width="147" height="357"/>
</svg>
