<?xml version="1.0" encoding="utf-8"?>
<!-- Generator: Adobe Illustrator 24.0.1, SVG Export Plug-In . SVG Version: 6.00 Build 0)  -->
<svg version="1.1" id="Layer_1" xmlns="http://www.w3.org/2000/svg" xmlns:xlink="http://www.w3.org/1999/xlink" x="0px" y="0px"
	 viewBox="0 0 384.9 115.54" style="enable-background:new 0 0 384.9 115.54;" xml:space="preserve">
<style type="text/css">
	.st0{fill:#A2204A;}
	.st1{fill:#FFFFFF;}
</style>
<g>
	<rect class="st0" width="384.9" height="115.54"/>
</g>
<g>
	<g>
		<path class="st1" d="M45.27,30.75h9.69c11.54,0,13,7.13,13,15.62v21.11c0,8.2-1.27,16.71-13.36,16.71h-9.34V30.75z M50.96,79.26
			h3.22c6.47,0,7.99-3.66,7.99-10.66V45.69c0-6.17-1.11-9.96-7.94-9.96h-3.27V79.26z"/>
		<path class="st1" d="M92.35,58.32H80.36v20.65h13.61l-0.77,5.23H74.68V30.75h18.36v5.27H80.36v17.07h11.99V58.32z"/>
		<path class="st1" d="M98.63,30.75h9.77c7.94,0,11.72,4.02,11.72,12.66v3.25c0,8.04-2.4,13.96-12.12,13.96h-3.69v23.57h-5.69V30.75
			z M104.32,55.83h3.18c6.06,0,6.94-3.72,6.94-9.27v-2.87c0-4.33-0.95-8.11-6.44-8.11h-3.67V55.83z"/>
		<path class="st1" d="M131.52,59.24v24.95h-5.69V30.75h9.34c8.03,0,11.98,3.46,11.98,12.3v2.44c0,7.26-2.55,10.23-5.44,11.25
			c3.39,1.26,4.97,3.81,4.97,10.96c0,4.57-0.08,13.11,0.52,16.49h-5.54c-0.68-3.33-0.56-12.31-0.56-16.06
			c0-6.92-0.97-8.89-6.27-8.89H131.52z M131.52,54.41h3.49c5.08,0,6.41-2.94,6.41-8.65v-2.38c0-4.88-1.33-7.8-6.68-7.8h-3.21V54.41z
			"/>
		<path class="st1" d="M171.15,58.32h-11.99v20.65h13.61L172,84.19h-18.52V30.75h18.36v5.27h-12.67v17.07h11.99V58.32z"/>
		<path class="st1" d="M180.29,69.15v3.1c0,5.03,1.74,7.72,5.48,7.72c3.83,0,5.34-2.77,5.34-8.63c0-6.25-1.37-8.68-7-13.07
			c-5.72-4.47-8.62-7.17-8.62-15.05c0-6.77,2.03-13.27,10.41-13.22c7.96,0.04,10.06,5.34,10.06,12.12v2.48h-5.65v-2.33
			c0-4.44-0.87-7.3-4.52-7.3c-3.67,0-4.61,3.21-4.61,7.4c0,4.97,0.99,6.85,5.89,10.56c7.42,5.61,9.77,8.73,9.77,17.61
			c0,7.51-2.15,14.36-11.16,14.36c-8.63,0-11.07-5.65-11.07-12.69v-3.07H180.29z"/>
		<path class="st1" d="M205.41,69.15v3.1c0,5.03,1.74,7.72,5.48,7.72c3.83,0,5.34-2.77,5.34-8.63c0-6.25-1.37-8.68-7-13.07
			c-5.72-4.47-8.62-7.17-8.62-15.05c0-6.77,2.03-13.27,10.42-13.22c7.96,0.04,10.06,5.34,10.06,12.12v2.48h-5.65v-2.33
			c0-4.44-0.87-7.3-4.52-7.3c-3.67,0-4.61,3.21-4.61,7.4c0,4.97,0.99,6.85,5.89,10.56c7.42,5.61,9.77,8.73,9.77,17.61
			c0,7.51-2.15,14.36-11.16,14.36c-8.62,0-11.07-5.65-11.07-12.69v-3.07H205.41z"/>
		<path class="st1" d="M233.36,30.75v53.44h-5.69V30.75H233.36z"/>
		<path class="st1" d="M263.2,43.88v26.93c0,9.39-3.87,14.09-11.83,14.09c-8.28,0-11.3-5.27-11.3-14.02v-27
			c0-9.08,4.13-13.85,11.69-13.85C259.65,30.04,263.2,35.44,263.2,43.88z M245.87,43.62v27.73c0,6.01,2.18,8.4,5.77,8.4
			c3.78,0,5.76-2.32,5.76-8.66V43.63c0-5.67-1.95-8.39-5.8-8.39C247.73,35.23,245.87,37.8,245.87,43.62z"/>
		<path class="st1" d="M269.91,84.19V30.75h6.79c2.88,9.89,10.31,37.91,11.19,42.27H288c-0.31-7.19-0.4-14.71-0.4-23.42V30.75h5.36
			v53.44h-6.56c-2.84-10.03-10.5-39.44-11.51-43.7h-0.08c0.36,6.44,0.49,14.97,0.49,24.62v19.08H269.91z"/>
		<path class="st1" d="M314.52,69.15v3.1c0,5.03,1.74,7.72,5.48,7.72c3.83,0,5.34-2.77,5.34-8.63c0-6.25-1.37-8.68-7-13.07
			c-5.72-4.47-8.62-7.17-8.62-15.05c0-6.77,2.03-13.27,10.42-13.22c7.96,0.04,10.06,5.34,10.06,12.12v2.48h-5.65v-2.33
			c0-4.44-0.87-7.3-4.52-7.3c-3.67,0-4.61,3.21-4.61,7.4c0,4.97,0.99,6.85,5.89,10.56c7.42,5.61,9.77,8.73,9.77,17.61
			c0,7.51-2.15,14.36-11.16,14.36c-8.62,0-11.07-5.65-11.07-12.69v-3.07H314.52z"/>
		<path class="st1" d="M341.25,36.02h-8.65v-5.27h22.93v5.27h-8.6v48.18h-5.69V36.02z"/>
	</g>
</g>
</svg>
