<?xml version="1.0" encoding="utf-8"?>
<!-- Generator: Adobe Illustrator 24.0.1, SVG Export Plug-In . SVG Version: 6.00 Build 0)  -->
<svg version="1.1" id="Layer_1" xmlns="http://www.w3.org/2000/svg" xmlns:xlink="http://www.w3.org/1999/xlink" x="0px" y="0px"
	 viewBox="0 0 1355 462" style="enable-background:new 0 0 1355 462;" xml:space="preserve">
<style type="text/css">
	.st0{fill:#D2ECFF;}
	.st1{fill:none;stroke:#000000;stroke-width:5;stroke-miterlimit:10;}
	.st2{fill:#0052A0;}
	.st3{fill:#FFFFFF;}
</style>
<rect class="st0" width="1355" height="462"/>
<line class="st1" x1="113" y1="58" x2="113" y2="372"/>
<line class="st1" x1="286.5" y1="372" x2="286.5" y2="388"/>
<line class="st1" x1="463.37" y1="372" x2="463.37" y2="388"/>
<line class="st1" x1="640.25" y1="372" x2="640.25" y2="388"/>
<line class="st1" x1="817.12" y1="372" x2="817.12" y2="388"/>
<line class="st1" x1="994" y1="372" x2="994" y2="388"/>
<g>
	<g>
		<path d="M131.78,399.63v-0.24c0.01-2.5,1.15-4.42,3.03-7.18c1.29-1.88,1.64-2.61,1.64-4.37c0-1.89-0.29-2.73-1.42-2.73
			c-1.07,0-1.47,0.84-1.47,2.21v0.73h-1.62v-0.79c0-1.73,0.53-3.63,3.17-3.63c2.49,0,3.09,1.79,3.09,4.11
			c0,2.48-0.68,3.44-1.94,5.22c-1.46,2.11-2.44,3.79-2.56,5.14h4.84l-0.25,1.51H131.78z"/>
		<path d="M146.31,387.65v8.09c0,2.69-1.03,4.09-3.38,4.09c-2.16,0-3.27-1.35-3.27-4.05v-8.02c0-2.98,1.4-4.12,3.37-4.12
			C144.96,383.64,146.31,384.75,146.31,387.65z M141.37,387.6v8.29c0,1.57,0.49,2.33,1.62,2.33c1.02,0,1.58-0.6,1.58-2.39v-8.25
			c0-1.69-0.61-2.34-1.6-2.34C142.01,385.24,141.37,385.8,141.37,387.6z"/>
		<path d="M154.67,387.65v8.09c0,2.69-1.03,4.09-3.38,4.09c-2.16,0-3.27-1.35-3.27-4.05v-8.02c0-2.98,1.4-4.12,3.37-4.12
			C153.32,383.64,154.67,384.75,154.67,387.65z M149.74,387.6v8.29c0,1.57,0.49,2.33,1.62,2.33c1.02,0,1.58-0.6,1.58-2.39v-8.25
			c0-1.69-0.61-2.34-1.6-2.34C150.37,385.24,149.74,385.8,149.74,387.6z"/>
		<path d="M163.03,387.65v8.09c0,2.69-1.03,4.09-3.38,4.09c-2.16,0-3.27-1.35-3.27-4.05v-8.02c0-2.98,1.4-4.12,3.37-4.12
			C161.69,383.64,163.03,384.75,163.03,387.65z M158.1,387.6v8.29c0,1.57,0.49,2.33,1.62,2.33c1.02,0,1.58-0.6,1.58-2.39v-8.25
			c0-1.69-0.61-2.34-1.6-2.34C158.73,385.24,158.1,385.8,158.1,387.6z"/>
		<path d="M170.14,388.67v4.21h3.87v1.37h-3.87v4.23h-1.43v-4.23h-3.92v-1.37h3.92v-4.21H170.14z"/>
	</g>
</g>
<g>
	<rect x="1164" y="102" class="st2" width="40" height="40"/>
</g>
<rect x="1164" y="168" class="st3" width="40" height="40"/>
<g>
	<rect x="276" y="212" class="st2" width="20" height="160"/>
</g>
<rect x="247" y="320" class="st3" width="20" height="52"/>
<g>
	<rect x="453" y="108" class="st2" width="20" height="264"/>
</g>
<rect x="424" y="148" class="st3" width="20" height="224"/>
<g>
	<rect x="630" y="176" class="st2" width="20" height="196"/>
</g>
<rect x="601" y="196" class="st3" width="20" height="176"/>
<g>
	<rect x="807" y="124" class="st2" width="20" height="248"/>
</g>
<rect x="778" y="132" class="st3" width="20" height="240"/>
<rect x="984" y="100" class="st3" width="20" height="272"/>
<g>
	<rect x="955" y="132" class="st2" width="20" height="240"/>
</g>
<line class="st1" x1="1134" y1="372" x2="113" y2="372"/>
<g>
	<g>
		<path d="M270.02,428.71v-26.05c-0.67,0.37-2.14,0.83-2.79,0.91v-2.58c1.39-0.34,2.89-1.49,3.51-2.37h1.91v30.09H270.02z"/>
		<path d="M275.94,421.87v-3.38c0-3.86,1.28-5.06,2.41-5.9c-1.3-0.95-2.06-2.5-2.06-5.56v-1.79c0-4.27,1.65-6.78,4.93-6.78
			c2.89,0,4.71,2.07,4.71,6.79v1.63c0,3.76-0.99,4.92-2.12,5.69c1.45,0.84,2.41,2.38,2.41,5.86v3.25c0,5.01-1.65,7.4-5.19,7.4
			C277.88,429.08,275.94,426.93,275.94,421.87z M283.6,421.99v-3.87c0-2.86-0.83-4.05-2.53-4.05c-1.7,0-2.52,1.24-2.52,4.16v3.71
			c0,2.5,0.7,4.3,2.51,4.3C283.01,426.24,283.6,424.57,283.6,421.99z M278.83,405.09v2.5c0,2.17,0.71,3.63,2.3,3.63
			c1.49,0,2.24-1.1,2.24-3.7v-2.46c0-2.09-0.41-3.79-2.26-3.79C279.4,401.28,278.83,402.9,278.83,405.09z"/>
		<path d="M294.55,415.18v3.04h-6.25v-3.04H294.55z"/>
		<path d="M298.47,428.71v-26.05c-0.67,0.37-2.14,0.83-2.79,0.91v-2.58c1.39-0.34,2.89-1.49,3.51-2.37h1.91v30.09H298.47z"/>
		<path d="M307.14,422.24v0.3c0,2.58,0.78,3.76,2.17,3.76c1.83,0,2.39-1.43,2.39-6.26v-5.38c-0.53,1.38-1.41,2.28-3.21,2.28
			c-3.1,0-4.17-2.87-4.17-7v-4.35c0-4.42,1.62-7.14,5.02-7.14c3.22,0,4.95,2.36,4.95,7.32v13.46c0,5.83-0.5,9.86-5.01,9.86
			c-3.79,0-4.74-3.22-4.74-6.68v-0.16H307.14z M306.94,405.29v4.64c0,2.07,0.35,4.13,2.24,4.13c2.03,0,2.5-2.25,2.5-5.28v-3.41
			c0-2.74-0.65-4.17-2.36-4.17C307.75,401.19,306.94,402.4,306.94,405.29z"/>
		<path d="M443.92,428.71v-26.05c-0.67,0.37-2.14,0.83-2.79,0.91v-2.58c1.39-0.34,2.89-1.49,3.51-2.37h1.91v30.09H443.92z"/>
		<path d="M458.9,398.81v2.46c-3.01,7.34-5.34,16.48-6.34,27.45h-2.69c0.81-9.61,3.32-19.89,6.32-26.98h-7.25v-2.93H458.9z"/>
		<path d="M466.37,415.18v3.04h-6.25v-3.04H466.37z"/>
		<path d="M470.29,428.71v-26.05c-0.67,0.37-2.14,0.83-2.79,0.91v-2.58c1.39-0.34,2.89-1.49,3.51-2.37h1.91v30.09H470.29z"/>
		<path d="M476.21,421.87v-3.38c0-3.86,1.28-5.06,2.41-5.9c-1.3-0.95-2.06-2.5-2.06-5.56v-1.79c0-4.27,1.65-6.78,4.93-6.78
			c2.89,0,4.71,2.07,4.71,6.79v1.63c0,3.76-0.99,4.92-2.12,5.69c1.45,0.84,2.41,2.38,2.41,5.86v3.25c0,5.01-1.65,7.4-5.19,7.4
			C478.15,429.08,476.21,426.93,476.21,421.87z M483.87,421.99v-3.87c0-2.86-0.83-4.05-2.53-4.05c-1.7,0-2.52,1.24-2.52,4.16v3.71
			c0,2.5,0.7,4.3,2.51,4.3C483.28,426.24,483.87,424.57,483.87,421.99z M479.1,405.09v2.5c0,2.17,0.71,3.63,2.3,3.63
			c1.49,0,2.24-1.1,2.24-3.7v-2.46c0-2.09-0.41-3.79-2.26-3.79C479.67,401.28,479.1,402.9,479.1,405.09z"/>
		<path d="M620.97,428.71v-26.05c-0.67,0.37-2.14,0.83-2.79,0.91v-2.58c1.39-0.34,2.89-1.49,3.51-2.37h1.91v30.09H620.97z"/>
		<path d="M634.34,405.29v-0.31c0-1.36-0.2-3.74-2.21-3.74c-1.99,0-2.47,1.8-2.47,5.57v4.44c0.53-1.2,1.49-2.33,3.39-2.33
			c3.09,0,4.11,3.02,4.11,6.67v5.55c0,4.6-1.11,7.95-5.1,7.95c-4.04,0-5-3.66-5-7.96V406.9c0-5.11,1.16-8.46,5.1-8.46
			c3.93,0,4.71,3.55,4.71,6.64v0.21H634.34z M634.54,421.59v-5.46c0-2.55-0.48-4.29-2.3-4.29c-2.03,0-2.57,2.17-2.57,5.12v4.63
			c0,2.49,0.48,4.73,2.43,4.73C633.77,426.32,634.54,424.9,634.54,421.59z"/>
		<path d="M645.43,415.18v3.04h-6.25v-3.04H645.43z"/>
		<path d="M649.35,428.71v-26.05c-0.67,0.37-2.14,0.83-2.79,0.91v-2.58c1.39-0.34,2.89-1.49,3.51-2.37h1.91v30.09H649.35z"/>
		<path d="M664.33,398.81v2.46c-3.01,7.34-5.34,16.48-6.34,27.45h-2.69c0.81-9.61,3.32-19.89,6.32-26.98h-7.25v-2.93H664.33z"/>
		<path d="M797.95,428.71v-26.05c-0.67,0.37-2.14,0.83-2.79,0.91v-2.58c1.39-0.34,2.89-1.49,3.51-2.37h1.91v30.09H797.95z"/>
		<path d="M813.39,401.73h-6c-0.13,2.56-0.36,6.65-0.55,8.92c0.48-0.98,1.6-1.74,3.02-1.74c3.21,0,4.29,2.97,4.29,7.91v3.49
			c0,4.9-0.99,8.77-5.26,8.77c-3.9,0-5.08-3.29-5.08-7.14v-0.51h2.64v0.8c0,1.95,0.52,4.07,2.44,4.07c2.14,0,2.53-2.2,2.53-5.44
			v-3.88c0-3.29-0.41-5.22-2.37-5.22c-1.55,0-2.2,1.1-2.59,3.27l-2.38-0.33c0.38-4.15,0.84-12.78,0.98-15.88h8.63L813.39,401.73z"/>
		<path d="M822.49,415.18v3.04h-6.25v-3.04H822.49z"/>
		<path d="M826.41,428.71v-26.05c-0.67,0.37-2.14,0.83-2.79,0.91v-2.58c1.39-0.34,2.89-1.49,3.51-2.37h1.91v30.09H826.41z"/>
		<path d="M839.78,405.29v-0.31c0-1.36-0.2-3.74-2.21-3.74c-1.99,0-2.47,1.8-2.47,5.57v4.44c0.53-1.2,1.49-2.33,3.39-2.33
			c3.09,0,4.11,3.02,4.11,6.67v5.55c0,4.6-1.11,7.95-5.1,7.95c-4.04,0-5-3.66-5-7.96V406.9c0-5.11,1.16-8.46,5.1-8.46
			c3.93,0,4.71,3.55,4.71,6.64v0.21H839.78z M839.97,421.59v-5.46c0-2.55-0.48-4.29-2.3-4.29c-2.03,0-2.57,2.17-2.57,5.12v4.63
			c0,2.49,0.48,4.73,2.43,4.73C839.2,426.32,839.97,424.9,839.97,421.59z"/>
		<path d="M977.01,428.71v-26.05c-0.67,0.37-2.14,0.83-2.79,0.91v-2.58c1.39-0.34,2.89-1.49,3.51-2.37h1.91v30.09H977.01z"/>
		<path d="M989.22,428.71v-8.1h-6.84v-2.41l5.87-19.39h3.44v19.05h1.9l-0.24,2.76h-1.67v8.1H989.22z M989.22,410.66
			c0-2.84,0.07-5.69,0.13-8.5h-0.04c-1.33,5.18-2.89,10.59-4.35,15.7h4.25V410.66z"/>
		<path d="M1001.14,415.18v3.04h-6.25v-3.04H1001.14z"/>
		<path d="M1005.06,428.71v-26.05c-0.67,0.37-2.14,0.83-2.79,0.91v-2.58c1.39-0.34,2.89-1.49,3.51-2.37h1.91v30.09H1005.06z"/>
		<path d="M1020.49,401.73h-6c-0.13,2.56-0.36,6.65-0.55,8.92c0.48-0.98,1.6-1.74,3.02-1.74c3.21,0,4.29,2.97,4.29,7.91v3.49
			c0,4.9-0.99,8.77-5.26,8.77c-3.9,0-5.08-3.29-5.08-7.14v-0.51h2.64v0.8c0,1.95,0.52,4.07,2.44,4.07c2.14,0,2.53-2.2,2.53-5.44
			v-3.88c0-3.29-0.41-5.22-2.37-5.22c-1.55,0-2.2,1.1-2.59,3.27l-2.38-0.33c0.38-4.15,0.84-12.78,0.98-15.88h8.63L1020.49,401.73z"
			/>
	</g>
</g>
<g>
	<g>
		<path d="M79.1,342.66h-3.93c-0.09,1.35-0.23,3.51-0.36,4.71c0.31-0.52,1.04-0.92,1.98-0.92c2.1,0,2.81,1.57,2.81,4.18v1.84
			c0,2.59-0.65,4.63-3.44,4.63c-2.55,0-3.33-1.74-3.33-3.77v-0.27h1.73v0.42c0,1.03,0.34,2.15,1.6,2.15c1.4,0,1.66-1.16,1.66-2.87
			v-2.05c0-1.74-0.27-2.76-1.55-2.76c-1.01,0-1.44,0.58-1.69,1.73l-1.56-0.18c0.25-2.19,0.55-6.75,0.64-8.39h5.65L79.1,342.66z"/>
		<path d="M87.85,344.94v8.09c0,2.69-1.03,4.09-3.38,4.09c-2.16,0-3.27-1.35-3.27-4.05v-8.02c0-2.98,1.4-4.12,3.37-4.12
			C86.5,340.92,87.85,342.04,87.85,344.94z M82.91,344.88v8.29c0,1.57,0.49,2.33,1.62,2.33c1.02,0,1.58-0.6,1.58-2.39v-8.25
			c0-1.69-0.61-2.34-1.6-2.34C83.55,342.53,82.91,343.08,82.91,344.88z"/>
		<path d="M94.95,345.96v4.21h3.87v1.37h-3.87v4.23h-1.43v-4.23h-3.92v-1.37h3.92v-4.21H94.95z"/>
	</g>
</g>
<g>
	<g>
		<path d="M89.15,299.54v-0.16c0-0.72-0.13-1.97-1.45-1.97c-1.3,0-1.62,0.95-1.62,2.94v2.34c0.34-0.63,0.98-1.23,2.22-1.23
			c2.02,0,2.69,1.6,2.69,3.53v2.93c0,2.43-0.72,4.2-3.34,4.2c-2.64,0-3.27-1.93-3.27-4.2v-7.52c0-2.7,0.76-4.47,3.34-4.47
			c2.57,0,3.08,1.87,3.08,3.51v0.11H89.15z M89.27,308.15v-2.89c0-1.35-0.31-2.26-1.5-2.26c-1.33,0-1.68,1.15-1.68,2.7v2.45
			c0,1.32,0.31,2.5,1.59,2.5C88.77,310.65,89.27,309.9,89.27,308.15z"/>
		<path d="M92.48,299.89v-0.37c0-1.47,0.41-3.59,3.1-3.59c2.23,0,3.01,1.41,3.01,3.56v0.71c0,1.83-0.57,2.63-1.48,2.99v0.02
			c1.16,0.39,1.85,1.28,1.85,3.27v1.36c0,2.5-0.75,4.28-3.41,4.28c-2.43,0-3.31-1.45-3.31-3.57v-0.46h1.63v0.44
			c0,1.16,0.43,2.12,1.68,2.12c1.25,0,1.68-0.87,1.68-2.62v-1.53c0-1.91-0.68-2.49-2.1-2.49h-0.67v-1.5h0.66
			c1.21,0,1.78-0.44,1.78-2.16v-0.88c0-1.18-0.25-2.1-1.4-2.1c-1.16,0-1.44,0.96-1.44,2.02v0.48H92.48z"/>
	</g>
</g>
<g>
	<g>
		<path d="M83.14,170.92v-13.76c-0.44,0.2-1.4,0.44-1.82,0.48v-1.37c0.91-0.18,1.89-0.79,2.3-1.25h1.25v15.9H83.14z"/>
		<path d="M88.23,170.92v-13.76c-0.44,0.2-1.4,0.44-1.82,0.48v-1.37c0.91-0.18,1.89-0.79,2.3-1.25h1.25v15.9H88.23z"/>
		<path d="M98.86,158.94v8.09c0,2.69-1.03,4.09-3.38,4.09c-2.16,0-3.27-1.35-3.27-4.05v-8.02c0-2.98,1.4-4.12,3.37-4.12
			C97.51,154.92,98.86,156.04,98.86,158.94z M93.93,158.88v8.29c0,1.57,0.49,2.33,1.62,2.33c1.02,0,1.58-0.6,1.58-2.39v-8.25
			c0-1.69-0.61-2.34-1.6-2.34C94.56,156.53,93.93,157.08,93.93,158.88z"/>
	</g>
</g>
<g>
	<g>
		<path d="M83.29,123.92v-13.76c-0.44,0.2-1.4,0.44-1.82,0.48v-1.37c0.91-0.18,1.89-0.79,2.3-1.25h1.25v15.9H83.29z"/>
		<path d="M88.37,123.92v-13.76c-0.44,0.2-1.4,0.44-1.82,0.48v-1.37c0.91-0.18,1.89-0.79,2.3-1.25h1.25v15.9H88.37z"/>
		<path d="M92.24,120.3v-1.79c0-2.04,0.84-2.67,1.58-3.12c-0.85-0.5-1.35-1.32-1.35-2.94v-0.95c0-2.25,1.08-3.58,3.23-3.58
			c1.89,0,3.08,1.09,3.08,3.59v0.86c0,1.99-0.65,2.6-1.39,3.01c0.95,0.44,1.58,1.26,1.58,3.1v1.71c0,2.65-1.08,3.91-3.39,3.91
			C93.52,124.11,92.24,122.98,92.24,120.3z M97.26,120.36v-2.04c0-1.51-0.54-2.14-1.66-2.14s-1.65,0.66-1.65,2.2v1.96
			c0,1.32,0.46,2.27,1.64,2.27C96.88,122.61,97.26,121.73,97.26,120.36z M94.14,111.44v1.32c0,1.15,0.46,1.92,1.5,1.92
			c0.97,0,1.47-0.58,1.47-1.96v-1.3c0-1.1-0.27-2-1.48-2C94.51,109.42,94.14,110.28,94.14,111.44z"/>
	</g>
</g>
<g>
	<g>
		<path d="M1236.46,111.24h8.64v3.03h-6v10h5.66v3.03h-5.66v14.67h-2.64V111.24z"/>
		<path d="M1256.83,133.15v1.04c0,3.91-0.57,8.18-5.05,8.18c-4.29,0-5.03-3.77-5.03-8.29v-15.63c0-4.92,1.71-7.63,5.06-7.63
			c4.16,0,4.91,3.66,4.91,7.69v1.2h-2.68v-1.44c0-2.43-0.31-4.46-2.27-4.46c-1.86,0-2.33,1.82-2.33,4.53v15.96
			c0,3.08,0.54,5.11,2.41,5.11c1.93,0,2.29-2.08,2.29-4.97v-1.29H1256.83z"/>
		<path d="M1259.38,111.24h4.32c3.85,0,5.3,2.51,5.3,6.68v1.38c0,4.32-1.06,5.64-2.3,6.21c1.34,0.53,2.81,1.99,2.81,6.17v2.27
			c0,5.35-1.5,8.01-5.72,8.01h-4.4V111.24z M1263.58,124.24c2.22,0,2.89-1.11,2.89-4.69v-1.38c0-2.79-0.83-4.16-2.96-4.16h-1.56
			v10.23H1263.58z M1261.95,139.21h1.59c2.67,0,3.33-1.58,3.33-5.32v-2.12c0-3.35-0.95-4.79-3.34-4.79h-1.59V139.21z"/>
		<path d="M1239.1,196.62v14.35h-2.64v-30.73h4.33c3.73,0,5.56,1.99,5.56,7.07v1.41c0,4.17-1.18,5.88-2.53,6.47
			c1.57,0.72,2.31,2.19,2.31,6.3c0,2.63-0.04,7.54,0.24,9.48h-2.57c-0.31-1.92-0.26-7.08-0.26-9.23c0-3.98-0.45-5.12-2.91-5.12
			H1239.1z M1239.1,193.84h1.62c2.36,0,2.97-1.69,2.97-4.97v-1.37c0-2.81-0.62-4.49-3.1-4.49h-1.49V193.84z"/>
		<path d="M1261.5,198.15c0-5.63,0.08-11.71,0.15-14.99h-0.04c-0.62,5.16-2.51,18.68-3.84,27.82h-2.58
			c-1.01-7.9-2.96-22.35-3.56-27.84h-0.07c0.07,3.56,0.21,10.54,0.21,15.8v12.04h-2.45v-30.73h3.91c1.36,9.08,2.99,20.35,3.32,24.26
			h0.04c0.39-3.83,2.29-15.72,3.64-24.26h3.83v30.73h-2.56V198.15z"/>
	</g>
</g>
<g>
	<g>
		<path d="M1236.46,111.24h8.64v3.03h-6v10h5.66v3.03h-5.66v14.67h-2.64V111.24z"/>
		<path d="M1256.83,133.15v1.04c0,3.91-0.57,8.18-5.05,8.18c-4.29,0-5.03-3.77-5.03-8.29v-15.63c0-4.92,1.71-7.63,5.06-7.63
			c4.16,0,4.91,3.66,4.91,7.69v1.2h-2.68v-1.44c0-2.43-0.31-4.46-2.27-4.46c-1.86,0-2.33,1.82-2.33,4.53v15.96
			c0,3.08,0.54,5.11,2.41,5.11c1.93,0,2.29-2.08,2.29-4.97v-1.29H1256.83z"/>
		<path d="M1259.38,111.24h4.32c3.85,0,5.3,2.51,5.3,6.68v1.38c0,4.32-1.06,5.64-2.3,6.21c1.34,0.53,2.81,1.99,2.81,6.17v2.27
			c0,5.35-1.5,8.01-5.72,8.01h-4.4V111.24z M1263.58,124.24c2.22,0,2.89-1.11,2.89-4.69v-1.38c0-2.79-0.83-4.16-2.96-4.16h-1.56
			v10.23H1263.58z M1261.95,139.21h1.59c2.67,0,3.33-1.58,3.33-5.32v-2.12c0-3.35-0.95-4.79-3.34-4.79h-1.59V139.21z"/>
		<path d="M1239.1,196.62v14.35h-2.64v-30.73h4.33c3.73,0,5.56,1.99,5.56,7.07v1.41c0,4.17-1.18,5.88-2.53,6.47
			c1.57,0.72,2.31,2.19,2.31,6.3c0,2.63-0.04,7.54,0.24,9.48h-2.57c-0.31-1.92-0.26-7.08-0.26-9.23c0-3.98-0.45-5.12-2.91-5.12
			H1239.1z M1239.1,193.84h1.62c2.36,0,2.97-1.69,2.97-4.97v-1.37c0-2.81-0.62-4.49-3.1-4.49h-1.49V193.84z"/>
		<path d="M1261.5,198.15c0-5.63,0.08-11.71,0.15-14.99h-0.04c-0.62,5.16-2.51,18.68-3.84,27.82h-2.58
			c-1.01-7.9-2.96-22.35-3.56-27.84h-0.07c0.07,3.56,0.21,10.54,0.21,15.8v12.04h-2.45v-30.73h3.91c1.36,9.08,2.99,20.35,3.32,24.26
			h0.04c0.39-3.83,2.29-15.72,3.64-24.26h3.83v30.73h-2.56V198.15z"/>
	</g>
</g>
<line class="st1" x1="113.5" y1="132" x2="85" y2="132"/>
<line class="st1" x1="113.5" y1="148" x2="85" y2="148"/>
<line class="st1" x1="113.5" y1="320" x2="85" y2="320"/>
</svg>
