<?xml version="1.0" encoding="utf-8"?>
<!-- Generator: Adobe Illustrator 24.0.1, SVG Export Plug-In . SVG Version: 6.00 Build 0)  -->
<svg version="1.1" id="Layer_1" xmlns="http://www.w3.org/2000/svg" xmlns:xlink="http://www.w3.org/1999/xlink" x="0px" y="0px"
	 viewBox="0 0 1920 488.2" style="enable-background:new 0 0 1920 488.2;" xml:space="preserve">
<style type="text/css">
	.st0{fill:#D2ECFF;}
	.st1{fill:#A2204A;}
	.st2{fill:#0052A0;}
	.st3{fill:#DEB405;}
	.st4{fill:#D6EDFC;}
	.st5{fill:#A2224C;}
	.st6{fill-rule:evenodd;clip-rule:evenodd;fill:#00539F;}
	.st7{fill-rule:evenodd;clip-rule:evenodd;}
	.st8{fill-rule:evenodd;clip-rule:evenodd;fill:#DEB408;}
	.st9{fill-rule:evenodd;clip-rule:evenodd;fill:#FFFFFF;}
	.st10{fill-rule:evenodd;clip-rule:evenodd;fill:#FFDF1C;}
	.st11{fill-rule:evenodd;clip-rule:evenodd;fill:#E03A3E;}
	.st12{fill-rule:evenodd;clip-rule:evenodd;fill:#A2224C;}
</style>
<rect class="st0" width="1920" height="488"/>
<g>
	<rect x="1189" y="42" class="st1" width="692" height="398"/>
</g>
<g>
	<g>
		<path d="M53.32,52.73h-9.58v-5.83h25.41v5.83h-9.52v53.38h-6.3V52.73z"/>
		<path d="M73.28,46.89h6.3v24.54H91.9V46.89h6.3v59.21h-6.3V77.23H79.58v28.87h-6.3V46.89z"/>
		<path d="M126.5,77.43h-13.28v22.88h15.08l-0.85,5.79h-20.52V46.89h20.34v5.83h-14.04v18.91h13.28V77.43z"/>
		<path d="M151.42,46.89v46.02c0,4.89,1.72,8.22,6.16,8.22c4.53,0,6.08-3.14,6.08-8.17V46.89H170v45.84
			c0,9.15-4.11,14.16-12.55,14.16c-8.2,0-12.33-4.6-12.33-14.01V46.89H151.42z"/>
		<path d="M178.49,46.89h6.3v53.54h14.89l-0.7,5.67h-20.49V46.89z"/>
		<path d="M208.87,52.73h-9.58v-5.83h25.41v5.83h-9.52v53.38h-6.3V52.73z"/>
		<path d="M235.13,46.89v59.21h-6.3V46.89H235.13z"/>
		<path d="M272.99,81.4c0-10.85,0.19-22.55,0.36-28.89h-0.09c-1.47,9.94-6,36-9.16,53.59h-6.16c-2.4-15.23-7.07-43.07-8.49-53.63
			h-0.18c0.18,6.87,0.49,20.3,0.49,30.44v23.19h-5.86V46.89h9.34c3.25,17.5,7.13,39.2,7.93,46.75h0.09
			c0.93-7.38,5.46-30.28,8.7-46.75h9.15v59.21h-6.11V81.4z"/>
		<path d="M293.61,87.21l-2.83,18.9h-6.38l9.73-59.21h8.98l10.13,59.21h-6.6l-3.05-18.9H293.61z M302.77,81.42
			c-2.07-13.04-3.55-23.11-4.12-28.71h-0.26c-0.22,4.58-2.34,17.9-3.93,28.71H302.77z"/>
		<path d="M323.48,52.73h-9.58v-5.83h25.41v5.83h-9.52v53.38h-6.3V52.73z"/>
		<path d="M362.98,77.43H349.7v22.88h15.08l-0.85,5.79H343.4V46.89h20.34v5.83H349.7v18.91h13.28V77.43z"/>
		<path class="st2" d="M381.91,46.89h20.61v5.83h-14.31V72h13.5v5.83h-13.5v28.27h-6.3V46.89z"/>
		<path class="st3" d="M430.52,89.12v2.01c0,7.53-1.35,15.77-12.06,15.77c-10.25,0-12.01-7.27-12.01-15.96V60.81
			c0-9.48,4.07-14.71,12.09-14.71c9.94,0,11.72,7.06,11.72,14.81v2.31h-6.4v-2.78c0-4.69-0.73-8.59-5.42-8.59
			c-4.44,0-5.56,3.51-5.56,8.74v30.74c0,5.94,1.3,9.85,5.75,9.85c4.62,0,5.46-4,5.46-9.58v-2.48H430.52z"/>
		<path class="st1" d="M436.6,46.89h10.31c9.19,0,12.64,4.83,12.64,12.88v2.67c0,8.32-2.53,10.86-5.5,11.97
			c3.21,1.02,6.7,3.83,6.7,11.88v4.38c0,10.31-3.57,15.44-13.65,15.44H436.6V46.89z M446.63,71.95c5.29,0,6.9-2.14,6.9-9.03v-2.65
			c0-5.37-1.97-8.02-7.06-8.02h-3.73v19.7H446.63z M442.74,100.8h3.8c6.37,0,7.95-3.05,7.95-10.25v-4.09c0-6.46-2.26-9.23-7.96-9.23
			h-3.79V100.8z"/>
		<path d="M479.5,46.89h20.61v5.83H485.8V72h13.5v5.83h-13.5v28.27h-6.3V46.89z"/>
		<path d="M511.12,87.21l-2.83,18.9h-6.38l9.73-59.21h8.98l10.13,59.21h-6.6l-3.05-18.9H511.12z M520.29,81.42
			c-2.07-13.04-3.55-23.11-4.12-28.71h-0.26c-0.22,4.58-2.34,17.9-3.93,28.71H520.29z"/>
		<path d="M536.05,106.1V46.89h7.52c3.19,10.96,11.43,42,12.39,46.83h0.14c-0.35-7.96-0.44-16.29-0.44-25.95V46.89h5.94v59.21h-7.27
			c-3.15-11.11-11.64-43.7-12.76-48.41h-0.09c0.4,7.13,0.55,16.59,0.55,27.28v21.14H536.05z"/>
		<path d="M575.3,52.73h-9.58v-5.83h25.41v5.83h-9.52v53.38h-6.3V52.73z"/>
		<path d="M601,87.21l-2.83,18.9h-6.38l9.73-59.21h8.98l10.13,59.21h-6.6l-3.05-18.9H601z M610.16,81.42
			c-2.07-13.04-3.55-23.11-4.12-28.71h-0.26c-0.22,4.58-2.34,17.9-3.93,28.71H610.16z"/>
		<path d="M629.09,89.43v3.43c0,5.58,1.93,8.56,6.08,8.56c4.24,0,5.92-3.07,5.92-9.56c0-6.93-1.52-9.62-7.76-14.48
			c-6.33-4.96-9.55-7.95-9.55-16.67c0-7.5,2.25-14.7,11.54-14.65c8.82,0.05,11.14,5.91,11.14,13.43v2.75h-6.26v-2.58
			c0-4.92-0.96-8.09-5.01-8.09c-4.06,0-5.11,3.56-5.11,8.2c0,5.5,1.1,7.59,6.53,11.7c8.22,6.21,10.82,9.68,10.82,19.51
			c0,8.32-2.38,15.91-12.37,15.91c-9.56,0-12.26-6.26-12.26-14.06v-3.4H629.09z"/>
		<path d="M660.15,106.1V84c0-0.65-0.09-1.05-0.26-1.59l-10.89-35.51h6.93c2.94,10.71,6.49,23.48,7.47,28.91h0.09
			c1.14-5.71,4.75-18.68,7.46-28.91h6.68l-11.01,35.91c-0.09,0.4-0.18,0.87-0.18,1.76v21.53H660.15z"/>
		<path d="M693.64,46.89h6.3v53.54h14.89l-0.7,5.67h-20.49V46.89z"/>
		<path d="M738.62,77.43h-13.28v22.88h15.08l-0.85,5.79h-20.52V46.89h20.34v5.83h-14.04v18.91h13.28V77.43z"/>
		<path d="M751.33,87.21l-2.83,18.9h-6.38l9.73-59.21h8.98l10.13,59.21h-6.6l-3.05-18.9H751.33z M760.49,81.42
			c-2.07-13.04-3.55-23.11-4.12-28.71h-0.26c-0.22,4.58-2.34,17.9-3.93,28.71H760.49z"/>
		<path d="M799.89,106.1h-5c-0.17-0.97-0.35-3.79-0.39-5.12c-1.49,4.39-4.85,5.92-8.71,5.92c-8.19,0-10.88-6.04-10.88-15.51V61.76
			c0-9.71,3.92-15.66,12.66-15.66c10.32,0,12.2,7.29,12.2,14.82v1.51h-6.3v-1.65c0-4.14-0.49-8.92-5.95-8.92
			c-4.12,0-6.18,2.6-6.18,9.33v30.52c0,5.83,1.52,9.56,5.84,9.56c5.43,0,6.36-5.01,6.36-12.57v-9.44h-6.58v-5.51h12.92V106.1z"/>
		<path d="M813.89,46.89v46.02c0,4.89,1.72,8.22,6.16,8.22c4.53,0,6.08-3.14,6.08-8.17V46.89h6.35v45.84
			c0,9.15-4.11,14.16-12.55,14.16c-8.2,0-12.33-4.6-12.33-14.01V46.89H813.89z"/>
		<path d="M860.49,77.43h-13.28v22.88h15.08l-0.85,5.79h-20.52V46.89h20.34v5.83h-14.04v18.91h13.28V77.43z"/>
		<path d="M879.42,46.89h10.83c8.8,0,12.99,4.46,12.99,14.02v3.6c0,8.9-2.66,15.47-13.42,15.47h-4.09v26.12h-6.3V46.89z
			 M885.72,74.68h3.52c6.71,0,7.69-4.12,7.69-10.27v-3.17c0-4.79-1.05-8.99-7.14-8.99h-4.07V74.68z"/>
		<path d="M915.86,78.46v27.65h-6.3V46.89h10.35c8.9,0,13.27,3.84,13.27,13.63v2.71c0,8.04-2.83,11.34-6.03,12.47
			c3.75,1.39,5.5,4.22,5.5,12.14c0,5.06-0.09,14.53,0.58,18.27h-6.14c-0.75-3.69-0.62-13.64-0.62-17.79c0-7.67-1.08-9.86-6.95-9.86
			H915.86z M915.86,73.11h3.87c5.62,0,7.1-3.26,7.1-9.58v-2.64c0-5.41-1.48-8.65-7.41-8.65h-3.56V73.11z"/>
		<path d="M959.77,77.43h-13.28v22.88h15.08l-0.85,5.79h-20.52V46.89h20.34v5.83h-14.04v18.91h13.28V77.43z"/>
		<path d="M966.73,46.89h10.74c12.79,0,14.41,7.91,14.41,17.31v23.38c0,9.09-1.4,18.52-14.8,18.52h-10.35V46.89z M973.03,100.63
			h3.57c7.17,0,8.85-4.05,8.85-11.81V63.45c0-6.84-1.22-11.04-8.79-11.04h-3.63V100.63z"/>
		<path d="M1005.65,46.89v59.21h-6.3V46.89H1005.65z"/>
		<path d="M1037.15,89.12v2.01c0,7.53-1.35,15.77-12.06,15.77c-10.25,0-12.01-7.27-12.01-15.96V60.81c0-9.48,4.07-14.71,12.09-14.71
			c9.94,0,11.72,7.06,11.72,14.81v2.31h-6.4v-2.78c0-4.69-0.73-8.59-5.42-8.59c-4.44,0-5.56,3.51-5.56,8.74v30.74
			c0,5.94,1.3,9.85,5.75,9.85c4.62,0,5.46-4,5.46-9.58v-2.48H1037.15z"/>
		<path d="M1048.17,52.73h-9.58v-5.83H1064v5.83h-9.52v53.38h-6.3V52.73z"/>
		<path d="M1092.42,61.44v29.84c0,10.4-4.29,15.62-13.11,15.62c-9.17,0-12.52-5.84-12.52-15.54V61.45
			c0-10.06,4.58-15.34,12.95-15.34C1088.49,46.1,1092.42,52.08,1092.42,61.44z M1073.22,61.15v30.73c0,6.66,2.42,9.31,6.39,9.31
			c4.19,0,6.38-2.57,6.38-9.59V61.16c0-6.29-2.16-9.3-6.43-9.3C1075.29,51.86,1073.22,54.7,1073.22,61.15z"/>
		<path d="M1106.16,78.46v27.65h-6.3V46.89h10.35c8.9,0,13.27,3.84,13.27,13.63v2.71c0,8.04-2.83,11.34-6.03,12.47
			c3.75,1.39,5.5,4.22,5.5,12.14c0,5.06-0.09,14.53,0.58,18.27h-6.14c-0.75-3.69-0.62-13.64-0.62-17.79c0-7.67-1.08-9.86-6.95-9.86
			H1106.16z M1106.16,73.11h3.87c5.62,0,7.1-3.26,7.1-9.58v-2.64c0-5.41-1.48-8.65-7.41-8.65h-3.56V73.11z"/>
	</g>
</g>
<g>
	<g>
		<path class="st4" d="M1264.42,123.83v3.1c0,5.03,1.74,7.72,5.48,7.72c3.83,0,5.34-2.77,5.34-8.63c0-6.25-1.38-8.68-7-13.07
			c-5.72-4.47-8.62-7.17-8.62-15.05c0-6.77,2.03-13.27,10.41-13.22c7.96,0.04,10.06,5.34,10.06,12.12v2.48h-5.65v-2.33
			c0-4.44-0.87-7.3-4.52-7.3c-3.67,0-4.61,3.21-4.61,7.4c0,4.97,0.99,6.85,5.89,10.56c7.42,5.61,9.77,8.73,9.77,17.61
			c0,7.51-2.15,14.36-11.16,14.36c-8.62,0-11.07-5.65-11.07-12.69v-3.07H1264.42z"/>
		<path class="st4" d="M1291.15,90.7h-8.65v-5.27h22.93v5.27h-8.6v48.18h-5.69V90.7z"/>
		<path class="st4" d="M1314.34,121.82l-2.55,17.06h-5.76l8.78-53.44h8.1l9.14,53.44h-5.96l-2.75-17.06H1314.34z M1322.61,116.59
			c-1.87-11.77-3.21-20.86-3.72-25.91h-0.23c-0.2,4.13-2.11,16.15-3.55,25.91H1322.61z"/>
		<path class="st4" d="M1341.3,90.7h-8.65v-5.27h22.93v5.27h-8.6v48.18h-5.69V90.7z"/>
		<path class="st4" d="M1365.01,85.43v53.44h-5.69V85.43H1365.01z"/>
		<path class="st4" d="M1375.78,123.83v3.1c0,5.03,1.74,7.72,5.48,7.72c3.83,0,5.34-2.77,5.34-8.63c0-6.25-1.38-8.68-7-13.07
			c-5.72-4.47-8.62-7.17-8.62-15.05c0-6.77,2.03-13.27,10.41-13.22c7.96,0.04,10.06,5.34,10.06,12.12v2.48h-5.65v-2.33
			c0-4.44-0.87-7.3-4.52-7.3c-3.67,0-4.61,3.21-4.61,7.4c0,4.97,0.99,6.85,5.89,10.56c7.42,5.61,9.77,8.73,9.77,17.61
			c0,7.51-2.15,14.36-11.16,14.36c-8.62,0-11.07-5.65-11.07-12.69v-3.07H1375.78z"/>
		<path class="st4" d="M1402.5,90.7h-8.65v-5.27h22.93v5.27h-8.6v48.18h-5.69V90.7z"/>
		<path class="st4" d="M1426.2,85.43v53.44h-5.69V85.43H1426.2z"/>
		<path class="st4" d="M1454.63,123.54v1.81c0,6.79-1.22,14.23-10.89,14.23c-9.25,0-10.84-6.56-10.84-14.41V97.99
			c0-8.55,3.67-13.27,10.91-13.27c8.97,0,10.57,6.37,10.57,13.37v2.09h-5.77v-2.51c0-4.23-0.66-7.75-4.89-7.75
			c-4.01,0-5.02,3.17-5.02,7.88v27.75c0,5.36,1.17,8.89,5.19,8.89c4.17,0,4.92-3.61,4.92-8.65v-2.24H1454.63z"/>
		<path class="st4" d="M1465.3,121.82l-2.55,17.06h-5.76l8.78-53.44h8.1l9.14,53.44h-5.96l-2.75-17.06H1465.3z M1473.57,116.59
			c-1.87-11.77-3.21-20.86-3.72-25.91h-0.23c-0.2,4.13-2.11,16.15-3.55,25.91H1473.57z"/>
		<path class="st4" d="M1487.8,85.43h5.69v48.32h13.44l-0.63,5.12h-18.5V85.43z"/>
		<path class="st4" d="M1543.58,121.82l-2.55,17.06h-5.76l8.78-53.44h8.1l9.14,53.44h-5.96l-2.75-17.06H1543.58z M1551.85,116.59
			c-1.87-11.77-3.21-20.86-3.72-25.91h-0.23c-0.2,4.13-2.11,16.15-3.55,25.91H1551.85z"/>
		<path class="st4" d="M1566.08,138.88V85.43h6.79c2.88,9.89,10.31,37.91,11.19,42.27h0.12c-0.31-7.19-0.4-14.71-0.4-23.42V85.43
			h5.36v53.44h-6.56c-2.84-10.03-10.5-39.44-11.51-43.7h-0.08c0.36,6.44,0.49,14.97,0.49,24.62v19.08H1566.08z"/>
		<path class="st4" d="M1602.22,121.82l-2.55,17.06h-5.76l8.78-53.44h8.1l9.14,53.44h-5.96l-2.75-17.06H1602.22z M1610.49,116.59
			c-1.87-11.77-3.21-20.86-3.72-25.91h-0.23c-0.2,4.13-2.11,16.15-3.55,25.91H1610.49z"/>
		<path class="st4" d="M1624.72,85.43h5.69v48.32h13.44l-0.63,5.12h-18.5V85.43z"/>
		<path class="st4" d="M1653.45,138.88v-19.95c0-0.59-0.08-0.95-0.23-1.44l-9.83-32.05h6.25c2.66,9.67,5.86,21.19,6.74,26.1h0.08
			c1.03-5.16,4.28-16.86,6.74-26.1h6.03l-9.93,32.42c-0.08,0.36-0.16,0.79-0.16,1.59v19.43H1653.45z"/>
		<path class="st4" d="M1675.73,123.83v3.1c0,5.03,1.74,7.72,5.48,7.72c3.83,0,5.34-2.77,5.34-8.63c0-6.25-1.38-8.68-7-13.07
			c-5.72-4.47-8.62-7.17-8.62-15.05c0-6.77,2.03-13.27,10.41-13.22c7.96,0.04,10.06,5.34,10.06,12.12v2.48h-5.65v-2.33
			c0-4.44-0.87-7.3-4.52-7.3c-3.67,0-4.61,3.21-4.61,7.4c0,4.97,0.99,6.85,5.89,10.56c7.42,5.61,9.77,8.73,9.77,17.61
			c0,7.51-2.15,14.36-11.16,14.36c-8.62,0-11.07-5.65-11.07-12.69v-3.07H1675.73z"/>
		<path class="st4" d="M1703.68,85.43v53.44h-5.69V85.43H1703.68z"/>
		<path class="st4" d="M1714.45,123.83v3.1c0,5.03,1.74,7.72,5.48,7.72c3.83,0,5.34-2.77,5.34-8.63c0-6.25-1.38-8.68-7-13.07
			c-5.72-4.47-8.62-7.17-8.62-15.05c0-6.77,2.03-13.27,10.41-13.22c7.96,0.04,10.06,5.34,10.06,12.12v2.48h-5.65v-2.33
			c0-4.44-0.87-7.3-4.52-7.3c-3.67,0-4.61,3.21-4.61,7.4c0,4.97,0.99,6.85,5.89,10.56c7.42,5.61,9.77,8.73,9.77,17.61
			c0,7.51-2.15,14.36-11.16,14.36c-8.62,0-11.07-5.65-11.07-12.69v-3.07H1714.45z"/>
		<path class="st4" d="M1786.28,98.56v26.93c0,9.39-3.87,14.09-11.83,14.09c-8.28,0-11.3-5.27-11.3-14.02v-27
			c0-9.08,4.13-13.85,11.69-13.85C1782.73,84.72,1786.28,90.12,1786.28,98.56z M1768.95,98.3v27.73c0,6.01,2.18,8.4,5.77,8.4
			c3.78,0,5.76-2.32,5.76-8.66V98.31c0-5.67-1.95-8.39-5.8-8.39S1768.95,92.48,1768.95,98.3z"/>
		<path class="st4" d="M1792.99,85.43h18.6v5.27h-12.92v17.4h12.18v5.26h-12.18v25.51h-5.69V85.43z"/>
		<path class="st4" d="M1266.03,171.7h-8.65v-5.27h22.93v5.27h-8.6v48.18h-5.69V171.7z"/>
		<path class="st4" d="M1284.04,166.43h5.69v22.15h11.12v-22.15h5.69v53.44h-5.69v-26.06h-11.12v26.06h-5.69V166.43z"/>
		<path class="st4" d="M1332.08,194h-11.99v20.65h13.61l-0.77,5.23h-18.52v-53.44h18.36v5.27h-12.67v17.07h11.99V194z"/>
		<path class="st4" d="M1352.2,166.43h9.77c7.94,0,11.72,4.02,11.72,12.66v3.25c0,8.04-2.4,13.96-12.12,13.96h-3.69v23.57h-5.69
			V166.43z M1357.89,191.51h3.18c6.06,0,6.94-3.72,6.94-9.27v-2.87c0-4.33-0.95-8.11-6.44-8.11h-3.67V191.51z"/>
		<path class="st4" d="M1384.59,202.82l-2.55,17.06h-5.76l8.78-53.44h8.1l9.14,53.44h-5.96l-2.75-17.06H1384.59z M1392.85,197.59
			c-1.87-11.77-3.21-20.86-3.72-25.91h-0.23c-0.2,4.13-2.11,16.15-3.55,25.91H1392.85z"/>
		<path class="st4" d="M1409.94,204.83v3.1c0,5.03,1.74,7.72,5.48,7.72c3.83,0,5.34-2.77,5.34-8.63c0-6.25-1.38-8.68-7-13.07
			c-5.72-4.47-8.62-7.17-8.62-15.05c0-6.77,2.03-13.27,10.41-13.22c7.96,0.04,10.06,5.34,10.06,12.12v2.48h-5.65v-2.33
			c0-4.44-0.87-7.3-4.52-7.3c-3.67,0-4.61,3.21-4.61,7.4c0,4.97,0.99,6.85,5.89,10.56c7.42,5.61,9.77,8.73,9.77,17.61
			c0,7.51-2.15,14.36-11.16,14.36c-8.62,0-11.07-5.65-11.07-12.69v-3.07H1409.94z"/>
		<path class="st4" d="M1436.66,171.7h-8.65v-5.27h22.93v5.27h-8.6v48.18h-5.69V171.7z"/>
		<path class="st4" d="M1468.52,166.43h5.69v48.32h13.44l-0.63,5.12h-18.5V166.43z"/>
		<path class="st4" d="M1509.12,194h-11.99v20.65h13.61l-0.77,5.23h-18.52v-53.44h18.36v5.27h-12.67v17.07h11.99V194z"/>
		<path class="st4" d="M1520.58,202.82l-2.55,17.06h-5.76l8.78-53.44h8.1l9.14,53.44h-5.96l-2.75-17.06H1520.58z M1528.85,197.59
			c-1.87-11.77-3.21-20.86-3.72-25.91h-0.23c-0.2,4.13-2.11,16.15-3.55,25.91H1528.85z"/>
		<path class="st4" d="M1564.42,219.88h-4.52c-0.15-0.87-0.31-3.42-0.35-4.62c-1.35,3.96-4.38,5.34-7.86,5.34
			c-7.39,0-9.82-5.45-9.82-14v-26.74c0-8.76,3.54-14.13,11.43-14.13c9.32,0,11.01,6.58,11.01,13.37v1.36h-5.69v-1.49
			c0-3.74-0.44-8.05-5.37-8.05c-3.72,0-5.58,2.35-5.58,8.42v27.54c0,5.27,1.37,8.63,5.27,8.63c4.9,0,5.74-4.52,5.74-11.35v-8.52
			h-5.94v-4.97h11.67V219.88z"/>
		<path class="st4" d="M1577.05,166.43v41.54c0,4.42,1.55,7.42,5.56,7.42c4.09,0,5.48-2.84,5.48-7.38v-41.58h5.73v41.38
			c0,8.26-3.71,12.78-11.33,12.78c-7.4,0-11.13-4.15-11.13-12.65v-41.51H1577.05z"/>
		<path class="st4" d="M1619.11,194h-11.99v20.65h13.61l-0.77,5.23h-18.52v-53.44h18.36v5.27h-12.67v17.07h11.99V194z"/>
		<path class="st4" d="M1644.93,194.92v24.95h-5.69v-53.44h9.34c8.03,0,11.98,3.46,11.98,12.3v2.44c0,7.26-2.55,10.23-5.44,11.25
			c3.39,1.26,4.97,3.81,4.97,10.96c0,4.57-0.08,13.11,0.52,16.49h-5.54c-0.68-3.33-0.56-12.31-0.56-16.06
			c0-6.92-0.97-8.89-6.27-8.89H1644.93z M1644.93,190.09h3.49c5.08,0,6.41-2.94,6.41-8.65v-2.38c0-4.88-1.33-7.8-6.68-7.8h-3.21
			V190.09z"/>
		<path class="st4" d="M1684.56,194h-11.99v20.65h13.61l-0.77,5.23h-18.52v-53.44h18.36v5.27h-12.67v17.07h11.99V194z"/>
		<path class="st4" d="M1693.7,204.83v3.1c0,5.03,1.74,7.72,5.48,7.72c3.83,0,5.34-2.77,5.34-8.63c0-6.25-1.38-8.68-7-13.07
			c-5.72-4.47-8.62-7.17-8.62-15.05c0-6.77,2.03-13.27,10.41-13.22c7.96,0.04,10.06,5.34,10.06,12.12v2.48h-5.65v-2.33
			c0-4.44-0.87-7.3-4.52-7.3c-3.67,0-4.61,3.21-4.61,7.4c0,4.97,0.99,6.85,5.89,10.56c7.42,5.61,9.77,8.73,9.77,17.61
			c0,7.51-2.15,14.36-11.16,14.36c-8.62,0-11.07-5.65-11.07-12.69v-3.07H1693.7z"/>
		<path class="st4" d="M1721.37,166.43v41.54c0,4.42,1.55,7.42,5.56,7.42c4.09,0,5.48-2.84,5.48-7.38v-41.58h5.73v41.38
			c0,8.26-3.71,12.78-11.33,12.78c-7.4,0-11.13-4.15-11.13-12.65v-41.51H1721.37z"/>
		<path class="st4" d="M1745.8,166.43h5.69v48.32h13.44l-0.63,5.12h-18.5V166.43z"/>
		<path class="st4" d="M1773.22,171.7h-8.65v-5.27h22.93v5.27h-8.6v48.18h-5.69V171.7z"/>
		<path class="st4" d="M1794.09,204.83v3.1c0,5.03,1.74,7.72,5.48,7.72c3.83,0,5.34-2.77,5.34-8.63c0-6.25-1.38-8.68-7-13.07
			c-5.72-4.47-8.62-7.17-8.62-15.05c0-6.77,2.03-13.27,10.41-13.22c7.96,0.04,10.06,5.34,10.06,12.12v2.48h-5.65v-2.33
			c0-4.44-0.87-7.3-4.52-7.3c-3.67,0-4.61,3.21-4.61,7.4c0,4.97,0.99,6.85,5.89,10.56c7.42,5.61,9.77,8.73,9.77,17.61
			c0,7.51-2.15,14.36-11.16,14.36c-8.62,0-11.07-5.65-11.07-12.69v-3.07H1794.09z"/>
		<path class="st4" d="M1290.45,268.49l-8.03,21.02c-3.13,8.05-6.57,11.92-12.36,11.92c-7.52,0-10.26-6.01-10.26-14.09
			c0-8.64,3.05-11.75,9.55-17.25c4.87-4.14,6.13-6.49,6.13-12.09c0-3.83-0.6-6.45-3.63-6.45c-2.73,0-3.72,2.81-3.72,6.55
			c0,5.01,0.32,6.94,3,11.53l18.58,31.25h-6.38l-16.29-27.29c-3.31-5.5-4.27-8.62-4.27-15.05c0-7.11,2.98-11.74,9.09-11.74
			c6.2,0,8.87,4.04,8.87,11.01c0,7.56-2.15,10.66-8.82,16.15c-5.25,4.41-6.49,6.73-6.49,12.98c0,5.88,1.77,8.88,5.31,8.88
			c3.28,0,4.82-2.19,6.86-7.63l7.39-19.7H1290.45z"/>
		<path class="st4" d="M1312.14,285.83v3.1c0,5.03,1.74,7.72,5.48,7.72c3.83,0,5.34-2.77,5.34-8.63c0-6.25-1.38-8.68-7-13.07
			c-5.72-4.47-8.62-7.17-8.62-15.05c0-6.77,2.03-13.27,10.41-13.22c7.96,0.04,10.06,5.34,10.06,12.12v2.48h-5.65v-2.33
			c0-4.44-0.87-7.3-4.52-7.3c-3.67,0-4.61,3.21-4.61,7.4c0,4.97,0.99,6.85,5.89,10.56c7.42,5.61,9.77,8.73,9.77,17.61
			c0,7.51-2.15,14.36-11.16,14.36c-8.62,0-11.07-5.65-11.07-12.69v-3.07H1312.14z"/>
		<path class="st4" d="M1352.04,275h-11.99v20.65h13.61l-0.77,5.23h-18.52v-53.44h18.36v5.27h-12.67v17.07h11.99V275z"/>
		<path class="st4" d="M1363.51,283.82l-2.55,17.06h-5.76l8.78-53.44h8.1l9.14,53.44h-5.96l-2.75-17.06H1363.51z M1371.78,278.59
			c-1.87-11.77-3.21-20.86-3.72-25.91h-0.23c-0.2,4.13-2.11,16.15-3.55,25.91H1371.78z"/>
		<path class="st4" d="M1388.86,285.83v3.1c0,5.03,1.74,7.72,5.48,7.72c3.83,0,5.34-2.77,5.34-8.63c0-6.25-1.38-8.68-7-13.07
			c-5.72-4.47-8.62-7.17-8.62-15.05c0-6.77,2.03-13.27,10.41-13.22c7.96,0.04,10.06,5.34,10.06,12.12v2.48h-5.65v-2.33
			c0-4.44-0.87-7.3-4.52-7.3c-3.67,0-4.61,3.21-4.61,7.4c0,4.97,0.99,6.85,5.89,10.56c7.42,5.61,9.77,8.73,9.77,17.61
			c0,7.51-2.15,14.36-11.16,14.36c-8.62,0-11.07-5.65-11.07-12.69v-3.07H1388.86z"/>
		<path class="st4" d="M1433.05,260.56v26.93c0,9.39-3.87,14.09-11.83,14.09c-8.28,0-11.3-5.27-11.3-14.02v-27
			c0-9.08,4.13-13.85,11.69-13.85C1429.5,246.72,1433.05,252.12,1433.05,260.56z M1415.72,260.3v27.73c0,6.01,2.18,8.4,5.77,8.4
			c3.78,0,5.76-2.32,5.76-8.66v-27.47c0-5.67-1.95-8.39-5.8-8.39S1415.72,254.48,1415.72,260.3z"/>
		<path class="st4" d="M1439.76,300.88v-53.44h6.79c2.88,9.89,10.31,37.91,11.19,42.27h0.12c-0.31-7.19-0.4-14.71-0.4-23.42v-18.85
			h5.36v53.44h-6.56c-2.84-10.03-10.5-39.44-11.51-43.7h-0.08c0.36,6.44,0.49,14.97,0.49,24.62v19.08H1439.76z"/>
		<path class="st4" d="M1484.52,247.43h9.77c7.94,0,11.72,4.02,11.72,12.66v3.25c0,8.04-2.4,13.96-12.12,13.96h-3.69v23.57h-5.69
			V247.43z M1490.21,272.51h3.18c6.06,0,6.94-3.72,6.94-9.27v-2.87c0-4.33-0.95-8.11-6.44-8.11h-3.67V272.51z"/>
		<path class="st4" d="M1529.36,275h-11.99v20.65h13.61l-0.77,5.23h-18.52v-53.44h18.36v5.27h-12.67v17.07h11.99V275z"/>
		<path class="st4" d="M1541.33,275.92v24.95h-5.69v-53.44h9.34c8.03,0,11.98,3.46,11.98,12.3v2.44c0,7.26-2.55,10.23-5.44,11.25
			c3.39,1.26,4.97,3.81,4.97,10.96c0,4.57-0.08,13.11,0.52,16.49h-5.54c-0.68-3.33-0.56-12.31-0.56-16.06
			c0-6.92-0.97-8.89-6.27-8.89H1541.33z M1541.33,271.09h3.49c5.08,0,6.41-2.94,6.41-8.65v-2.38c0-4.88-1.33-7.8-6.68-7.8h-3.21
			V271.09z"/>
		<path class="st4" d="M1563.32,247.43h18.6v5.27h-12.92v17.4h12.18v5.26h-12.18v25.51h-5.69V247.43z"/>
		<path class="st4" d="M1608.61,260.56v26.93c0,9.39-3.87,14.09-11.83,14.09c-8.28,0-11.3-5.27-11.3-14.02v-27
			c0-9.08,4.13-13.85,11.69-13.85C1605.06,246.72,1608.61,252.12,1608.61,260.56z M1591.27,260.3v27.73c0,6.01,2.18,8.4,5.77,8.4
			c3.78,0,5.76-2.32,5.76-8.66v-27.47c0-5.67-1.95-8.39-5.8-8.39S1591.27,254.48,1591.27,260.3z"/>
		<path class="st4" d="M1621,275.92v24.95h-5.69v-53.44h9.34c8.03,0,11.98,3.46,11.98,12.3v2.44c0,7.26-2.55,10.23-5.44,11.25
			c3.39,1.26,4.97,3.81,4.97,10.96c0,4.57-0.08,13.11,0.52,16.49h-5.54c-0.68-3.33-0.56-12.31-0.56-16.06
			c0-6.92-0.97-8.89-6.27-8.89H1621z M1621,271.09h3.49c5.08,0,6.41-2.94,6.41-8.65v-2.38c0-4.88-1.33-7.8-6.68-7.8H1621V271.09z"/>
		<path class="st4" d="M1669.25,278.58c0-9.8,0.17-20.36,0.33-26.07h-0.08c-1.33,8.97-5.41,32.49-8.27,48.37h-5.56
			c-2.17-13.75-6.38-38.87-7.67-48.41h-0.16c0.16,6.2,0.44,18.32,0.44,27.48v20.93H1643v-53.44h8.43
			c2.93,15.8,6.44,35.38,7.16,42.19h0.08c0.84-6.66,4.92-27.33,7.85-42.19h8.25v53.44h-5.51V278.58z"/>
		<path class="st4" d="M1687.86,283.82l-2.55,17.06h-5.76l8.78-53.44h8.1l9.14,53.44h-5.96l-2.75-17.06H1687.86z M1696.13,278.59
			c-1.87-11.77-3.21-20.86-3.72-25.91h-0.23c-0.2,4.13-2.11,16.15-3.55,25.91H1696.13z"/>
		<path class="st4" d="M1710.35,300.88v-53.44h6.79c2.88,9.89,10.31,37.91,11.19,42.27h0.12c-0.31-7.19-0.4-14.71-0.4-23.42v-18.85
			h5.36v53.44h-6.56c-2.84-10.03-10.5-39.44-11.51-43.7h-0.08c0.36,6.44,0.49,14.97,0.49,24.62v19.08H1710.35z"/>
		<path class="st4" d="M1761.83,285.54v1.81c0,6.79-1.22,14.23-10.89,14.23c-9.25,0-10.84-6.56-10.84-14.41v-27.19
			c0-8.55,3.67-13.27,10.91-13.27c8.97,0,10.57,6.37,10.57,13.37v2.09h-5.77v-2.51c0-4.23-0.66-7.75-4.89-7.75
			c-4.01,0-5.02,3.17-5.02,7.88v27.75c0,5.36,1.17,8.89,5.19,8.89c4.17,0,4.92-3.61,4.92-8.65v-2.24H1761.83z"/>
		<path class="st4" d="M1784.95,275h-11.99v20.65h13.61l-0.77,5.23h-18.52v-53.44h18.36v5.27h-12.67v17.07h11.99V275z"/>
		<path class="st4" d="M1794.09,285.83v3.1c0,5.03,1.74,7.72,5.48,7.72c3.83,0,5.34-2.77,5.34-8.63c0-6.25-1.38-8.68-7-13.07
			c-5.72-4.47-8.62-7.17-8.62-15.05c0-6.77,2.03-13.27,10.41-13.22c7.96,0.04,10.06,5.34,10.06,12.12v2.48h-5.65v-2.33
			c0-4.44-0.87-7.3-4.52-7.3c-3.67,0-4.61,3.21-4.61,7.4c0,4.97,0.99,6.85,5.89,10.56c7.42,5.61,9.77,8.73,9.77,17.61
			c0,7.51-2.15,14.36-11.16,14.36c-8.62,0-11.07-5.65-11.07-12.69v-3.07H1794.09z"/>
		<path class="st4" d="M1261.56,328.43h9.3c8.3,0,11.41,4.36,11.41,11.62v2.41c0,7.51-2.28,9.8-4.96,10.81
			c2.89,0.92,6.05,3.46,6.05,10.72v3.95c0,9.31-3.22,13.93-12.32,13.93h-9.48V328.43z M1270.61,351.05c4.78,0,6.23-1.93,6.23-8.15
			v-2.39c0-4.84-1.78-7.24-6.37-7.24h-3.37v17.78H1270.61z M1267.1,377.08h3.43c5.75,0,7.17-2.75,7.17-9.25v-3.69
			c0-5.83-2.04-8.33-7.19-8.33h-3.42V377.08z"/>
		<path class="st4" d="M1295.26,381.88v-19.95c0-0.59-0.08-0.95-0.23-1.44l-9.83-32.05h6.25c2.66,9.67,5.86,21.19,6.74,26.1h0.08
			c1.03-5.16,4.28-16.86,6.74-26.1h6.03l-9.93,32.42c-0.08,0.36-0.16,0.79-0.16,1.59v19.43H1295.26z"/>
		<path class="st4" d="M1342.91,333.7h-8.65v-5.27h22.93v5.27h-8.6v48.18h-5.69V333.7z"/>
		<path class="st4" d="M1360.92,328.43h5.69v22.15h11.12v-22.15h5.69v53.44h-5.69v-26.06h-11.12v26.06h-5.69V328.43z"/>
		<path class="st4" d="M1408.96,356h-11.99v20.65h13.61l-0.77,5.23h-18.52v-53.44h18.36v5.27h-12.67v17.07h11.99V356z"/>
		<path class="st4" d="M1441.86,366.83v3.1c0,5.03,1.74,7.72,5.48,7.72c3.83,0,5.34-2.77,5.34-8.63c0-6.25-1.38-8.68-7-13.07
			c-5.72-4.47-8.62-7.17-8.62-15.05c0-6.77,2.03-13.27,10.41-13.22c7.96,0.04,10.06,5.34,10.06,12.12v2.48h-5.65v-2.33
			c0-4.44-0.87-7.3-4.52-7.3c-3.67,0-4.61,3.21-4.61,7.4c0,4.97,0.99,6.85,5.89,10.56c7.42,5.61,9.77,8.73,9.77,17.61
			c0,7.51-2.15,14.36-11.16,14.36c-8.62,0-11.07-5.65-11.07-12.69v-3.07H1441.86z"/>
		<path class="st4" d="M1464.12,328.43h9.77c7.94,0,11.72,4.02,11.72,12.66v3.25c0,8.04-2.4,13.96-12.12,13.96h-3.69v23.57h-5.69
			V328.43z M1469.81,353.51h3.18c6.06,0,6.94-3.72,6.94-9.27v-2.87c0-4.33-0.95-8.11-6.44-8.11h-3.67V353.51z"/>
		<path class="st4" d="M1496.51,364.82l-2.55,17.06h-5.76l8.78-53.44h8.1l9.14,53.44h-5.96l-2.75-17.06H1496.51z M1504.77,359.59
			c-1.87-11.77-3.21-20.86-3.72-25.91h-0.23c-0.2,4.13-2.11,16.15-3.55,25.91H1504.77z"/>
		<path class="st4" d="M1519,381.88v-53.44h6.79c2.88,9.89,10.31,37.91,11.19,42.27h0.12c-0.31-7.19-0.4-14.71-0.4-23.42v-18.85
			h5.36v53.44h-6.56c-2.84-10.03-10.5-39.44-11.51-43.7h-0.08c0.36,6.44,0.49,14.97,0.49,24.62v19.08H1519z"/>
		<path class="st4" d="M1552.82,366.83v3.1c0,5.03,1.74,7.72,5.48,7.72c3.83,0,5.34-2.77,5.34-8.63c0-6.25-1.38-8.68-7-13.07
			c-5.72-4.47-8.62-7.17-8.62-15.05c0-6.77,2.03-13.27,10.41-13.22c7.96,0.04,10.06,5.34,10.06,12.12v2.48h-5.65v-2.33
			c0-4.44-0.87-7.3-4.52-7.3c-3.67,0-4.61,3.21-4.61,7.4c0,4.97,0.99,6.85,5.89,10.56c7.42,5.61,9.77,8.73,9.77,17.61
			c0,7.51-2.15,14.36-11.16,14.36c-8.62,0-11.07-5.65-11.07-12.69v-3.07H1552.82z"/>
		<path class="st4" d="M1580.76,328.43v53.44h-5.69v-53.44H1580.76z"/>
		<path class="st4" d="M1591.54,366.83v3.1c0,5.03,1.74,7.72,5.48,7.72c3.83,0,5.34-2.77,5.34-8.63c0-6.25-1.38-8.68-7-13.07
			c-5.72-4.47-8.62-7.17-8.62-15.05c0-6.77,2.03-13.27,10.41-13.22c7.96,0.04,10.06,5.34,10.06,12.12v2.48h-5.65v-2.33
			c0-4.44-0.87-7.3-4.52-7.3c-3.67,0-4.61,3.21-4.61,7.4c0,4.97,0.99,6.85,5.89,10.56c7.42,5.61,9.77,8.73,9.77,17.61
			c0,7.51-2.15,14.36-11.16,14.36c-8.62,0-11.07-5.65-11.07-12.69v-3.07H1591.54z"/>
		<path class="st4" d="M1613.8,328.43h5.69v22.15h11.12v-22.15h5.69v53.44h-5.69v-26.06h-11.12v26.06h-5.69V328.43z"/>
		<path class="st4" d="M1689.3,381.88h-4.52c-0.15-0.87-0.31-3.42-0.35-4.62c-1.35,3.96-4.38,5.34-7.86,5.34
			c-7.39,0-9.82-5.45-9.82-14v-26.74c0-8.76,3.54-14.13,11.43-14.13c9.32,0,11.01,6.58,11.01,13.37v1.36h-5.69v-1.49
			c0-3.74-0.44-8.05-5.37-8.05c-3.72,0-5.58,2.35-5.58,8.42v27.54c0,5.27,1.37,8.63,5.27,8.63c4.9,0,5.74-4.52,5.74-11.35v-8.52
			h-5.94v-4.97h11.67V381.88z"/>
		<path class="st4" d="M1702.2,328.43v53.44h-5.69v-53.44H1702.2z"/>
		<path class="st4" d="M1715.3,364.82l-2.55,17.06h-5.76l8.78-53.44h8.1l9.14,53.44h-5.96l-2.75-17.06H1715.3z M1723.57,359.59
			c-1.87-11.77-3.21-20.86-3.72-25.91h-0.23c-0.2,4.13-2.11,16.15-3.55,25.91H1723.57z"/>
		<path class="st4" d="M1737.8,381.88v-53.44h6.79c2.88,9.89,10.31,37.91,11.19,42.27h0.12c-0.31-7.19-0.4-14.71-0.4-23.42v-18.85
			h5.36v53.44h-6.56c-2.84-10.03-10.5-39.44-11.51-43.7h-0.08c0.36,6.44,0.49,14.97,0.49,24.62v19.08H1737.8z"/>
		<path class="st4" d="M1773.22,333.7h-8.65v-5.27h22.93v5.27h-8.6v48.18h-5.69V333.7z"/>
		<path class="st4" d="M1794.09,366.83v3.1c0,5.03,1.74,7.72,5.48,7.72c3.83,0,5.34-2.77,5.34-8.63c0-6.25-1.38-8.68-7-13.07
			c-5.72-4.47-8.62-7.17-8.62-15.05c0-6.77,2.03-13.27,10.41-13.22c7.96,0.04,10.06,5.34,10.06,12.12v2.48h-5.65v-2.33
			c0-4.44-0.87-7.3-4.52-7.3c-3.67,0-4.61,3.21-4.61,7.4c0,4.97,0.99,6.85,5.89,10.56c7.42,5.61,9.77,8.73,9.77,17.61
			c0,7.51-2.15,14.36-11.16,14.36c-8.62,0-11.07-5.65-11.07-12.69v-3.07H1794.09z"/>
	</g>
</g>
<g>
	<rect x="398" y="149" class="st2" width="731" height="291"/>
</g>
<g>
	<polygon class="st5" points="334.89,440 44,440 44,149.11 334.89,149.11 334.89,440 	"/>
	<polygon class="st6" points="44,149 189.45,149 189.45,439.89 44,439.89 44,149 	"/>
	<path class="st7" d="M226.47,164.24c-12.2,8.47-23.97,12.42-37.02,12.42c-13.06,0-24.82-3.95-37.02-12.42l-3.18-2.21l-3.22,2.14
		c-13.79,9.13-25,10.8-42.1,10.8c-5.9,0-12.23-1.11-18.33-3.22l-4.06-1.4l-2.47,3.51c-1.31,1.87-2.29,3.06-3.23,4.2
		c-1.16,1.41-2.26,2.75-3.55,4.82l-2.07,3.32l2.35,3.13c10.45,13.89,14.39,28.18,14.39,41.63c0,25.08-13.71,47.24-24.51,58.45
		l-3.89,4.04l3.97,3.96c2.13,2.13,5.92,6.06,9.06,9.36c-0.01,0.13-0.13,1.73-0.13,1.73l-0.03,0.31c-0.13,2.44-0.19,4.84-0.19,7.2
		c0,25.47,7.53,46.65,22.43,63.03c17.25,18.96,44.22,30.28,76.1,32.05c7.92,7.21,15.96,13.19,16.32,13.46l3.41,2.53l3.4-2.54
		c0.36-0.27,8.36-6.25,16.27-13.45c31.88-1.76,58.85-13.08,76.1-32.05c14.9-16.38,22.43-37.55,22.43-63.02c0-2.36-0.07-4.76-0.2-7.2
		l0-0.06l-0.03-0.31c0,0-0.11-1.55-0.12-1.67c2.9-3.05,6.82-7.12,9.06-9.36l3.97-3.96l-3.89-4.04
		c-10.8-11.21-24.51-33.37-24.51-58.45c0-13.45,3.94-27.74,14.39-41.62l2.35-3.12l-2.06-3.32c-1.29-2.08-2.39-3.41-3.55-4.83
		c-0.94-1.15-1.92-2.33-3.23-4.2l-2.47-3.52l-4.06,1.4c-6.1,2.11-12.43,3.22-18.33,3.22c-17.1,0-28.31-1.67-42.1-10.8l-3.23-2.14
		L226.47,164.24L226.47,164.24z"/>
	<path class="st8" d="M189.47,419.96c0,0-9.11-6.76-17.34-14.45c-53.85-2.23-98.41-32.43-95.01-96.39c0.2-1.69,0.03-1.57,0.32-4.45
		c-3.09-3.27-8.2-8.6-10.89-11.29c19.32-20.04,41.86-65.89,10.57-107.47c2.06-3.31,3.55-4.4,6.61-8.76
		c6.25,2.16,13.21,3.53,20.19,3.53c17.94,0,30.19-1.78,45.25-11.75c11.91,8.26,24.82,13.44,40.28,13.44
		c15.46,0,28.37-5.17,40.28-13.44c15.06,9.97,27.31,11.75,45.25,11.75c6.98,0,13.94-1.37,20.19-3.53c3.06,4.36,4.55,5.45,6.61,8.76
		c-31.29,41.58-8.74,87.43,10.57,107.47c-2.7,2.69-7.81,8.02-10.9,11.29c0.29,2.88,0.12,2.76,0.32,4.45
		c3.4,63.96-41.16,94.16-95.01,96.39C198.54,413.21,189.47,419.96,189.47,419.96L189.47,419.96L189.47,419.96z"/>
	<path class="st7" d="M87.33,305.31h-0.76l-0.33,2.75l-0.23,1.77c-1.26,24.64,4.89,44.54,18.26,59.21
		c15.33,16.82,40.18,26.4,71.84,27.72c0.03,0,0.53,0,0.53,0c9.5,0.05,18.48,0.1,26.11,0c31.69-1.31,56.53-10.9,71.87-27.72
		c13.37-14.66,19.51-34.57,18.26-59.16c0-0.05-0.24-1.83-0.24-1.83l-0.32-2.71l-0.76-0.03H87.33L87.33,305.31z"/>
	<path class="st7" d="M229.35,286.41c1.6-1.14,2.54-2.92,2.54-5c0-4.46-3.17-7.12-8.49-7.12h-11.87h-0.28v26.44h12.04
		c5.94,0,9.49-3.23,9.49-8.63C232.78,289.56,231.52,287.54,229.35,286.41L229.35,286.41L229.35,286.41z M216.87,279.61
		c0.51,0,6.31,0,6.31,0c2.57,0,2.9,1.18,2.9,2.2c0,1.46-0.87,2.17-2.65,2.17c0,0-6.06,0-6.57,0
		C216.87,283.52,216.87,280.07,216.87,279.61L216.87,279.61L216.87,279.61L216.87,279.61z M175.86,287.51
		c0,8.28,4.55,13.63,11.59,13.63c4.59,0,7.9-2.02,9.83-6l0.11-0.23l-4.82-2.86l-0.14,0.24c-1.37,2.3-2.68,3.16-4.83,3.16
		c-3.51,0-5.86-3.19-5.86-7.94c0-4.89,2.23-7.93,5.83-7.93c2.09,0,3.56,0.87,4.49,2.66l0.12,0.23l5.3-2.45l-0.12-0.25
		c-1.86-3.85-5.22-5.89-9.72-5.89C180.7,273.88,175.86,279.48,175.86,287.51L175.86,287.51L175.86,287.51L175.86,287.51z
		 M164.92,274.29h-18.81v26.44h5.73c0,0,0-10.39,0-10.91c0.51,0,7.8,0,7.8,0v-5.58c0,0-7.29,0-7.8,0c0-0.46,0-3.87,0-4.33
		c0.53,0,13.35,0,13.35,0v-5.62H164.92L164.92,274.29L164.92,274.29z M223.48,295.26c0,0-6.09,0-6.6,0c0-0.49,0-5.66,0-6.14
		c0.51,0,6.6,0,6.6,0c2.33,0,3.42,0.97,3.42,3.05C226.9,294.19,225.72,295.26,223.48,295.26L223.48,295.26L223.48,295.26
		L223.48,295.26z"/>
	<path class="st7" d="M229.43,179.75c-12.81,7.75-25.89,11.52-39.99,11.53c-14.09-0.01-27.17-3.78-39.98-11.53l-0.43-0.26
		l-0.44,0.25c-14.59,8.25-27.44,9.86-44.68,9.86c-4.15,0-8.42-0.42-12.71-1.24l-1.85-0.35l0.95,1.62
		c17.72,30.32,11.43,59.64,3.03,78.9l-0.52,1.2h193.26l-0.52-1.2c-8.4-19.26-14.69-48.57,3.03-78.9l0.95-1.62l-1.85,0.35
		c-4.29,0.82-8.57,1.24-12.71,1.24c-17.25,0-30.09-1.61-44.68-9.86l-0.43-0.25L229.43,179.75L229.43,179.75z"/>
	<path class="st9" d="M188.59,192.98c-10.23-0.12-19.95-2.19-29.41-6.29c-3.42-1.48-6.81-3.22-10.18-5.23
		c-6.44,3.59-12.55,5.92-18.83,7.42c0,1.52-24.02,2.44-26.25,2.44c-3.7,0-7.5-0.38-11.31-1.02c4.53,8.1,7.41,16.11,9.04,23.87
		c1.19,5.68,1.73,11.23,1.73,16.58c0,4.28-0.34,8.44-0.92,12.43c0,5.45-4.78,19.46-7.06,24.84c31.06,0,62.13,0,93.19,0V192.98
		L188.59,192.98z"/>
	<path class="st10" d="M190.3,192.98c10.23-0.12,19.95-2.19,29.41-6.29c3.42-1.48,6.81-3.22,10.18-5.23
		c6.44,3.59,12.55,5.92,18.83,7.42c0,1.52,24.03,2.44,26.26,2.44c3.7,0,7.5-0.38,11.31-1.02c-4.53,8.1-7.41,16.11-9.04,23.87
		c-1.19,5.68-1.73,11.23-1.73,16.58c0,4.28,0.34,8.44,0.92,12.43c0,5.45,4.78,19.46,7.06,24.84c-31.06,0-62.13,0-93.19,0V192.98
		L190.3,192.98z"/>
	<path class="st11" d="M159.18,214.16c0-0.39,0-15.89,0-27.47c-3.42-1.48-6.81-3.22-10.18-5.23c-6.44,3.59-12.55,5.92-18.83,7.42
		c0,11.25,0,24.93,0,25.29c-0.44,0-18.03,0-28.53,0c1.19,5.68,1.73,11.23,1.73,16.58c0,4.28-0.34,8.44-0.92,12.43
		c10.57,0,27.29,0,27.72,0c0,0.38,0,14.21,0,24.84c8.72,0,18.59,0,29.01,0c0-10.63,0-24.46,0-24.84c0.29,0,14.35,0,29.41,0v-29.01
		C173.53,214.16,159.47,214.16,159.18,214.16L159.18,214.16z"/>
	<path class="st11" d="M240.05,186.2v81.82c3.55,0,6.96,0,10.2,0V189.2C246.81,188.47,243.43,187.49,240.05,186.2L240.05,186.2
		L240.05,186.2z M219.65,186.72v81.3c3.47,0,6.87,0,10.2,0v-86.54C226.47,183.5,223.08,185.24,219.65,186.72L219.65,186.72
		L219.65,186.72L219.65,186.72z M199.25,192.35v75.67c3.42,0,6.83,0,10.2,0v-77.71C206.1,191.23,202.7,191.91,199.25,192.35
		L199.25,192.35L199.25,192.35L199.25,192.35z M260.44,190.74v77.28c3.79,0,7.22,0,10.2,0v-76.75
		C267.09,191.2,263.71,191.04,260.44,190.74L260.44,190.74L260.44,190.74L260.44,190.74z"/>
	<path class="st6" d="M88.09,307.02c-0.07,0.61-0.15,1.31-0.15,1.31c0,0-0.21,1.64-0.22,1.64c-0.1,2.05-0.16,4.07-0.16,6.06
		c0,21.34,6.03,38.77,17.97,51.86c2.85,3.13,6.05,6,9.56,8.61c8.23,6.12,18.22,10.79,29.74,13.93c9.02,2.46,18.97,3.99,29.74,4.53
		c0.52,0.03,1.05,0.06,1.58,0.08l0.5,0c9.49,0.05,18.46,0.1,26.05,0c0.54-0.02,1.07-0.05,1.61-0.08
		c10.77-0.55,20.72-2.07,29.74-4.53c11.52-3.15,21.51-7.82,29.74-13.93c3.52-2.61,6.71-5.48,9.56-8.61
		c11.94-13.1,17.97-30.53,17.97-51.84c0-1.98-0.05-3.99-0.16-6.04l0,0l-0.22-1.7c0,0-0.08-0.69-0.15-1.3
		C223.23,307.02,155.66,307.02,88.09,307.02L88.09,307.02L88.09,307.02z"/>
	<path class="st12" d="M174.58,394.96c0.52,0.03,1.05,0.06,1.58,0.08l0.5,0c9.49,0.05,18.46,0.1,26.05,0
		c0.54-0.02,1.07-0.05,1.61-0.08v-20.83v-67.12c-9.85,0-19.89,0-29.74,0V394.96L174.58,394.96z M144.84,307.02
		c-11.02,0-21.17,0-29.74,0v69.48c8.23,6.12,18.22,10.79,29.74,13.93V307.02L144.84,307.02L144.84,307.02z M234.06,307.02v83.41
		c11.52-3.15,21.51-7.82,29.74-13.93v-69.48C255.23,307.02,245.08,307.02,234.06,307.02L234.06,307.02L234.06,307.02L234.06,307.02z
		"/>
	<path class="st7" d="M189.42,378.32c15.7,0,28.51-12.81,28.51-28.51c0-15.7-12.81-28.51-28.51-28.51s-28.51,12.81-28.51,28.51
		C160.92,365.51,173.72,378.32,189.42,378.32L189.42,378.32z"/>
	<path class="st8" d="M174.9,354.98L174.9,354.98c-1.77,3.17-5.02,5.01-9,5.01c-0.47,0-0.94-0.03-1.4-0.09
		c-1.26-3.12-1.95-6.52-1.95-10.09c0-8.43,3.87-15.95,9.94-20.88c-0.5,1.97-0.98,3.7-1.37,5.47
		C169.73,340.74,169.74,350.29,174.9,354.98L174.9,354.98z M188.62,350.21L188.62,350.21c-0.34,3.16-4.54,6.25-7.45,5.88
		c-6.24-0.8-9.18-6.59-9.28-13.7c-0.08-5.28,1.42-9.89,2.59-14.94c3.67-2.46,7.97-4.04,12.6-4.44c-3.1,3.39-2.46,8.35,0.74,10.91
		c-0.75,0.56-1.43,1.28-2.01,2.2C183.45,339.87,183.12,346.2,188.62,350.21L188.62,350.21L188.62,350.21z M189.38,333.05
		L189.38,333.05c-3.36-2.09-3.94-7.35,0.3-10.14c14.21,0.12,25.79,11.25,26.62,25.28c-2.54-4.86-7.17-9.48-11.61-11.96
		C199.99,333.6,193.83,331.2,189.38,333.05L189.38,333.05L189.38,333.05z M216.24,352.29L216.24,352.29
		c-0.26,2.89-0.99,5.65-2.09,8.21c-1.83-5.7-7.76-6.53-11.42-5.24c-0.04-0.99-0.27-2.03-0.73-3.12c-1.43-3.42-6.37-7.57-12.56-3.3
		c-4.55-3.42-4.27-8.68-2.27-11.85c3.13-4.95,10.23-2.98,16.74,0.65C209.18,340.57,214.7,346.72,216.24,352.29L216.24,352.29
		L216.24,352.29z M202.6,357.04L202.6,357.04c3.3-1.65,9.61-0.87,10.41,5.76c-4.58,8.29-13.42,13.91-23.56,13.91
		c-5.56,0-10.73-1.69-15.01-4.58c5.68-0.26,13.23-1.71,17.92-4.5C196.89,364.93,201.71,361.55,202.6,357.04L202.6,357.04
		L202.6,357.04z M172.35,370.58c5.61,0.05,14.24-1.37,19.18-4.32c6.39-3.81,11.36-7.88,9-13.52c-1.19-2.85-5.15-6.15-10.29-2.51
		c-0.33,4.21-5.53,7.93-9.26,7.45c-1.89-0.25-3.48-0.84-4.8-1.7c-2.1,3.58-5.85,5.62-10.28,5.62c-0.22,0-0.44-0.01-0.65-0.02
		C166.94,365.07,169.38,368.14,172.35,370.58L172.35,370.58L172.35,370.58L172.35,370.58z"/>
</g>
<g>
	<g>
		<path class="st4" d="M432.5,217.19l-2.55,17.06h-5.76l8.78-53.44h8.1l9.14,53.44h-5.96l-2.75-17.06H432.5z M440.77,211.96
			c-1.87-11.77-3.21-20.86-3.72-25.91h-0.23c-0.2,4.13-2.11,16.15-3.55,25.91H440.77z"/>
		<path class="st4" d="M487.31,234.24h-4.52c-0.15-0.87-0.31-3.42-0.35-4.63c-1.35,3.96-4.38,5.34-7.86,5.34
			c-7.39,0-9.82-5.45-9.82-14v-26.74c0-8.76,3.54-14.13,11.43-14.13c9.32,0,11.01,6.58,11.01,13.37v1.36h-5.69v-1.49
			c0-3.74-0.44-8.05-5.37-8.05c-3.72,0-5.58,2.35-5.58,8.42v27.54c0,5.27,1.37,8.63,5.27,8.63c4.9,0,5.74-4.52,5.74-11.35v-8.52
			h-5.94v-4.97h11.67V234.24z"/>
		<path class="st4" d="M499.94,180.8v41.54c0,4.42,1.55,7.42,5.56,7.42c4.09,0,5.48-2.84,5.48-7.38V180.8h5.73v41.38
			c0,8.26-3.71,12.78-11.33,12.78c-7.4,0-11.13-4.15-11.13-12.65V180.8H499.94z"/>
		<path class="st4" d="M530.06,180.8v53.44h-5.69V180.8H530.06z"/>
		<path class="st4" d="M537.97,180.8h9.7c11.54,0,13,7.14,13,15.62v21.11c0,8.2-1.26,16.71-13.36,16.71h-9.34V180.8z M543.66,229.3
			h3.22c6.47,0,7.99-3.66,7.99-10.65v-22.91c0-6.17-1.11-9.96-7.94-9.96h-3.27V229.3z"/>
		<path class="st4" d="M585.05,208.36h-11.99v20.65h13.61l-0.77,5.23h-18.52V180.8h18.36v5.27h-12.67v17.07h11.99V208.36z"/>
		<path class="st4" d="M606.77,186.06h-8.65v-5.27h22.93v5.27h-8.6v48.18h-5.69V186.06z"/>
		<path class="st4" d="M646.71,193.93v26.93c0,9.39-3.87,14.09-11.83,14.09c-8.28,0-11.3-5.27-11.3-14.02v-27
			c0-9.08,4.13-13.85,11.69-13.85C643.16,180.09,646.71,185.48,646.71,193.93z M629.38,193.67v27.73c0,6.01,2.18,8.4,5.77,8.4
			c3.78,0,5.76-2.32,5.76-8.66v-27.47c0-5.67-1.95-8.39-5.8-8.39S629.38,187.85,629.38,193.67z"/>
		<path class="st4" d="M664.39,180.8h9.77c7.94,0,11.72,4.02,11.72,12.65v3.25c0,8.04-2.4,13.96-12.12,13.96h-3.69v23.57h-5.69
			V180.8z M670.08,205.88h3.18c6.06,0,6.94-3.72,6.94-9.27v-2.87c0-4.33-0.95-8.11-6.44-8.11h-3.67V205.88z"/>
		<path class="st4" d="M691.59,180.8h5.69v48.32h13.44l-0.63,5.12h-18.5V180.8z"/>
		<path class="st4" d="M719.74,217.19l-2.55,17.06h-5.76l8.78-53.44h8.1l9.14,53.44h-5.96l-2.75-17.06H719.74z M728.01,211.96
			c-1.87-11.77-3.21-20.86-3.72-25.91h-0.23c-0.2,4.13-2.11,16.15-3.55,25.91H728.01z"/>
		<path class="st4" d="M748.01,234.24v-19.95c0-0.59-0.08-0.95-0.23-1.44l-9.83-32.05h6.25c2.66,9.67,5.86,21.19,6.74,26.1h0.08
			c1.03-5.16,4.28-16.86,6.74-26.1h6.03l-9.93,32.42c-0.08,0.36-0.16,0.79-0.16,1.59v19.43H748.01z"/>
		<path class="st4" d="M773.12,180.8v53.44h-5.69V180.8H773.12z"/>
		<path class="st4" d="M781.03,234.24V180.8h6.79c2.88,9.89,10.31,37.91,11.19,42.27h0.12c-0.31-7.19-0.4-14.71-0.4-23.42V180.8
			h5.36v53.44h-6.56c-2.84-10.03-10.5-39.44-11.51-43.7h-0.08c0.36,6.44,0.49,14.98,0.49,24.62v19.08H781.03z"/>
		<path class="st4" d="M833.33,234.24h-4.52c-0.15-0.87-0.31-3.42-0.35-4.63c-1.35,3.96-4.38,5.34-7.86,5.34
			c-7.39,0-9.82-5.45-9.82-14v-26.74c0-8.76,3.54-14.13,11.43-14.13c9.32,0,11.01,6.58,11.01,13.37v1.36h-5.69v-1.49
			c0-3.74-0.44-8.05-5.37-8.05c-3.72,0-5.58,2.35-5.58,8.42v27.54c0,5.27,1.37,8.63,5.27,8.63c4.9,0,5.74-4.52,5.74-11.35v-8.52
			h-5.94v-4.97h11.67V234.24z"/>
		<path class="st4" d="M851.52,180.8h9.3c8.3,0,11.41,4.36,11.41,11.62v2.41c0,7.51-2.28,9.8-4.96,10.81
			c2.89,0.92,6.05,3.46,6.05,10.72v3.95c0,9.31-3.22,13.94-12.32,13.94h-9.48V180.8z M860.58,203.41c4.78,0,6.23-1.93,6.23-8.15
			v-2.39c0-4.84-1.78-7.24-6.37-7.24h-3.37v17.78H860.58z M857.06,229.45h3.43c5.75,0,7.17-2.75,7.17-9.25v-3.69
			c0-5.83-2.04-8.33-7.19-8.33h-3.42V229.45z"/>
		<path class="st4" d="M884.63,217.19l-2.55,17.06h-5.76l8.78-53.44h8.1l9.14,53.44h-5.96l-2.75-17.06H884.63z M892.9,211.96
			c-1.87-11.77-3.21-20.86-3.72-25.91h-0.23c-0.2,4.13-2.11,16.15-3.55,25.91H892.9z"/>
		<path class="st4" d="M912.81,209.29v24.95h-5.69V180.8h9.34c8.03,0,11.98,3.46,11.98,12.3v2.44c0,7.26-2.55,10.23-5.44,11.25
			c3.39,1.26,4.97,3.81,4.97,10.96c0,4.57-0.08,13.11,0.52,16.49h-5.54c-0.68-3.33-0.56-12.31-0.56-16.06c0-6.92-0.97-8.9-6.27-8.9
			H912.81z M912.81,204.46h3.49c5.08,0,6.41-2.94,6.41-8.65v-2.38c0-4.88-1.33-7.8-6.68-7.8h-3.21V204.46z"/>
		<path class="st4" d="M955.32,218.91v1.81c0,6.79-1.22,14.23-10.89,14.23c-9.25,0-10.84-6.56-10.84-14.41v-27.19
			c0-8.55,3.67-13.27,10.91-13.27c8.97,0,10.57,6.37,10.57,13.37v2.09h-5.77v-2.51c0-4.23-0.66-7.75-4.89-7.75
			c-4.01,0-5.02,3.17-5.02,7.88v27.75c0,5.36,1.17,8.89,5.19,8.89c4.17,0,4.92-3.61,4.92-8.65v-2.24H955.32z"/>
		<path class="st4" d="M978.44,208.36h-11.99v20.65h13.61l-0.77,5.23h-18.52V180.8h18.36v5.27h-12.67v17.07h11.99V208.36z"/>
		<path class="st4" d="M984.72,180.8h5.69v48.32h13.44l-0.63,5.12h-18.5V180.8z"/>
		<path class="st4" d="M1029.61,193.93v26.93c0,9.39-3.87,14.09-11.83,14.09c-8.28,0-11.3-5.27-11.3-14.02v-27
			c0-9.08,4.13-13.85,11.69-13.85C1026.06,180.09,1029.61,185.48,1029.61,193.93z M1012.28,193.67v27.73c0,6.01,2.18,8.4,5.77,8.4
			c3.78,0,5.76-2.32,5.76-8.66v-27.47c0-5.67-1.95-8.39-5.8-8.39S1012.28,187.85,1012.28,193.67z"/>
		<path class="st4" d="M1036.32,234.24V180.8h6.79c2.88,9.89,10.31,37.91,11.19,42.27h0.12c-0.31-7.19-0.4-14.71-0.4-23.42V180.8
			h5.36v53.44h-6.56c-2.84-10.03-10.5-39.44-11.51-43.7h-0.08c0.36,6.44,0.49,14.98,0.49,24.62v19.08H1036.32z"/>
		<path class="st4" d="M1072.46,217.19l-2.55,17.06h-5.76l8.78-53.44h8.1l9.14,53.44h-5.96l-2.75-17.06H1072.46z M1080.73,211.96
			c-1.87-11.77-3.21-20.86-3.72-25.91h-0.23c-0.2,4.13-2.11,16.15-3.55,25.91H1080.73z"/>
		<path class="st4" d="M433.01,261.8v53.44h-5.69V261.8H433.01z"/>
		<path class="st4" d="M440.92,315.24V261.8h6.79c2.88,9.89,10.31,37.91,11.19,42.27h0.12c-0.31-7.19-0.4-14.71-0.4-23.42V261.8
			h5.36v53.44h-6.56c-2.84-10.03-10.5-39.44-11.51-43.7h-0.08c0.36,6.44,0.49,14.98,0.49,24.62v19.08H440.92z"/>
		<path class="st4" d="M506.06,267.06h-8.65v-5.27h22.93v5.27h-8.6v48.18h-5.69V267.06z"/>
		<path class="st4" d="M524.07,261.8h5.69v22.15h11.12V261.8h5.69v53.44h-5.69v-26.06h-11.12v26.06h-5.69V261.8z"/>
		<path class="st4" d="M572.11,289.36h-11.99v20.65h13.61l-0.77,5.23h-18.52V261.8h18.36v5.27h-12.67v17.07h11.99V289.36z"/>
		<path class="st4" d="M608.1,261.8h18.6v5.27h-12.92v17.4h12.18v5.27h-12.18v25.51h-5.69V261.8z"/>
		<path class="st4" d="M636.65,298.19l-2.55,17.06h-5.76l8.78-53.44h8.1l9.14,53.44h-5.96l-2.75-17.06H636.65z M644.92,292.96
			c-1.87-11.77-3.21-20.86-3.72-25.91h-0.23c-0.2,4.13-2.11,16.15-3.55,25.91H644.92z"/>
		<path class="st4" d="M659.14,315.24V261.8h6.79c2.88,9.89,10.31,37.91,11.19,42.27h0.12c-0.31-7.19-0.4-14.71-0.4-23.42V261.8
			h5.36v53.44h-6.56c-2.84-10.03-10.5-39.44-11.51-43.7h-0.08c0.36,6.44,0.49,14.98,0.49,24.62v19.08H659.14z"/>
		<path class="st4" d="M694.57,267.06h-8.65v-5.27h22.93v5.27h-8.6v48.18h-5.69V267.06z"/>
		<path class="st4" d="M717.77,298.19l-2.55,17.06h-5.76l8.78-53.44h8.1l9.14,53.44h-5.96l-2.75-17.06H717.77z M726.04,292.96
			c-1.87-11.77-3.21-20.86-3.72-25.91h-0.23c-0.2,4.13-2.11,16.15-3.55,25.91H726.04z"/>
		<path class="st4" d="M743.12,300.19v3.1c0,5.03,1.74,7.72,5.48,7.72c3.83,0,5.34-2.77,5.34-8.63c0-6.25-1.38-8.68-7-13.07
			c-5.72-4.47-8.62-7.17-8.62-15.05c0-6.77,2.03-13.27,10.41-13.22c7.96,0.04,10.06,5.34,10.06,12.12v2.48h-5.65v-2.33
			c0-4.44-0.87-7.3-4.52-7.3c-3.67,0-4.61,3.21-4.61,7.4c0,4.97,0.99,6.85,5.89,10.56c7.42,5.61,9.77,8.73,9.77,17.61
			c0,7.51-2.15,14.36-11.16,14.36c-8.62,0-11.07-5.65-11.07-12.69v-3.07H743.12z"/>
		<path class="st4" d="M771.15,315.24v-19.95c0-0.59-0.08-0.95-0.23-1.44l-9.83-32.05h6.25c2.66,9.67,5.86,21.19,6.74,26.1h0.08
			c1.03-5.16,4.28-16.86,6.74-26.1h6.03L777,294.21c-0.08,0.36-0.16,0.79-0.16,1.59v19.43H771.15z"/>
		<path class="st4" d="M820.29,261.8h5.69v48.32h13.44l-0.63,5.12h-18.5V261.8z"/>
		<path class="st4" d="M860.89,289.36H848.9v20.65h13.61l-0.77,5.23h-18.52V261.8h18.36v5.27H848.9v17.07h11.99V289.36z"/>
		<path class="st4" d="M872.36,298.19l-2.55,17.06h-5.76l8.78-53.44h8.1l9.14,53.44h-5.96l-2.75-17.06H872.36z M880.63,292.96
			c-1.87-11.77-3.21-20.86-3.72-25.91h-0.23c-0.2,4.13-2.11,16.15-3.55,25.91H880.63z"/>
		<path class="st4" d="M916.19,315.24h-4.52c-0.15-0.87-0.31-3.42-0.35-4.62c-1.35,3.96-4.38,5.34-7.86,5.34
			c-7.39,0-9.82-5.45-9.82-14v-26.74c0-8.76,3.54-14.13,11.43-14.13c9.32,0,11.01,6.58,11.01,13.37v1.36h-5.69v-1.49
			c0-3.74-0.44-8.05-5.37-8.05c-3.72,0-5.58,2.35-5.58,8.42v27.54c0,5.27,1.37,8.63,5.27,8.63c4.9,0,5.74-4.52,5.74-11.35v-8.52
			h-5.94v-4.97h11.67V315.24z"/>
		<path class="st4" d="M928.82,261.8v41.54c0,4.42,1.55,7.42,5.56,7.42c4.09,0,5.48-2.84,5.48-7.38V261.8h5.73v41.38
			c0,8.26-3.71,12.78-11.33,12.78c-7.4,0-11.13-4.15-11.13-12.65V261.8H928.82z"/>
		<path class="st4" d="M970.89,289.36H958.9v20.65h13.61l-0.77,5.23h-18.52V261.8h18.36v5.27H958.9v17.07h11.99V289.36z"/>
		<path class="st4" d="M1012.07,298.19l-2.55,17.06h-5.76l8.78-53.44h8.1l9.14,53.44h-5.96l-2.75-17.06H1012.07z M1020.34,292.96
			c-1.87-11.77-3.21-20.86-3.72-25.91h-0.23c-0.2,4.13-2.11,16.15-3.55,25.91H1020.34z"/>
		<path class="st4" d="M1034.56,315.24V261.8h6.79c2.88,9.89,10.31,37.91,11.19,42.27h0.12c-0.31-7.19-0.4-14.71-0.4-23.42V261.8
			h5.36v53.44h-6.56c-2.84-10.03-10.5-39.44-11.51-43.7h-0.08c0.36,6.44,0.49,14.98,0.49,24.62v19.08H1034.56z"/>
		<path class="st4" d="M1065.52,261.8h9.7c11.54,0,13,7.14,13,15.62v21.11c0,8.2-1.26,16.71-13.36,16.71h-9.34V261.8z
			 M1071.21,310.3h3.22c6.47,0,7.99-3.66,7.99-10.65v-22.91c0-6.17-1.11-9.96-7.94-9.96h-3.27V310.3z"/>
		<path class="st4" d="M430.18,381.19v3.1c0,5.03,1.74,7.72,5.48,7.72c3.83,0,5.34-2.77,5.34-8.63c0-6.25-1.38-8.68-7-13.07
			c-5.72-4.47-8.62-7.17-8.62-15.05c0-6.77,2.03-13.27,10.41-13.22c7.96,0.04,10.06,5.34,10.06,12.12v2.48h-5.65v-2.33
			c0-4.44-0.87-7.3-4.52-7.3c-3.67,0-4.61,3.21-4.61,7.4c0,4.97,0.99,6.85,5.89,10.56c7.42,5.61,9.77,8.73,9.77,17.61
			c0,7.51-2.15,14.36-11.16,14.36c-8.62,0-11.07-5.65-11.07-12.69v-3.07H430.18z"/>
		<path class="st4" d="M456.9,348.06h-8.65v-5.27h22.93v5.27h-8.6v48.18h-5.69V348.06z"/>
		<path class="st4" d="M480.1,379.18l-2.55,17.06h-5.76l8.78-53.44h8.1l9.14,53.44h-5.96l-2.75-17.06H480.1z M488.37,373.96
			c-1.87-11.77-3.21-20.86-3.72-25.91h-0.23c-0.2,4.13-2.11,16.15-3.55,25.91H488.37z"/>
		<path class="st4" d="M507.06,348.06h-8.65v-5.27h22.93v5.27h-8.6v48.18h-5.69V348.06z"/>
		<path class="st4" d="M530.76,342.8v53.44h-5.69V342.8H530.76z"/>
		<path class="st4" d="M541.53,381.19v3.1c0,5.03,1.74,7.72,5.48,7.72c3.83,0,5.34-2.77,5.34-8.63c0-6.25-1.38-8.68-7-13.07
			c-5.72-4.47-8.62-7.17-8.62-15.05c0-6.77,2.03-13.27,10.41-13.22c7.96,0.04,10.06,5.34,10.06,12.12v2.48h-5.65v-2.33
			c0-4.44-0.87-7.3-4.52-7.3c-3.67,0-4.61,3.21-4.61,7.4c0,4.97,0.99,6.85,5.89,10.56c7.42,5.61,9.77,8.73,9.77,17.61
			c0,7.51-2.15,14.36-11.16,14.36c-8.62,0-11.07-5.65-11.07-12.69v-3.07H541.53z"/>
		<path class="st4" d="M568.26,348.06h-8.65v-5.27h22.93v5.27h-8.6v48.18h-5.69V348.06z"/>
		<path class="st4" d="M591.96,342.8v53.44h-5.69V342.8H591.96z"/>
		<path class="st4" d="M620.39,380.91v1.81c0,6.79-1.22,14.23-10.89,14.23c-9.25,0-10.84-6.56-10.84-14.41v-27.19
			c0-8.55,3.67-13.27,10.91-13.27c8.97,0,10.57,6.37,10.57,13.37v2.09h-5.77v-2.51c0-4.23-0.66-7.75-4.89-7.75
			c-4.01,0-5.02,3.17-5.02,7.88v27.75c0,5.36,1.17,8.89,5.19,8.89c4.17,0,4.92-3.61,4.92-8.65v-2.24H620.39z"/>
		<path class="st4" d="M628.73,381.19v3.1c0,5.03,1.74,7.72,5.48,7.72c3.83,0,5.34-2.77,5.34-8.63c0-6.25-1.38-8.68-7-13.07
			c-5.72-4.47-8.62-7.17-8.62-15.05c0-6.77,2.03-13.27,10.41-13.22c7.96,0.04,10.06,5.34,10.06,12.12v2.48h-5.65v-2.33
			c0-4.44-0.87-7.3-4.52-7.3c-3.67,0-4.61,3.21-4.61,7.4c0,4.97,0.99,6.85,5.89,10.56c7.42,5.61,9.77,8.73,9.77,17.61
			c0,7.51-2.15,14.36-11.16,14.36c-8.62,0-11.07-5.65-11.07-12.69v-3.07H628.73z"/>
		<path class="st4" d="M660.9,342.8h18.6v5.27h-12.92v17.4h12.18v5.26h-12.18v25.51h-5.69V342.8z"/>
		<path class="st4" d="M706.19,355.93v26.93c0,9.39-3.87,14.09-11.83,14.09c-8.28,0-11.3-5.27-11.3-14.02v-27
			c0-9.08,4.13-13.85,11.69-13.85C702.64,342.09,706.19,347.48,706.19,355.93z M688.86,355.67v27.73c0,6.01,2.18,8.4,5.77,8.4
			c3.78,0,5.76-2.32,5.76-8.66v-27.47c0-5.67-1.95-8.39-5.8-8.39S688.86,349.85,688.86,355.67z"/>
		<path class="st4" d="M718.59,371.29v24.95h-5.69V342.8h9.34c8.03,0,11.98,3.46,11.98,12.3v2.44c0,7.26-2.55,10.23-5.44,11.25
			c3.39,1.26,4.97,3.81,4.97,10.96c0,4.57-0.08,13.11,0.52,16.49h-5.54c-0.68-3.33-0.56-12.31-0.56-16.06
			c0-6.92-0.97-8.89-6.27-8.89H718.59z M718.59,366.46h3.49c5.08,0,6.41-2.94,6.41-8.65v-2.38c0-4.88-1.33-7.8-6.68-7.8h-3.21
			V366.46z"/>
		<path class="st4" d="M772.42,355.93v26.93c0,9.39-3.87,14.09-11.83,14.09c-8.28,0-11.3-5.27-11.3-14.02v-27
			c0-9.08,4.13-13.85,11.69-13.85C768.87,342.09,772.42,347.48,772.42,355.93z M755.09,355.67v27.73c0,6.01,2.18,8.4,5.77,8.4
			c3.78,0,5.76-2.32,5.76-8.66v-27.47c0-5.67-1.95-8.39-5.8-8.39S755.09,349.85,755.09,355.67z"/>
		<path class="st4" d="M784.82,342.8v53.44h-5.69V342.8H784.82z"/>
		<path class="st4" d="M792.73,396.24V342.8h6.79c2.88,9.89,10.31,37.91,11.19,42.27h0.12c-0.31-7.19-0.4-14.71-0.4-23.42V342.8
			h5.36v53.44h-6.56c-2.84-10.03-10.5-39.44-11.51-43.7h-0.08c0.36,6.44,0.49,14.97,0.49,24.62v19.08H792.73z"/>
		<path class="st4" d="M823.69,342.8h5.69v48.32h13.44l-0.63,5.12h-18.5V342.8z"/>
		<path class="st4" d="M852.34,342.8v53.44h-5.69V342.8H852.34z"/>
		<path class="st4" d="M860.25,396.24V342.8h6.79c2.88,9.89,10.31,37.91,11.19,42.27h0.12c-0.31-7.19-0.4-14.71-0.4-23.42V342.8
			h5.36v53.44h-6.56c-2.84-10.03-10.5-39.44-11.51-43.7h-0.08c0.36,6.44,0.49,14.97,0.49,24.62v19.08H860.25z"/>
		<path class="st4" d="M908.84,370.36h-11.99v20.65h13.61l-0.77,5.23h-18.52V342.8h18.36v5.27h-12.67v17.07h11.99V370.36z"/>
		<path class="st4" d="M925.04,342.8h9.3c8.3,0,11.41,4.36,11.41,11.62v2.41c0,7.51-2.28,9.8-4.96,10.81
			c2.89,0.92,6.05,3.46,6.05,10.72v3.95c0,9.31-3.22,13.93-12.32,13.93h-9.48V342.8z M934.09,365.41c4.78,0,6.23-1.93,6.23-8.15
			v-2.39c0-4.84-1.78-7.24-6.37-7.24h-3.37v17.78H934.09z M930.58,391.45h3.43c5.75,0,7.17-2.75,7.17-9.25v-3.69
			c0-5.83-2.04-8.33-7.19-8.33h-3.42V391.45z"/>
		<path class="st4" d="M970.59,370.36h-11.99v20.65h13.61l-0.77,5.23h-18.52V342.8h18.36v5.27h-12.67v17.07h11.99V370.36z"/>
		<path class="st4" d="M981.34,348.06h-8.65v-5.27h22.93v5.27h-8.6v48.18h-5.69V348.06z"/>
		<path class="st4" d="M1003.82,348.06h-8.65v-5.27h22.93v5.27h-8.6v48.18h-5.69V348.06z"/>
		<path class="st4" d="M1027.52,342.8v53.44h-5.69V342.8H1027.52z"/>
		<path class="st4" d="M1035.44,396.24V342.8h6.79c2.88,9.89,10.31,37.91,11.19,42.27h0.12c-0.31-7.19-0.4-14.71-0.4-23.42V342.8
			h5.36v53.44h-6.56c-2.84-10.03-10.5-39.44-11.51-43.7h-0.08c0.36,6.44,0.49,14.97,0.49,24.62v19.08H1035.44z"/>
		<path class="st4" d="M1087.74,396.24h-4.52c-0.15-0.87-0.31-3.42-0.35-4.62c-1.35,3.96-4.38,5.34-7.86,5.34
			c-7.39,0-9.82-5.45-9.82-14v-26.74c0-8.76,3.54-14.13,11.43-14.13c9.32,0,11.01,6.58,11.01,13.37v1.36h-5.69v-1.49
			c0-3.74-0.44-8.05-5.37-8.05c-3.72,0-5.58,2.35-5.58,8.42v27.54c0,5.27,1.37,8.63,5.27,8.63c4.9,0,5.74-4.52,5.74-11.35v-8.52
			h-5.94v-4.97h11.67V396.24z"/>
	</g>
</g>
</svg>
