<?xml version="1.0" encoding="utf-8"?>
<!-- Generator: Adobe Illustrator 24.0.1, SVG Export Plug-In . SVG Version: 6.00 Build 0)  -->
<svg version="1.1" id="Layer_1" xmlns="http://www.w3.org/2000/svg" xmlns:xlink="http://www.w3.org/1999/xlink" x="0px" y="0px"
	 viewBox="0 0 439.9 115.54" style="enable-background:new 0 0 439.9 115.54;" xml:space="preserve">
<style type="text/css">
	.st0{fill:#0052A0;}
	.st1{fill:#FFFFFF;}
</style>
<g>
	<rect class="st0" width="439.9" height="115.54"/>
</g>
<g>
	<g>
		<path class="st1" d="M45.27,30.75h9.77c7.94,0,11.72,4.02,11.72,12.66v3.25c0,8.04-2.4,13.96-12.12,13.96h-3.69v23.57h-5.69V30.75
			z M50.96,55.83h3.18c6.06,0,6.94-3.72,6.94-9.27v-2.87c0-4.33-0.95-8.11-6.44-8.11h-3.67V55.83z"/>
		<path class="st1" d="M94.4,43.88v26.93c0,9.39-3.87,14.09-11.83,14.09c-8.28,0-11.3-5.27-11.3-14.02v-27
			c0-9.08,4.13-13.85,11.69-13.85C90.85,30.04,94.4,35.44,94.4,43.88z M77.07,43.62v27.73c0,6.01,2.18,8.4,5.77,8.4
			c3.78,0,5.76-2.32,5.76-8.66V43.63c0-5.67-1.95-8.39-5.8-8.39C78.94,35.23,77.07,37.8,77.07,43.62z"/>
		<path class="st1" d="M106.8,30.75v53.44h-5.69V30.75H106.8z"/>
		<path class="st1" d="M114.71,84.19V30.75h6.79c2.88,9.89,10.31,37.91,11.19,42.27h0.12c-0.31-7.19-0.4-14.71-0.4-23.42V30.75h5.36
			v53.44h-6.56c-2.84-10.03-10.5-39.44-11.51-43.7h-0.08c0.36,6.44,0.49,14.97,0.49,24.62v19.08H114.71z"/>
		<path class="st1" d="M150.14,36.02h-8.65v-5.27h22.93v5.27h-8.6v48.18h-5.69V36.02z"/>
		<path class="st1" d="M171.01,69.15v3.1c0,5.03,1.74,7.72,5.48,7.72c3.83,0,5.34-2.77,5.34-8.63c0-6.25-1.37-8.68-7-13.07
			c-5.72-4.47-8.62-7.17-8.62-15.05c0-6.77,2.03-13.27,10.41-13.22c7.96,0.04,10.06,5.34,10.06,12.12v2.48h-5.65v-2.33
			c0-4.44-0.87-7.3-4.52-7.3c-3.67,0-4.61,3.21-4.61,7.4c0,4.97,0.99,6.85,5.89,10.56c7.42,5.61,9.77,8.73,9.77,17.61
			c0,7.51-2.15,14.36-11.16,14.36c-8.63,0-11.07-5.65-11.07-12.69v-3.07H171.01z"/>
		<path class="st1" d="M201.79,86.6l11.94-55.84h4.59L206.42,86.6H201.79z"/>
		<path class="st1" d="M237.65,69.15v3.1c0,5.03,1.74,7.72,5.48,7.72c3.83,0,5.34-2.77,5.34-8.63c0-6.25-1.38-8.68-7-13.07
			c-5.72-4.47-8.62-7.17-8.62-15.05c0-6.77,2.03-13.27,10.41-13.22c7.96,0.04,10.06,5.34,10.06,12.12v2.48h-5.65v-2.33
			c0-4.44-0.87-7.3-4.52-7.3c-3.67,0-4.61,3.21-4.61,7.4c0,4.97,0.99,6.85,5.89,10.56c7.42,5.61,9.77,8.73,9.77,17.61
			c0,7.51-2.14,14.36-11.16,14.36c-8.63,0-11.07-5.65-11.07-12.69v-3.07H237.65z"/>
		<path class="st1" d="M277.54,58.32h-11.99v20.65h13.61l-0.77,5.23h-18.52V30.75h18.36v5.27h-12.67v17.07h11.99V58.32z"/>
		<path class="st1" d="M289.01,67.14l-2.55,17.06h-5.76l8.78-53.44h8.1l9.14,53.44h-5.96l-2.75-17.06H289.01z M297.28,61.91
			c-1.87-11.77-3.21-20.86-3.72-25.91h-0.23c-0.2,4.13-2.11,16.15-3.55,25.91H297.28z"/>
		<path class="st1" d="M314.36,69.15v3.1c0,5.03,1.74,7.72,5.48,7.72c3.83,0,5.34-2.77,5.34-8.63c0-6.25-1.38-8.68-7-13.07
			c-5.72-4.47-8.62-7.17-8.62-15.05c0-6.77,2.03-13.27,10.41-13.22c7.96,0.04,10.06,5.34,10.06,12.12v2.48h-5.65v-2.33
			c0-4.44-0.87-7.3-4.52-7.3c-3.67,0-4.61,3.21-4.61,7.4c0,4.97,0.99,6.85,5.89,10.56c7.42,5.61,9.77,8.73,9.77,17.61
			c0,7.51-2.14,14.36-11.16,14.36c-8.63,0-11.07-5.65-11.07-12.69v-3.07H314.36z"/>
		<path class="st1" d="M358.55,43.88v26.93c0,9.39-3.87,14.09-11.83,14.09c-8.28,0-11.3-5.27-11.3-14.02v-27
			c0-9.08,4.13-13.85,11.69-13.85C355,30.04,358.55,35.44,358.55,43.88z M341.22,43.62v27.73c0,6.01,2.18,8.4,5.77,8.4
			c3.78,0,5.76-2.32,5.76-8.66V43.63c0-5.67-1.95-8.39-5.8-8.39S341.22,37.8,341.22,43.62z"/>
		<path class="st1" d="M365.26,84.19V30.75h6.79c2.88,9.89,10.31,37.91,11.19,42.27h0.12c-0.31-7.19-0.4-14.71-0.4-23.42V30.75h5.36
			v53.44h-6.56c-2.84-10.03-10.5-39.44-11.51-43.7h-0.08c0.36,6.44,0.5,14.97,0.5,24.62v19.08H365.26z"/>
	</g>
</g>
</svg>
