<?xml version="1.0" encoding="utf-8"?>
<!-- Generator: Adobe Illustrator 24.0.1, SVG Export Plug-In . SVG Version: 6.00 Build 0)  -->
<svg version="1.1" id="Layer_1" xmlns="http://www.w3.org/2000/svg" xmlns:xlink="http://www.w3.org/1999/xlink" x="0px" y="0px"
	 viewBox="0 0 1355 462" style="enable-background:new 0 0 1355 462;" xml:space="preserve">
<style type="text/css">
	.st0{fill:#D2ECFF;}
	.st1{fill:none;stroke:#000000;stroke-width:5;stroke-miterlimit:10;}
	.st2{fill:#0052A0;}
	.st3{fill:#FFFFFF;}
	.st4{fill:#BF0000;}
</style>
<rect class="st0" width="1355" height="462"/>
<line class="st1" x1="113" y1="58" x2="113" y2="372"/>
<line class="st1" x1="286.5" y1="372" x2="286.5" y2="388"/>
<line class="st1" x1="463.37" y1="372" x2="463.37" y2="388"/>
<line class="st1" x1="640.25" y1="372" x2="640.25" y2="388"/>
<line class="st1" x1="817.12" y1="372" x2="817.12" y2="388"/>
<line class="st1" x1="994" y1="372" x2="994" y2="388"/>
<g>
	<g>
		<path d="M88.78,399.63v-0.24c0.01-2.5,1.15-4.42,3.03-7.18c1.29-1.88,1.64-2.61,1.64-4.37c0-1.89-0.29-2.73-1.42-2.73
			c-1.07,0-1.47,0.84-1.47,2.21v0.73h-1.62v-0.79c0-1.73,0.53-3.63,3.17-3.63c2.49,0,3.09,1.79,3.09,4.11
			c0,2.48-0.68,3.44-1.94,5.22c-1.46,2.11-2.44,3.79-2.56,5.14h4.84l-0.25,1.51H88.78z"/>
		<path d="M103.31,387.65v8.09c0,2.69-1.03,4.09-3.38,4.09c-2.16,0-3.27-1.35-3.27-4.05v-8.02c0-2.98,1.4-4.12,3.37-4.12
			C101.96,383.64,103.31,384.75,103.31,387.65z M98.37,387.6v8.29c0,1.57,0.49,2.33,1.62,2.33c1.02,0,1.58-0.6,1.58-2.39v-8.25
			c0-1.69-0.61-2.34-1.6-2.34C99.01,385.24,98.37,385.8,98.37,387.6z"/>
		<path d="M111.67,387.65v8.09c0,2.69-1.03,4.09-3.38,4.09c-2.16,0-3.27-1.35-3.27-4.05v-8.02c0-2.98,1.4-4.12,3.37-4.12
			C110.32,383.64,111.67,384.75,111.67,387.65z M106.74,387.6v8.29c0,1.57,0.49,2.33,1.62,2.33c1.02,0,1.58-0.6,1.58-2.39v-8.25
			c0-1.69-0.61-2.34-1.6-2.34C107.37,385.24,106.74,385.8,106.74,387.6z"/>
		<path d="M120.03,387.65v8.09c0,2.69-1.03,4.09-3.38,4.09c-2.16,0-3.27-1.35-3.27-4.05v-8.02c0-2.98,1.4-4.12,3.37-4.12
			C118.69,383.64,120.03,384.75,120.03,387.65z M115.1,387.6v8.29c0,1.57,0.49,2.33,1.62,2.33c1.02,0,1.58-0.6,1.58-2.39v-8.25
			c0-1.69-0.61-2.34-1.6-2.34C115.73,385.24,115.1,385.8,115.1,387.6z"/>
		<path d="M127.14,388.67v4.21h3.87v1.37h-3.87v4.23h-1.43v-4.23h-3.92v-1.37h3.92v-4.21H127.14z"/>
	</g>
</g>
<g>
	<rect x="1164" y="102" class="st2" width="40" height="40"/>
</g>
<rect x="1164" y="168" class="st3" width="40" height="40"/>
<rect x="1164" y="242" class="st4" width="40" height="40"/>
<g>
	<g>
		<path d="M1242.76,100.36h9.39v3.73h-6.52v12.31h6.15v3.73h-6.15v18.05h-2.87V100.36z"/>
		<path d="M1264.9,127.32v1.28c0,4.81-0.62,10.07-5.49,10.07c-4.67,0-5.47-4.64-5.47-10.19v-19.24c0-6.05,1.85-9.39,5.5-9.39
			c4.53,0,5.34,4.51,5.34,9.46v1.48h-2.91v-1.78c0-3-0.33-5.49-2.47-5.49c-2.02,0-2.53,2.24-2.53,5.58v19.63
			c0,3.79,0.59,6.29,2.62,6.29c2.1,0,2.48-2.56,2.48-6.12v-1.58H1264.9z"/>
		<path d="M1267.67,100.36h4.69c4.19,0,5.76,3.09,5.76,8.22v1.7c0,5.32-1.15,6.94-2.5,7.65c1.46,0.65,3.05,2.44,3.05,7.58v2.79
			c0,6.59-1.63,9.86-6.22,9.86h-4.79V100.36z M1272.24,116.36c2.41,0,3.14-1.37,3.14-5.77v-1.69c0-3.43-0.9-5.12-3.21-5.12h-1.7
			v12.58H1272.24z M1270.47,134.78h1.73c2.9,0,3.62-1.95,3.62-6.55v-2.61c0-4.12-1.03-5.9-3.63-5.9h-1.73V134.78z"/>
		<path d="M1245.63,190.7v17.66h-2.87v-37.82h4.71c4.05,0,6.05,2.45,6.05,8.7v1.73c0,5.14-1.29,7.24-2.75,7.96
			c1.71,0.89,2.51,2.7,2.51,7.76c0,3.23-0.04,9.28,0.26,11.67h-2.8c-0.34-2.36-0.28-8.71-0.28-11.36c0-4.9-0.49-6.29-3.16-6.29
			H1245.63z M1245.63,187.29h1.76c2.56,0,3.23-2.08,3.23-6.12v-1.68c0-3.45-0.67-5.52-3.37-5.52h-1.62V187.29z"/>
		<path d="M1269.98,192.58c0-6.93,0.08-14.4,0.17-18.45h-0.04c-0.67,6.34-2.73,22.99-4.17,34.23h-2.81
			c-1.09-9.73-3.22-27.51-3.87-34.25h-0.08c0.08,4.38,0.22,12.96,0.22,19.44v14.81h-2.67v-37.82h4.25
			c1.48,11.18,3.25,25.04,3.61,29.85h0.04c0.42-4.71,2.49-19.34,3.96-29.85h4.17v37.82h-2.78V192.58z"/>
		<path d="M1245.38,266.48l-1.29,12.07h-2.91l4.43-37.82h4.09l4.61,37.82h-3.01l-1.39-12.07H1245.38z M1249.55,262.78
			c-0.94-8.33-1.62-14.76-1.88-18.34h-0.12c-0.1,2.92-1.06,11.43-1.79,18.34H1249.55z"/>
		<path d="M1258.98,244.46h-4.36v-3.73h11.57v3.73h-4.34v34.09h-2.87V244.46z"/>
		<path d="M1281.33,262.77c0-6.93,0.08-14.4,0.17-18.45h-0.04c-0.67,6.34-2.73,22.99-4.17,34.23h-2.81
			c-1.09-9.73-3.22-27.51-3.87-34.25h-0.08c0.08,4.38,0.22,12.96,0.22,19.44v14.81h-2.67v-37.82h4.25
			c1.48,11.18,3.25,25.04,3.61,29.85h0.04c0.42-4.71,2.49-19.34,3.96-29.85h4.17v37.82h-2.78V262.77z"/>
	</g>
</g>
<rect x="305" y="168" class="st4" width="20" height="204"/>
<g>
	<rect x="276" y="111" class="st2" width="20" height="261"/>
</g>
<rect x="247" y="144" class="st3" width="20" height="228"/>
<rect x="482" y="168" class="st3" width="20" height="204"/>
<g>
	<rect x="453" y="93" class="st2" width="20" height="279"/>
</g>
<rect x="424" y="135" class="st4" width="20" height="237"/>
<rect x="659" y="138" class="st4" width="20" height="234"/>
<g>
	<rect x="630" y="102" class="st2" width="20" height="270"/>
</g>
<rect x="601" y="93" class="st3" width="20" height="279"/>
<rect x="836" y="108" class="st4" width="20" height="264"/>
<g>
	<rect x="807" y="99" class="st2" width="20" height="273"/>
</g>
<rect x="778" y="102" class="st3" width="20" height="270"/>
<rect x="1013" y="108" class="st4" width="20" height="264"/>
<g>
	<rect x="984" y="90" class="st2" width="20" height="282"/>
</g>
<rect x="955" y="96" class="st3" width="20" height="276"/>
<line class="st1" x1="1134" y1="372" x2="113" y2="372"/>
<line class="st1" x1="114" y1="93" x2="85" y2="93"/>
<line class="st1" x1="113.5" y1="167.5" x2="84.5" y2="167.5"/>
<g>
	<g>
		<path d="M64.29,74.82V46.51c-0.73,0.41-2.33,0.91-3.03,0.99v-2.81c1.52-0.37,3.14-1.62,3.82-2.58h2.08v32.71H64.29z"/>
		<path d="M81.95,50.18v16.64c0,5.54-1.71,8.41-5.62,8.41c-3.59,0-5.43-2.79-5.43-8.33V50.39c0-6.13,2.32-8.47,5.6-8.47
			C79.71,41.92,81.95,44.21,81.95,50.18z M73.76,50.07v17.06c0,3.24,0.81,4.79,2.69,4.79c1.7,0,2.63-1.24,2.63-4.91V50.03
			c0-3.48-1.02-4.81-2.65-4.81C74.81,45.22,73.76,46.37,73.76,50.07z"/>
		<path d="M95.84,50.18v16.64c0,5.54-1.71,8.41-5.62,8.41c-3.59,0-5.43-2.79-5.43-8.33V50.39c0-6.13,2.32-8.47,5.6-8.47
			C93.6,41.92,95.84,44.21,95.84,50.18z M87.65,50.07v17.06c0,3.24,0.81,4.79,2.69,4.79c1.7,0,2.63-1.24,2.63-4.91V50.03
			c0-3.48-1.02-4.81-2.65-4.81C88.7,45.22,87.65,46.37,87.65,50.07z"/>
	</g>
</g>
<g>
	<g>
		<path d="M81.39,189.36v-0.34c0-1.48-0.22-4.06-2.4-4.06c-2.16,0-2.69,1.96-2.69,6.05v4.82c0.57-1.3,1.62-2.54,3.68-2.54
			c3.36,0,4.47,3.28,4.47,7.25v6.03c0,5-1.2,8.64-5.54,8.64c-4.39,0-5.44-3.98-5.44-8.65v-15.46c0-5.55,1.27-9.19,5.54-9.19
			c4.27,0,5.12,3.85,5.12,7.21v0.23H81.39z M81.6,207.08v-5.94c0-2.77-0.52-4.66-2.5-4.66c-2.21,0-2.8,2.36-2.8,5.56v5.04
			c0,2.71,0.52,5.15,2.65,5.15C80.76,212.22,81.6,210.68,81.6,207.08z"/>
		<path d="M86.85,207.38v-3.68c0-4.2,1.39-5.5,2.62-6.41c-1.41-1.04-2.24-2.72-2.24-6.05v-1.95c0-4.64,1.8-7.36,5.36-7.36
			c3.14,0,5.12,2.25,5.12,7.38v1.77c0,4.09-1.07,5.35-2.31,6.19c1.57,0.91,2.62,2.59,2.62,6.37v3.53c0,5.45-1.79,8.05-5.64,8.05
			C88.96,215.22,86.85,212.89,86.85,207.38z M95.18,207.51v-4.21c0-3.11-0.9-4.41-2.75-4.41c-1.85,0-2.73,1.35-2.73,4.52v4.03
			c0,2.71,0.76,4.68,2.73,4.68C94.54,212.13,95.18,210.32,95.18,207.51z M90,189.15v2.72c0,2.36,0.77,3.95,2.5,3.95
			c1.61,0,2.44-1.2,2.44-4.02v-2.67c0-2.27-0.45-4.12-2.46-4.12C90.62,185,90,186.76,90,189.15z"/>
	</g>
</g>
<g>
	<g>
		<path d="M270.02,423.71v-26.05c-0.67,0.37-2.14,0.83-2.79,0.91v-2.58c1.39-0.34,2.89-1.49,3.51-2.37h1.91v30.09H270.02z"/>
		<path d="M275.94,416.87v-3.38c0-3.86,1.28-5.06,2.41-5.9c-1.3-0.95-2.06-2.5-2.06-5.56v-1.79c0-4.27,1.65-6.78,4.93-6.78
			c2.89,0,4.71,2.07,4.71,6.79v1.63c0,3.76-0.99,4.92-2.12,5.69c1.45,0.84,2.41,2.38,2.41,5.86v3.25c0,5.01-1.65,7.4-5.19,7.4
			C277.88,424.08,275.94,421.93,275.94,416.87z M283.6,416.99v-3.87c0-2.86-0.83-4.05-2.53-4.05c-1.7,0-2.52,1.24-2.52,4.16v3.71
			c0,2.5,0.7,4.3,2.51,4.3C283.01,421.24,283.6,419.57,283.6,416.99z M278.83,400.09v2.5c0,2.17,0.71,3.63,2.3,3.63
			c1.49,0,2.24-1.1,2.24-3.7v-2.46c0-2.09-0.41-3.79-2.26-3.79C279.4,396.28,278.83,397.9,278.83,400.09z"/>
		<path d="M294.55,410.18v3.04h-6.25v-3.04H294.55z"/>
		<path d="M298.47,423.71v-26.05c-0.67,0.37-2.14,0.83-2.79,0.91v-2.58c1.39-0.34,2.89-1.49,3.51-2.37h1.91v30.09H298.47z"/>
		<path d="M307.14,417.24v0.3c0,2.58,0.78,3.76,2.17,3.76c1.83,0,2.39-1.43,2.39-6.26v-5.38c-0.53,1.38-1.41,2.28-3.21,2.28
			c-3.1,0-4.17-2.87-4.17-7v-4.35c0-4.42,1.62-7.14,5.02-7.14c3.22,0,4.95,2.36,4.95,7.32v13.46c0,5.83-0.5,9.86-5.01,9.86
			c-3.79,0-4.74-3.22-4.74-6.68v-0.16H307.14z M306.94,400.29v4.64c0,2.07,0.35,4.13,2.24,4.13c2.03,0,2.5-2.25,2.5-5.28v-3.41
			c0-2.74-0.65-4.17-2.36-4.17C307.75,396.19,306.94,397.4,306.94,400.29z"/>
		<path d="M443.92,423.71v-26.05c-0.67,0.37-2.14,0.83-2.79,0.91v-2.58c1.39-0.34,2.89-1.49,3.51-2.37h1.91v30.09H443.92z"/>
		<path d="M458.9,393.81v2.46c-3.01,7.34-5.34,16.48-6.34,27.45h-2.69c0.81-9.61,3.32-19.89,6.32-26.98h-7.25v-2.93H458.9z"/>
		<path d="M466.37,410.18v3.04h-6.25v-3.04H466.37z"/>
		<path d="M470.29,423.71v-26.05c-0.67,0.37-2.14,0.83-2.79,0.91v-2.58c1.39-0.34,2.89-1.49,3.51-2.37h1.91v30.09H470.29z"/>
		<path d="M476.21,416.87v-3.38c0-3.86,1.28-5.06,2.41-5.9c-1.3-0.95-2.06-2.5-2.06-5.56v-1.79c0-4.27,1.65-6.78,4.93-6.78
			c2.89,0,4.71,2.07,4.71,6.79v1.63c0,3.76-0.99,4.92-2.12,5.69c1.45,0.84,2.41,2.38,2.41,5.86v3.25c0,5.01-1.65,7.4-5.19,7.4
			C478.15,424.08,476.21,421.93,476.21,416.87z M483.87,416.99v-3.87c0-2.86-0.83-4.05-2.53-4.05c-1.7,0-2.52,1.24-2.52,4.16v3.71
			c0,2.5,0.7,4.3,2.51,4.3C483.28,421.24,483.87,419.57,483.87,416.99z M479.1,400.09v2.5c0,2.17,0.71,3.63,2.3,3.63
			c1.49,0,2.24-1.1,2.24-3.7v-2.46c0-2.09-0.41-3.79-2.26-3.79C479.67,396.28,479.1,397.9,479.1,400.09z"/>
		<path d="M620.97,423.71v-26.05c-0.67,0.37-2.14,0.83-2.79,0.91v-2.58c1.39-0.34,2.89-1.49,3.51-2.37h1.91v30.09H620.97z"/>
		<path d="M634.34,400.29v-0.31c0-1.36-0.2-3.74-2.21-3.74c-1.99,0-2.47,1.8-2.47,5.57v4.44c0.53-1.2,1.49-2.33,3.39-2.33
			c3.09,0,4.11,3.02,4.11,6.67v5.55c0,4.6-1.11,7.95-5.1,7.95c-4.04,0-5-3.66-5-7.96V401.9c0-5.11,1.16-8.46,5.1-8.46
			c3.93,0,4.71,3.55,4.71,6.64v0.21H634.34z M634.54,416.59v-5.46c0-2.55-0.48-4.29-2.3-4.29c-2.03,0-2.57,2.17-2.57,5.12v4.63
			c0,2.49,0.48,4.73,2.43,4.73C633.77,421.32,634.54,419.9,634.54,416.59z"/>
		<path d="M645.43,410.18v3.04h-6.25v-3.04H645.43z"/>
		<path d="M649.35,423.71v-26.05c-0.67,0.37-2.14,0.83-2.79,0.91v-2.58c1.39-0.34,2.89-1.49,3.51-2.37h1.91v30.09H649.35z"/>
		<path d="M664.33,393.81v2.46c-3.01,7.34-5.34,16.48-6.34,27.45h-2.69c0.81-9.61,3.32-19.89,6.32-26.98h-7.25v-2.93H664.33z"/>
		<path d="M797.95,423.71v-26.05c-0.67,0.37-2.14,0.83-2.79,0.91v-2.58c1.39-0.34,2.89-1.49,3.51-2.37h1.91v30.09H797.95z"/>
		<path d="M813.39,396.73h-6c-0.13,2.56-0.36,6.65-0.55,8.92c0.48-0.98,1.6-1.74,3.02-1.74c3.21,0,4.29,2.97,4.29,7.91v3.49
			c0,4.9-0.99,8.77-5.26,8.77c-3.9,0-5.08-3.29-5.08-7.14v-0.51h2.64v0.8c0,1.95,0.52,4.07,2.44,4.07c2.14,0,2.53-2.2,2.53-5.44
			v-3.88c0-3.29-0.41-5.22-2.37-5.22c-1.55,0-2.2,1.1-2.59,3.27l-2.38-0.33c0.38-4.15,0.84-12.78,0.98-15.88h8.63L813.39,396.73z"/>
		<path d="M822.49,410.18v3.04h-6.25v-3.04H822.49z"/>
		<path d="M826.41,423.71v-26.05c-0.67,0.37-2.14,0.83-2.79,0.91v-2.58c1.39-0.34,2.89-1.49,3.51-2.37h1.91v30.09H826.41z"/>
		<path d="M839.78,400.29v-0.31c0-1.36-0.2-3.74-2.21-3.74c-1.99,0-2.47,1.8-2.47,5.57v4.44c0.53-1.2,1.49-2.33,3.39-2.33
			c3.09,0,4.11,3.02,4.11,6.67v5.55c0,4.6-1.11,7.95-5.1,7.95c-4.04,0-5-3.66-5-7.96V401.9c0-5.11,1.16-8.46,5.1-8.46
			c3.93,0,4.71,3.55,4.71,6.64v0.21H839.78z M839.97,416.59v-5.46c0-2.55-0.48-4.29-2.3-4.29c-2.03,0-2.57,2.17-2.57,5.12v4.63
			c0,2.49,0.48,4.73,2.43,4.73C839.2,421.32,839.97,419.9,839.97,416.59z"/>
		<path d="M977.01,423.71v-26.05c-0.67,0.37-2.14,0.83-2.79,0.91v-2.58c1.39-0.34,2.89-1.49,3.51-2.37h1.91v30.09H977.01z"/>
		<path d="M989.22,423.71v-8.1h-6.84v-2.41l5.87-19.39h3.44v19.05h1.9l-0.24,2.76h-1.67v8.1H989.22z M989.22,405.66
			c0-2.84,0.07-5.69,0.13-8.5h-0.04c-1.33,5.18-2.89,10.59-4.35,15.7h4.25V405.66z"/>
		<path d="M1001.14,410.18v3.04h-6.25v-3.04H1001.14z"/>
		<path d="M1005.06,423.71v-26.05c-0.67,0.37-2.14,0.83-2.79,0.91v-2.58c1.39-0.34,2.89-1.49,3.51-2.37h1.91v30.09H1005.06z"/>
		<path d="M1020.49,396.73h-6c-0.13,2.56-0.36,6.65-0.55,8.92c0.48-0.98,1.6-1.74,3.02-1.74c3.21,0,4.29,2.97,4.29,7.91v3.49
			c0,4.9-0.99,8.77-5.26,8.77c-3.9,0-5.08-3.29-5.08-7.14v-0.51h2.64v0.8c0,1.95,0.52,4.07,2.44,4.07c2.14,0,2.53-2.2,2.53-5.44
			v-3.88c0-3.29-0.41-5.22-2.37-5.22c-1.55,0-2.2,1.1-2.59,3.27l-2.38-0.33c0.38-4.15,0.84-12.78,0.98-15.88h8.63L1020.49,396.73z"
			/>
	</g>
</g>
</svg>
