<?xml version="1.0" encoding="utf-8"?>
<!-- Generator: Adobe Illustrator 24.0.1, SVG Export Plug-In . SVG Version: 6.00 Build 0)  -->
<svg version="1.1" id="Layer_1" xmlns="http://www.w3.org/2000/svg" xmlns:xlink="http://www.w3.org/1999/xlink" x="0px" y="0px"
	 viewBox="0 0 439.9 115.54" style="enable-background:new 0 0 439.9 115.54;" xml:space="preserve">
<style type="text/css">
	.st0{fill:#A2204A;}
	.st1{fill:#FFFFFF;}
</style>
<g>
	<rect class="st0" width="439.9" height="115.54"/>
</g>
<g>
	<g>
		<path class="st1" d="M24.12,30.75h5.69v48.32h13.44l-0.63,5.12H24.12V30.75z"/>
		<path class="st1" d="M64.72,58.32H52.73v20.65h13.61l-0.77,5.23H47.04V30.75H65.4v5.27H52.73v17.07h11.99V58.32z"/>
		<path class="st1" d="M76.19,67.14l-2.55,17.06h-5.76l8.78-53.44h8.1l9.14,53.44h-5.96l-2.75-17.06H76.19z M84.46,61.91
			C82.59,50.14,81.25,41.05,80.74,36h-0.23c-0.2,4.13-2.11,16.15-3.55,25.91H84.46z"/>
		<path class="st1" d="M120.02,84.19h-4.52c-0.15-0.87-0.31-3.42-0.35-4.63c-1.35,3.96-4.38,5.34-7.86,5.34
			c-7.39,0-9.82-5.46-9.82-14V44.17c0-8.76,3.53-14.13,11.43-14.13c9.32,0,11.01,6.58,11.01,13.38v1.36h-5.69v-1.49
			c0-3.74-0.44-8.05-5.37-8.05c-3.72,0-5.58,2.35-5.58,8.42V71.2c0,5.27,1.37,8.63,5.27,8.63c4.9,0,5.74-4.52,5.74-11.35v-8.52
			h-5.93v-4.97h11.67V84.19z"/>
		<path class="st1" d="M132.65,30.75v41.54c0,4.41,1.55,7.42,5.56,7.42c4.09,0,5.48-2.84,5.48-7.38V30.75h5.73v41.38
			c0,8.26-3.71,12.78-11.33,12.78c-7.4,0-11.13-4.15-11.13-12.65V30.75H132.65z"/>
		<path class="st1" d="M174.72,58.32h-11.99v20.65h13.61l-0.77,5.23h-18.52V30.75h18.36v5.27h-12.67v17.07h11.99V58.32z"/>
		<path class="st1" d="M194.66,69.15v3.1c0,5.03,1.74,7.72,5.48,7.72c3.83,0,5.34-2.77,5.34-8.63c0-6.25-1.37-8.68-7-13.07
			c-5.72-4.47-8.62-7.17-8.62-15.05c0-6.77,2.03-13.27,10.41-13.22c7.96,0.04,10.06,5.34,10.06,12.12v2.48h-5.65v-2.33
			c0-4.44-0.87-7.3-4.52-7.3c-3.67,0-4.61,3.21-4.61,7.4c0,4.97,0.99,6.85,5.89,10.56c7.42,5.61,9.77,8.73,9.77,17.61
			c0,7.51-2.15,14.36-11.16,14.36c-8.63,0-11.07-5.65-11.07-12.69v-3.07H194.66z"/>
		<path class="st1" d="M221.38,36.02h-8.65v-5.27h22.93v5.27h-8.6v48.18h-5.69V36.02z"/>
		<path class="st1" d="M244.58,67.14l-2.55,17.06h-5.76l8.78-53.44h8.1l9.14,53.44h-5.96l-2.75-17.06H244.58z M252.85,61.91
			c-1.87-11.77-3.21-20.86-3.72-25.91h-0.23c-0.2,4.13-2.11,16.15-3.55,25.91H252.85z"/>
		<path class="st1" d="M267.08,84.19V30.75h6.79c2.88,9.89,10.31,37.91,11.19,42.27h0.12c-0.31-7.19-0.4-14.71-0.4-23.42V30.75h5.36
			v53.44h-6.56c-2.84-10.03-10.5-39.44-11.51-43.7h-0.08c0.36,6.44,0.49,14.97,0.49,24.62v19.08H267.08z"/>
		<path class="st1" d="M298.04,30.75h9.69c11.54,0,13,7.13,13,15.62v21.11c0,8.2-1.27,16.71-13.36,16.71h-9.34V30.75z M303.72,79.26
			h3.22c6.47,0,7.99-3.66,7.99-10.66V45.69c0-6.17-1.11-9.96-7.94-9.96h-3.27V79.26z"/>
		<path class="st1" d="M333.16,30.75v53.44h-5.69V30.75H333.16z"/>
		<path class="st1" d="M341.08,84.19V30.75h6.79c2.88,9.89,10.31,37.91,11.19,42.27h0.12c-0.31-7.19-0.4-14.71-0.4-23.42V30.75h5.36
			v53.44h-6.56c-2.84-10.03-10.5-39.44-11.51-43.7h-0.08c0.36,6.44,0.49,14.97,0.49,24.62v19.08H341.08z"/>
		<path class="st1" d="M393.37,84.19h-4.52c-0.15-0.87-0.31-3.42-0.35-4.63c-1.35,3.96-4.38,5.34-7.86,5.34
			c-7.39,0-9.82-5.46-9.82-14V44.17c0-8.76,3.53-14.13,11.43-14.13c9.32,0,11.01,6.58,11.01,13.38v1.36h-5.69v-1.49
			c0-3.74-0.44-8.05-5.37-8.05c-3.72,0-5.58,2.35-5.58,8.42V71.2c0,5.27,1.37,8.63,5.27,8.63c4.9,0,5.74-4.52,5.74-11.35v-8.52
			h-5.93v-4.97h11.67V84.19z"/>
		<path class="st1" d="M403.45,69.15v3.1c0,5.03,1.74,7.72,5.48,7.72c3.83,0,5.34-2.77,5.34-8.63c0-6.25-1.38-8.68-7-13.07
			c-5.72-4.47-8.62-7.17-8.62-15.05c0-6.77,2.03-13.27,10.41-13.22c7.96,0.04,10.06,5.34,10.06,12.12v2.48h-5.65v-2.33
			c0-4.44-0.87-7.3-4.52-7.3c-3.67,0-4.61,3.21-4.61,7.4c0,4.97,0.99,6.85,5.89,10.56c7.42,5.61,9.77,8.73,9.77,17.61
			c0,7.51-2.14,14.36-11.16,14.36c-8.63,0-11.07-5.65-11.07-12.69v-3.07H403.45z"/>
	</g>
</g>
</svg>
