<?xml version="1.0" encoding="utf-8"?>
<!-- Generator: Adobe Illustrator 24.0.1, SVG Export Plug-In . SVG Version: 6.00 Build 0)  -->
<svg version="1.1" id="Layer_1" xmlns="http://www.w3.org/2000/svg" xmlns:xlink="http://www.w3.org/1999/xlink" x="0px" y="0px"
	 viewBox="0 0 987 291" style="enable-background:new 0 0 987 291;" xml:space="preserve">
<style type="text/css">
	.st0{fill:#0052A0;}
	.st1{fill:#FFFFFF;}
</style>
<g>
	<rect class="st0" width="987" height="291"/>
</g>
<g>
	<g>
		<path class="st1" d="M109.4,75.96h36.85v12.92h-25.59v42.68h24.13v12.92h-24.13v62.59H109.4V75.96z"/>
		<path class="st1" d="M165.94,165.23l-5.06,41.84h-11.41l17.39-131.11h16.05l18.11,131.11h-11.8l-5.45-41.84H165.94z M182.32,152.4
			c-3.7-28.87-6.35-51.18-7.36-63.58h-0.46c-0.39,10.13-4.18,39.63-7.03,63.58H182.32z"/>
		<path class="st1" d="M222.61,207.07L204.15,75.96h12.17l7.04,58.78c2.18,18.33,5.27,40.72,6.22,54.3h0.23
			c0.86-13.13,4.12-35.62,6.22-53.8l7.17-59.28h12.01l-18.51,131.11H222.61z"/>
		<path class="st1" d="M307.98,108.16v66.07c0,23.04-7.66,34.58-23.44,34.58c-16.39,0-22.39-12.94-22.39-34.4v-66.23
			c0-22.27,8.18-33.97,23.15-33.97C300.95,74.21,307.98,87.45,307.98,108.16z M273.65,107.52v68.04c0,14.74,4.32,20.61,11.43,20.61
			c7.49,0,11.41-5.69,11.41-21.23v-67.39c0-13.92-3.86-20.59-11.5-20.59C277.35,86.95,273.65,93.25,273.65,107.52z"/>
		<path class="st1" d="M332.55,145.85v61.22h-11.26V75.96h18.5c15.91,0,23.73,8.49,23.73,30.17v6c0,17.81-5.06,25.11-10.78,27.6
			c6.71,3.09,9.84,9.35,9.84,26.89c0,11.21-0.16,32.17,1.04,40.45h-10.98c-1.34-8.17-1.11-30.21-1.11-39.4
			c0-16.99-1.93-21.82-12.42-21.82H332.55z M332.55,134h6.92c10.06,0,12.69-7.21,12.69-21.22v-5.83c0-11.97-2.64-19.15-13.24-19.15
			h-6.37V134z"/>
		<path class="st1" d="M387.38,75.96v131.11h-11.26V75.96H387.38z"/>
		<path class="st1" d="M411.9,88.88h-17.13V75.96h45.42v12.92h-17.03v118.19H411.9V88.88z"/>
		<path class="st1" d="M482.53,143.58h-23.74v50.66h26.96l-1.53,12.83h-36.69V75.96h36.36v12.92h-25.1v41.88h23.74V143.58z"/>
		<path class="st1" d="M522.03,170.15v7.6c0,12.35,3.44,18.95,10.86,18.95c7.58,0,10.58-6.8,10.58-21.16
			c0-15.35-2.72-21.31-13.87-32.06c-11.32-10.97-17.07-17.59-17.07-36.92c0-16.61,4.02-32.54,20.63-32.44
			c15.76,0.11,19.92,13.1,19.92,29.74v6.08h-11.19v-5.71c0-10.88-1.71-17.92-8.96-17.92c-7.26,0-9.13,7.89-9.13,18.17
			c0,12.19,1.96,16.81,11.67,25.91c14.7,13.76,19.35,21.43,19.35,43.2c0,18.43-4.25,35.22-22.11,35.22
			c-17.09,0-21.93-13.86-21.93-31.14v-7.53H522.03z"/>
		<path class="st1" d="M574.98,88.88h-17.13V75.96h45.42v12.92h-17.03v118.19h-11.26V88.88z"/>
		<path class="st1" d="M620.94,165.23l-5.06,41.84h-11.41l17.39-131.11h16.05l18.11,131.11h-11.8l-5.45-41.84H620.94z M637.32,152.4
			c-3.7-28.87-6.35-51.18-7.36-63.58h-0.46c-0.39,10.13-4.18,39.63-7.03,63.58H637.32z"/>
		<path class="st1" d="M665.5,75.96h19.2c22.86,0,25.76,17.5,25.76,38.33v51.78c0,20.13-2.51,41-26.46,41h-18.5V75.96z
			 M676.77,194.95h6.38c12.82,0,15.82-8.98,15.82-26.14v-56.21c0-15.15-2.19-24.45-15.72-24.45h-6.48V194.95z"/>
		<path class="st1" d="M735.09,75.96v131.11h-11.26V75.96H735.09z"/>
		<path class="st1" d="M761.48,75.96v101.9c0,10.83,3.07,18.2,11.01,18.2c8.1,0,10.86-6.96,10.86-18.09V75.96h11.35v101.51
			c0,20.27-7.35,31.35-22.45,31.35c-14.67,0-22.04-10.19-22.04-31.03V75.96H761.48z"/>
		<path class="st1" d="M861.89,152.36c0-24.04,0.33-49.94,0.65-63.97h-0.16c-2.64,22-10.72,79.71-16.38,118.67h-11.02
			c-4.29-33.72-12.64-95.37-15.19-118.76h-0.32c0.32,15.2,0.88,44.95,0.88,67.41v51.35h-10.47V75.96h16.7
			c5.81,38.76,12.75,86.81,14.18,103.51h0.16c1.66-16.34,9.75-67.06,15.55-103.51h16.35v131.11h-10.92V152.36z"/>
	</g>
</g>
<g>
	<rect class="st0" width="987" height="291"/>
</g>
<g>
	<g>
		<path class="st1" d="M109.4,75.96h36.85v12.92h-25.59v42.68h24.13v12.92h-24.13v62.59H109.4V75.96z"/>
		<path class="st1" d="M190.61,143.58h-23.74v50.66h26.96l-1.53,12.83H155.6V75.96h36.36v12.92h-25.1v41.88h23.74V143.58z"/>
		<path class="st1" d="M213.33,165.23l-5.06,41.84h-11.41l17.39-131.11h16.05l18.11,131.11h-11.8l-5.45-41.84H213.33z M229.71,152.4
			c-3.7-28.87-6.35-51.18-7.36-63.58h-0.46c-0.39,10.13-4.18,39.63-7.03,63.58H229.71z"/>
		<path class="st1" d="M269.16,145.85v61.22h-11.26V75.96h18.5c15.91,0,23.73,8.49,23.73,30.17v6c0,17.81-5.06,25.11-10.78,27.6
			c6.71,3.09,9.84,9.35,9.84,26.89c0,11.21-0.16,32.17,1.04,40.45h-10.98c-1.34-8.17-1.11-30.21-1.11-39.4
			c0-16.99-1.93-21.82-12.42-21.82H269.16z M269.16,134h6.92c10.06,0,12.69-7.21,12.69-21.22v-5.83c0-11.97-2.64-19.15-13.24-19.15
			h-6.37V134z"/>
		<path class="st1" d="M347.66,143.58h-23.74v50.66h26.96l-1.53,12.83h-36.69V75.96h36.36v12.92h-25.1v41.88h23.74V143.58z"/>
		<path class="st1" d="M360.11,75.96h19.2c22.86,0,25.76,17.5,25.76,38.33v51.78c0,20.13-2.51,41-26.46,41h-18.5V75.96z
			 M371.38,194.95h6.38c12.82,0,15.82-8.98,15.82-26.14v-56.21c0-15.15-2.19-24.45-15.72-24.45h-6.48V194.95z"/>
		<path class="st1" d="M445.49,170.15v7.6c0,12.35,3.44,18.95,10.86,18.95c7.58,0,10.58-6.8,10.58-21.16
			c0-15.35-2.72-21.31-13.87-32.06c-11.32-10.97-17.07-17.59-17.07-36.92c0-16.61,4.02-32.54,20.63-32.44
			c15.76,0.11,19.92,13.1,19.92,29.74v6.08h-11.19v-5.71c0-10.88-1.71-17.92-8.96-17.92c-7.26,0-9.13,7.89-9.13,18.17
			c0,12.19,1.96,16.81,11.67,25.91c14.7,13.76,19.35,21.43,19.35,43.2c0,18.43-4.25,35.22-22.11,35.22
			c-17.09,0-21.93-13.86-21.93-31.14v-7.53H445.49z"/>
		<path class="st1" d="M498.44,88.88h-17.13V75.96h45.42v12.92H509.7v118.19h-11.26V88.88z"/>
		<path class="st1" d="M544.4,165.23l-5.06,41.84h-11.41l17.39-131.11h16.05l18.11,131.11h-11.8l-5.45-41.84H544.4z M560.78,152.4
			c-3.7-28.87-6.35-51.18-7.36-63.58h-0.46c-0.39,10.13-4.18,39.63-7.03,63.58H560.78z"/>
		<path class="st1" d="M588.96,75.96h19.2c22.86,0,25.76,17.5,25.76,38.33v51.78c0,20.13-2.51,41-26.46,41h-18.5V75.96z
			 M600.22,194.95h6.38c12.82,0,15.82-8.98,15.82-26.14v-56.21c0-15.15-2.19-24.45-15.72-24.45h-6.48V194.95z"/>
		<path class="st1" d="M658.55,75.96v131.11h-11.26V75.96H658.55z"/>
		<path class="st1" d="M684.94,75.96v101.9c0,10.83,3.07,18.2,11.01,18.2c8.1,0,10.86-6.96,10.86-18.09V75.96h11.35v101.51
			c0,20.27-7.35,31.35-22.45,31.35c-14.67,0-22.04-10.19-22.04-31.03V75.96H684.94z"/>
		<path class="st1" d="M785.34,152.36c0-24.04,0.33-49.94,0.65-63.97h-0.16c-2.64,22-10.72,79.71-16.38,118.67h-11.02
			c-4.29-33.72-12.64-95.37-15.19-118.76h-0.32c0.32,15.2,0.88,44.95,0.88,67.41v51.35h-10.47V75.96h16.7
			c5.81,38.76,12.75,86.81,14.18,103.51h0.16c1.66-16.34,9.75-67.06,15.55-103.51h16.35v131.11h-10.92V152.36z"/>
	</g>
</g>
</svg>
