<?xml version="1.0" encoding="utf-8"?>
<!-- Generator: Adobe Illustrator 24.0.1, SVG Export Plug-In . SVG Version: 6.00 Build 0)  -->
<svg version="1.1" id="Layer_1" xmlns="http://www.w3.org/2000/svg" xmlns:xlink="http://www.w3.org/1999/xlink" x="0px" y="0px"
	 viewBox="0 0 1355 462" style="enable-background:new 0 0 1355 462;" xml:space="preserve">
<style type="text/css">
	.st0{fill:#D2ECFF;}
	.st1{fill:none;stroke:#000000;stroke-width:5;stroke-miterlimit:10;}
	.st2{fill:none;stroke:#A2204A;stroke-width:5;stroke-miterlimit:10;}
	.st3{fill:none;stroke:#FFFFFF;stroke-width:5;stroke-miterlimit:10;}
	.st4{fill:none;stroke:#FFFFFF;stroke-width:5;stroke-miterlimit:10;stroke-dasharray:5.0769,5.0769;}
	.st5{fill:none;stroke:#0039C6;stroke-width:5;stroke-miterlimit:10;}
	.st6{fill:none;stroke:#0039C6;stroke-width:5;stroke-miterlimit:10;stroke-dasharray:5.0769,5.0769;}
	.st7{fill:#A2204A;}
	.st8{fill:none;stroke:#FFFFFF;stroke-width:5;stroke-miterlimit:10;stroke-dasharray:5;}
	.st9{fill:none;stroke:#0039C6;stroke-width:5;stroke-miterlimit:10;stroke-dasharray:5;}
</style>
<rect class="st0" width="1355" height="462"/>
<line class="st1" x1="113" y1="58" x2="113" y2="372"/>
<line class="st1" x1="1134" y1="372" x2="113" y2="372"/>
<polyline class="st2" points="84.5,101.5 112.5,101.5 201.5,101.5 289.5,101.5 378.5,101.5 378.5,182.5 466.5,182.5 466.5,101.5 
	554.5,101.5 554.5,182.5 643.5,182.5 643.5,101.5 731.5,101.5 819.5,101.5 819.5,182.5 908.5,182.5 908.5,101.5 996.5,101.5 
	1085.5,101.5 "/>
<line class="st1" x1="113" y1="182.5" x2="85" y2="182.5"/>
<line class="st1" x1="113.5" y1="263.5" x2="85.5" y2="263.5"/>
<g>
	<g>
		<path d="M36.67,89.07v0.45c0,1.68-0.38,3.53-3.39,3.53c-2.88,0-3.37-1.63-3.37-3.57v-6.74c0-2.12,1.14-3.29,3.4-3.29
			c2.79,0,3.29,1.58,3.29,3.31v0.52h-1.8v-0.62c0-1.05-0.21-1.92-1.52-1.92c-1.25,0-1.56,0.79-1.56,1.95v6.88
			c0,1.33,0.36,2.2,1.61,2.2c1.3,0,1.53-0.9,1.53-2.14v-0.56H36.67z"/>
		<path d="M38.38,79.63h1.77v5.49h3.46v-5.49h1.77v13.24h-1.77v-6.46h-3.46v6.46h-1.77V79.63z"/>
		<path d="M49.45,88.65l-0.79,4.23h-1.79l2.73-13.24h2.52l2.85,13.24h-1.85l-0.86-4.23H49.45z M52.03,87.35
			c-0.58-2.92-1-5.17-1.16-6.42H50.8c-0.06,1.02-0.66,4-1.1,6.42H52.03z"/>
		<path d="M64.63,87.35c0-2.43,0.05-5.04,0.1-6.46h-0.02c-0.41,2.22-1.68,8.05-2.57,11.98H60.4c-0.67-3.41-1.99-9.63-2.39-11.99
			h-0.05c0.05,1.54,0.14,4.54,0.14,6.81v5.19h-1.65V79.63h2.62c0.91,3.91,2,8.77,2.23,10.45h0.02c0.26-1.65,1.53-6.77,2.44-10.45
			h2.57v13.24h-1.72V87.35z"/>
		<path d="M68.81,79.63h3.04c2.47,0,3.65,1,3.65,3.13v0.81c0,1.99-0.75,3.46-3.77,3.46h-1.15v5.84h-1.77V79.63z M70.58,85.85h0.99
			c1.89,0,2.16-0.92,2.16-2.3v-0.71c0-1.07-0.29-2.01-2.01-2.01h-1.14V85.85z"/>
		<path d="M79.05,79.63v13.24h-1.77V79.63H79.05z"/>
		<path d="M88.34,82.88v6.67c0,2.33-1.2,3.49-3.68,3.49c-2.58,0-3.52-1.31-3.52-3.47v-6.69c0-2.25,1.29-3.43,3.64-3.43
			C87.23,79.46,88.34,80.79,88.34,82.88z M82.94,82.82v6.87c0,1.49,0.68,2.08,1.8,2.08c1.18,0,1.79-0.58,1.79-2.14v-6.81
			c0-1.41-0.61-2.08-1.81-2.08S82.94,81.38,82.94,82.82z"/>
		<path d="M90.43,92.87V79.63h2.11c0.9,2.45,3.21,9.39,3.48,10.47h0.04c-0.1-1.78-0.12-3.64-0.12-5.8v-4.67h1.67v13.24h-2.04
			c-0.89-2.49-3.27-9.77-3.58-10.83h-0.02c0.11,1.59,0.15,3.71,0.15,6.1v4.73H90.43z"/>
		<path d="M100.96,89.14v0.77c0,1.25,0.54,1.91,1.71,1.91c1.19,0,1.66-0.69,1.66-2.14c0-1.55-0.43-2.15-2.18-3.24
			c-1.78-1.11-2.68-1.78-2.68-3.73c0-1.68,0.63-3.29,3.24-3.28c2.48,0.01,3.13,1.32,3.13,3v0.61h-1.76v-0.58
			c0-1.1-0.27-1.81-1.41-1.81c-1.14,0-1.44,0.8-1.44,1.83c0,1.23,0.31,1.7,1.83,2.62c2.31,1.39,3.04,2.16,3.04,4.36
			c0,1.86-0.67,3.56-3.48,3.56c-2.69,0-3.45-1.4-3.45-3.14v-0.76H100.96z"/>
		<path d="M27.47,167.58v6.18H25.7v-13.24h2.91c2.5,0,3.73,0.86,3.73,3.05v0.61c0,1.8-0.79,2.54-1.69,2.79
			c1.06,0.31,1.55,0.94,1.55,2.72c0,1.13-0.02,3.25,0.16,4.08h-1.73c-0.21-0.83-0.17-3.05-0.17-3.98c0-1.72-0.3-2.2-1.95-2.2H27.47z
			 M27.47,166.39h1.09c1.58,0,1.99-0.73,1.99-2.14v-0.59c0-1.21-0.41-1.93-2.08-1.93h-1V166.39z"/>
		<path d="M36,160.53v10.29c0,1.09,0.48,1.84,1.73,1.84c1.27,0,1.71-0.7,1.71-1.83v-10.3h1.78v10.25c0,2.05-1.15,3.17-3.53,3.17
			c-2.3,0-3.46-1.03-3.46-3.13v-10.28H36z"/>
		<path d="M43.61,173.77v-13.24h2.11c0.9,2.45,3.21,9.39,3.48,10.47h0.04c-0.1-1.78-0.12-3.64-0.12-5.8v-4.67h1.67v13.24h-2.04
			c-0.89-2.49-3.27-9.77-3.58-10.83h-0.02c0.11,1.59,0.15,3.71,0.15,6.1v4.73H43.61z"/>
		<path d="M53.24,173.77v-13.24h2.11c0.9,2.45,3.21,9.39,3.48,10.47h0.04c-0.1-1.78-0.12-3.64-0.12-5.8v-4.67h1.67v13.24h-2.04
			c-0.89-2.49-3.27-9.77-3.58-10.83h-0.02c0.11,1.59,0.15,3.71,0.15,6.1v4.73H53.24z"/>
		<path d="M68.37,167.35h-3.73v5.12h4.24l-0.24,1.3h-5.77v-13.24h5.71v1.3h-3.94v4.23h3.73V167.35z"/>
		<path d="M72.1,167.58v6.18h-1.77v-13.24h2.91c2.5,0,3.73,0.86,3.73,3.05v0.61c0,1.8-0.79,2.54-1.69,2.79
			c1.06,0.31,1.55,0.94,1.55,2.72c0,1.13-0.02,3.25,0.16,4.08h-1.73c-0.21-0.83-0.17-3.05-0.17-3.98c0-1.72-0.3-2.2-1.95-2.2H72.1z
			 M72.1,166.39h1.09c1.58,0,1.99-0.73,1.99-2.14v-0.59c0-1.21-0.41-1.93-2.08-1.93h-1V166.39z"/>
		<path d="M79.84,170.04v0.77c0,1.25,0.54,1.91,1.71,1.91c1.19,0,1.66-0.69,1.66-2.14c0-1.55-0.43-2.15-2.18-3.24
			c-1.78-1.11-2.68-1.78-2.68-3.73c0-1.68,0.63-3.29,3.24-3.28c2.48,0.01,3.13,1.32,3.13,3v0.61h-1.76v-0.58
			c0-1.1-0.27-1.81-1.41-1.81c-1.14,0-1.44,0.8-1.44,1.83c0,1.23,0.31,1.7,1.83,2.62c2.31,1.39,3.04,2.16,3.04,4.36
			c0,1.86-0.67,3.56-3.48,3.56c-2.69,0-3.45-1.4-3.45-3.14v-0.76H79.84z"/>
		<path d="M91.82,160.53v10.29c0,1.09,0.48,1.84,1.73,1.84c1.27,0,1.71-0.7,1.71-1.83v-10.3h1.78v10.25c0,2.05-1.15,3.17-3.53,3.17
			c-2.3,0-3.46-1.03-3.46-3.13v-10.28H91.82z"/>
		<path d="M99.42,160.53h3.04c2.47,0,3.65,1,3.65,3.13v0.81c0,1.99-0.75,3.46-3.77,3.46h-1.15v5.84h-1.77V160.53z M101.19,166.74
			h0.99c1.89,0,2.16-0.92,2.16-2.3v-0.71c0-1.07-0.29-2.01-2.01-2.01h-1.14V166.74z"/>
		<path d="M81.45,244.85v-0.3c0-1.2,0.42-2.93,3.17-2.93c2.28,0,3.09,1.15,3.09,2.9v0.58c0,1.49-0.58,2.15-1.51,2.44v0.02
			c1.18,0.32,1.9,1.04,1.9,2.67v1.11c0,2.04-0.77,3.49-3.5,3.49c-2.49,0-3.39-1.18-3.39-2.91v-0.37h1.67v0.36
			c0,0.95,0.44,1.73,1.72,1.73c1.28,0,1.72-0.71,1.72-2.14v-1.25c0-1.55-0.69-2.03-2.15-2.03h-0.68V247h0.67
			c1.24,0,1.82-0.36,1.82-1.76v-0.72c0-0.96-0.26-1.71-1.43-1.71c-1.19,0-1.48,0.79-1.48,1.64v0.39H81.45z"/>
		<path d="M91.88,248.48v6.18h-1.77v-13.24h2.91c2.5,0,3.73,0.86,3.73,3.05v0.61c0,1.8-0.79,2.54-1.69,2.79
			c1.06,0.31,1.55,0.94,1.55,2.72c0,1.13-0.02,3.25,0.16,4.08h-1.73c-0.21-0.83-0.17-3.05-0.17-3.98c0-1.72-0.3-2.2-1.95-2.2H91.88z
			 M91.88,247.28h1.09c1.58,0,1.99-0.73,1.99-2.14v-0.59c0-1.21-0.41-1.93-2.08-1.93h-1V247.28z"/>
		<path d="M98.72,241.42h3.02c3.59,0,4.05,1.77,4.05,3.87v5.23c0,2.03-0.39,4.14-4.16,4.14h-2.91V241.42z M100.49,253.44h1
			c2.01,0,2.49-0.91,2.49-2.64v-5.68c0-1.53-0.34-2.47-2.47-2.47h-1.02V253.44z"/>
	</g>
</g>
<path class="st1" d="M131.88,394.53"/>
<line class="st1" x1="201.36" y1="372" x2="201.36" y2="388"/>
<line class="st1" x1="289.73" y1="372" x2="289.73" y2="388"/>
<line class="st1" x1="378.09" y1="372" x2="378.09" y2="388"/>
<line class="st1" x1="466.45" y1="372" x2="466.45" y2="388"/>
<line class="st1" x1="554.82" y1="372" x2="554.82" y2="388"/>
<line class="st1" x1="643.18" y1="372" x2="643.18" y2="388"/>
<line class="st1" x1="819.91" y1="372" x2="819.91" y2="388"/>
<line class="st1" x1="908.27" y1="372" x2="908.27" y2="388"/>
<line class="st1" x1="996.64" y1="372" x2="996.64" y2="388"/>
<line class="st1" x1="731.55" y1="372" x2="731.55" y2="388"/>
<line class="st1" x1="1085" y1="372" x2="1085" y2="388"/>
<g>
	<g>
		<path d="M88.78,399.63v-0.24c0.01-2.5,1.15-4.42,3.03-7.18c1.29-1.88,1.64-2.61,1.64-4.37c0-1.89-0.29-2.73-1.42-2.73
			c-1.07,0-1.47,0.84-1.47,2.21v0.73h-1.62v-0.79c0-1.73,0.53-3.63,3.17-3.63c2.49,0,3.09,1.79,3.09,4.11
			c0,2.48-0.68,3.44-1.94,5.22c-1.46,2.11-2.44,3.79-2.56,5.14h4.84l-0.25,1.51H88.78z"/>
		<path d="M103.31,387.65v8.09c0,2.69-1.03,4.09-3.38,4.09c-2.16,0-3.27-1.35-3.27-4.05v-8.02c0-2.98,1.4-4.12,3.37-4.12
			C101.96,383.64,103.31,384.75,103.31,387.65z M98.37,387.6v8.29c0,1.57,0.49,2.33,1.62,2.33c1.02,0,1.58-0.6,1.58-2.39v-8.25
			c0-1.69-0.61-2.34-1.6-2.34C99.01,385.24,98.37,385.8,98.37,387.6z"/>
		<path d="M111.67,387.65v8.09c0,2.69-1.03,4.09-3.38,4.09c-2.16,0-3.27-1.35-3.27-4.05v-8.02c0-2.98,1.4-4.12,3.37-4.12
			C110.32,383.64,111.67,384.75,111.67,387.65z M106.74,387.6v8.29c0,1.57,0.49,2.33,1.62,2.33c1.02,0,1.58-0.6,1.58-2.39v-8.25
			c0-1.69-0.61-2.34-1.6-2.34C107.37,385.24,106.74,385.8,106.74,387.6z"/>
		<path d="M120.03,387.65v8.09c0,2.69-1.03,4.09-3.38,4.09c-2.16,0-3.27-1.35-3.27-4.05v-8.02c0-2.98,1.4-4.12,3.37-4.12
			C118.69,383.64,120.03,384.75,120.03,387.65z M115.1,387.6v8.29c0,1.57,0.49,2.33,1.62,2.33c1.02,0,1.58-0.6,1.58-2.39v-8.25
			c0-1.69-0.61-2.34-1.6-2.34C115.73,385.24,115.1,385.8,115.1,387.6z"/>
		<path d="M127.14,388.67v4.21h3.87v1.37h-3.87v4.23h-1.43v-4.23h-3.92v-1.37h3.92v-4.21H127.14z"/>
	</g>
</g>
<g>
	<g>
		<path d="M184.45,399.84v10.21c0,3.4-1.3,5.16-4.27,5.16c-2.73,0-4.13-1.71-4.13-5.11v-10.13c0-3.76,1.76-5.2,4.26-5.2
			C182.75,394.77,184.45,396.18,184.45,399.84z M178.23,399.77v10.47c0,1.99,0.62,2.94,2.04,2.94c1.29,0,2-0.76,2-3.01v-10.42
			c0-2.14-0.77-2.95-2.01-2.95C179.02,396.8,178.23,397.5,178.23,399.77z"/>
		<path d="M186.47,410.4v-2.26c0-2.58,1.06-3.37,1.99-3.93c-1.07-0.64-1.7-1.67-1.7-3.71v-1.19c0-2.84,1.37-4.52,4.07-4.52
			c2.39,0,3.89,1.38,3.89,4.53v1.08c0,2.51-0.81,3.28-1.75,3.8c1.2,0.56,1.99,1.59,1.99,3.91v2.16c0,3.34-1.36,4.94-4.29,4.94
			C188.08,415.21,186.47,413.78,186.47,410.4z M192.81,410.48v-2.58c0-1.91-0.68-2.7-2.09-2.7c-1.41,0-2.08,0.83-2.08,2.78v2.47
			c0,1.67,0.58,2.87,2.08,2.87C192.32,413.31,192.81,412.2,192.81,410.48z M188.87,399.21v1.67c0,1.45,0.59,2.42,1.9,2.42
			c1.23,0,1.85-0.74,1.85-2.47v-1.64c0-1.39-0.34-2.53-1.87-2.53C189.34,396.66,188.87,397.74,188.87,399.21z"/>
		<path d="M201.86,405.94v2.03h-5.16v-2.03H201.86z"/>
		<path d="M212.1,399.84v10.21c0,3.4-1.3,5.16-4.27,5.16c-2.73,0-4.13-1.71-4.13-5.11v-10.13c0-3.76,1.76-5.2,4.26-5.2
			C210.4,394.77,212.1,396.18,212.1,399.84z M205.87,399.77v10.47c0,1.99,0.62,2.94,2.04,2.94c1.29,0,2-0.76,2-3.01v-10.42
			c0-2.14-0.77-2.95-2.01-2.95C206.67,396.8,205.87,397.5,205.87,399.77z"/>
		<path d="M216.4,410.65v0.2c0,1.72,0.64,2.51,1.79,2.51c1.51,0,1.97-0.95,1.97-4.18v-3.59c-0.44,0.92-1.16,1.52-2.65,1.52
			c-2.56,0-3.45-1.92-3.45-4.67v-2.9c0-2.95,1.34-4.76,4.15-4.76c2.66,0,4.09,1.58,4.09,4.88v8.98c0,3.89-0.41,6.58-4.14,6.58
			c-3.13,0-3.91-2.15-3.91-4.45v-0.1H216.4z M216.23,399.34v3.09c0,1.38,0.29,2.76,1.85,2.76c1.68,0,2.07-1.5,2.07-3.52v-2.28
			c0-1.82-0.54-2.78-1.95-2.78C216.9,396.61,216.23,397.41,216.23,399.34z"/>
		<path d="M274.27,399.84v10.21c0,3.4-1.3,5.16-4.27,5.16c-2.73,0-4.13-1.71-4.13-5.11v-10.13c0-3.76,1.76-5.2,4.26-5.2
			C272.57,394.77,274.27,396.18,274.27,399.84z M268.04,399.77v10.47c0,1.99,0.62,2.94,2.04,2.94c1.29,0,2-0.76,2-3.01v-10.42
			c0-2.14-0.77-2.95-2.01-2.95C268.84,396.8,268.04,397.5,268.04,399.77z"/>
		<path d="M278.57,410.65v0.2c0,1.72,0.64,2.51,1.79,2.51c1.51,0,1.97-0.95,1.97-4.18v-3.59c-0.44,0.92-1.16,1.52-2.65,1.52
			c-2.56,0-3.45-1.92-3.45-4.67v-2.9c0-2.95,1.34-4.76,4.15-4.76c2.66,0,4.09,1.58,4.09,4.88v8.98c0,3.89-0.41,6.58-4.14,6.58
			c-3.13,0-3.91-2.15-3.91-4.45v-0.1H278.57z M278.39,399.34v3.09c0,1.38,0.29,2.76,1.85,2.76c1.68,0,2.07-1.5,2.07-3.52v-2.28
			c0-1.82-0.54-2.78-1.95-2.78C279.07,396.61,278.39,397.41,278.39,399.34z"/>
		<path d="M291.49,405.94v2.03h-5.16v-2.03H291.49z"/>
		<path d="M294.72,414.96v-17.37c-0.55,0.25-1.77,0.56-2.3,0.61v-1.72c1.15-0.23,2.39-0.99,2.9-1.58h1.58v20.07H294.72z"/>
		<path d="M308.15,399.84v10.21c0,3.4-1.3,5.16-4.27,5.16c-2.73,0-4.13-1.71-4.13-5.11v-10.13c0-3.76,1.76-5.2,4.26-5.2
			C306.44,394.77,308.15,396.18,308.15,399.84z M301.92,399.77v10.47c0,1.99,0.62,2.94,2.04,2.94c1.29,0,2-0.76,2-3.01v-10.42
			c0-2.14-0.77-2.95-2.01-2.95C302.72,396.8,301.92,397.5,301.92,399.77z"/>
		<path d="M362.8,414.96l-3.57-20.5h2.36l1.36,9.19c0.42,2.86,1.02,6.37,1.21,8.49h0.04c0.17-2.05,0.8-5.57,1.21-8.41l1.39-9.27
			h2.33l-3.58,20.5H362.8z"/>
		<path d="M371.86,414.96v-17.37c-0.55,0.25-1.77,0.56-2.3,0.61v-1.72c1.15-0.23,2.39-0.99,2.9-1.58h1.58v20.07H371.86z"/>
		<path d="M385.29,399.84v10.21c0,3.4-1.3,5.16-4.27,5.16c-2.73,0-4.13-1.71-4.13-5.11v-10.13c0-3.76,1.76-5.2,4.26-5.2
			C383.59,394.77,385.29,396.18,385.29,399.84z M379.06,399.77v10.47c0,1.99,0.62,2.94,2.04,2.94c1.29,0,2-0.76,2-3.01v-10.42
			c0-2.14-0.77-2.95-2.01-2.95C379.86,396.8,379.06,397.5,379.06,399.77z"/>
		<path d="M392.32,405.94v2.03h-5.16v-2.03H392.32z"/>
		<path d="M395.55,414.96v-17.37c-0.55,0.25-1.77,0.56-2.3,0.61v-1.72c1.15-0.23,2.39-0.99,2.9-1.58h1.58v20.07H395.55z"/>
		<path d="M401.97,414.96v-17.37c-0.55,0.25-1.77,0.56-2.3,0.61v-1.72c1.15-0.23,2.39-0.99,2.9-1.58h1.58v20.07H401.97z"/>
		<path d="M462.23,414.96v-17.37c-0.55,0.25-1.77,0.56-2.3,0.61v-1.72c1.15-0.23,2.39-0.99,2.9-1.58h1.58v20.07H462.23z"/>
		<path d="M468.65,414.96v-17.37c-0.55,0.25-1.77,0.56-2.3,0.61v-1.72c1.15-0.23,2.39-0.99,2.9-1.58h1.58v20.07H468.65z"/>
		<path d="M478.54,405.94v2.03h-5.16v-2.03H478.54z"/>
		<path d="M481.78,414.96v-17.37c-0.55,0.25-1.77,0.56-2.3,0.61v-1.72c1.15-0.23,2.39-0.99,2.9-1.58h1.58v20.07H481.78z"/>
		<path d="M486.22,414.96v-0.3c0.01-3.15,1.45-5.58,3.82-9.06c1.62-2.37,2.07-3.29,2.07-5.52c0-2.39-0.37-3.44-1.79-3.44
			c-1.36,0-1.86,1.06-1.86,2.8v0.92h-2.04v-1c0-2.18,0.67-4.59,4-4.59c3.15,0,3.91,2.25,3.91,5.19c0,3.12-0.86,4.34-2.44,6.59
			c-1.84,2.66-3.08,4.78-3.23,6.49h6.11l-0.31,1.91H486.22z"/>
		<path d="M547.26,414.96v-17.37c-0.55,0.25-1.77,0.56-2.3,0.61v-1.72c1.15-0.23,2.39-0.99,2.9-1.58h1.58v20.07H547.26z"/>
		<path d="M551.71,414.96v-0.3c0.01-3.15,1.45-5.58,3.82-9.06c1.62-2.37,2.07-3.29,2.07-5.52c0-2.39-0.37-3.44-1.79-3.44
			c-1.36,0-1.86,1.06-1.86,2.8v0.92h-2.04v-1c0-2.18,0.67-4.59,4-4.59c3.15,0,3.91,2.25,3.91,5.19c0,3.12-0.86,4.34-2.44,6.59
			c-1.84,2.66-3.08,4.78-3.23,6.49h6.11l-0.31,1.91H551.71z"/>
		<path d="M566.52,405.94v2.03h-5.16v-2.03H566.52z"/>
		<path d="M569.75,414.96v-17.37c-0.55,0.25-1.77,0.56-2.3,0.61v-1.72c1.15-0.23,2.39-0.99,2.9-1.58h1.58v20.07H569.75z"/>
		<path d="M574.69,399.77v-0.47c0-1.86,0.51-4.53,3.91-4.53c2.81,0,3.8,1.79,3.8,4.5v0.9c0,2.3-0.72,3.32-1.86,3.78v0.03
			c1.46,0.49,2.34,1.62,2.34,4.13v1.72c0,3.15-0.94,5.4-4.31,5.4c-3.07,0-4.18-1.83-4.18-4.51v-0.57h2.06v0.56
			c0,1.47,0.55,2.68,2.12,2.68c1.58,0,2.12-1.1,2.12-3.31v-1.93c0-2.41-0.85-3.14-2.65-3.14h-0.84v-1.89h0.83
			c1.53,0,2.24-0.56,2.24-2.73v-1.11c0-1.49-0.32-2.65-1.76-2.65c-1.46,0-1.82,1.22-1.82,2.55v0.61H574.69z"/>
		<path d="M636,414.96v-17.37c-0.55,0.25-1.77,0.56-2.3,0.61v-1.72c1.15-0.23,2.39-0.99,2.9-1.58h1.58v20.07H636z"/>
		<path d="M640.94,399.77v-0.47c0-1.86,0.51-4.53,3.91-4.53c2.81,0,3.8,1.79,3.8,4.5v0.9c0,2.3-0.72,3.32-1.86,3.78v0.03
			c1.46,0.49,2.34,1.62,2.34,4.13v1.72c0,3.15-0.94,5.4-4.31,5.4c-3.07,0-4.18-1.83-4.18-4.51v-0.57h2.06v0.56
			c0,1.47,0.55,2.68,2.12,2.68c1.58,0,2.12-1.1,2.12-3.31v-1.93c0-2.41-0.85-3.14-2.65-3.14h-0.84v-1.89h0.83
			c1.53,0,2.24-0.56,2.24-2.73v-1.11c0-1.49-0.32-2.65-1.76-2.65c-1.46,0-1.82,1.22-1.82,2.55v0.61H640.94z"/>
		<path d="M656.03,405.94v2.03h-5.16v-2.03H656.03z"/>
		<path d="M659.26,414.96v-17.37c-0.55,0.25-1.77,0.56-2.3,0.61v-1.72c1.15-0.23,2.39-0.99,2.9-1.58h1.58v20.07H659.26z"/>
		<path d="M669.34,414.96v-5.4h-5.65v-1.61l4.85-12.94h2.84v12.71h1.57l-0.2,1.84h-1.38v5.4H669.34z M669.34,402.92
			c0-1.89,0.06-3.8,0.11-5.67h-0.03c-1.1,3.46-2.38,7.06-3.59,10.47h3.51V402.92z"/>
		<path d="M725.42,414.96v-17.37c-0.55,0.25-1.77,0.56-2.3,0.61v-1.72c1.15-0.23,2.39-0.99,2.9-1.58h1.58v20.07H725.42z"/>
		<path d="M735.5,414.96v-5.4h-5.65v-1.61l4.85-12.94h2.84v12.71h1.57l-0.2,1.84h-1.38v5.4H735.5z M735.5,402.92
			c0-1.89,0.06-3.8,0.11-5.67h-0.03c-1.1,3.46-2.38,7.06-3.59,10.47h3.51V402.92z"/>
		<path d="M745.35,405.94v2.03h-5.16v-2.03H745.35z"/>
		<path d="M748.59,414.96v-17.37c-0.55,0.25-1.77,0.56-2.3,0.61v-1.72c1.15-0.23,2.39-0.99,2.9-1.58h1.58v20.07H748.59z"/>
		<path d="M761.34,396.97h-4.96c-0.11,1.71-0.29,4.44-0.45,5.95c0.4-0.66,1.32-1.16,2.5-1.16c2.65,0,3.54,1.98,3.54,5.28v2.33
			c0,3.27-0.82,5.85-4.35,5.85c-3.22,0-4.2-2.19-4.2-4.76v-0.34h2.18v0.53c0,1.3,0.43,2.71,2.01,2.71c1.77,0,2.09-1.47,2.09-3.63
			v-2.59c0-2.19-0.34-3.48-1.96-3.48c-1.28,0-1.82,0.73-2.14,2.18l-1.97-0.22c0.31-2.77,0.69-8.52,0.81-10.59h7.13L761.34,396.97z"
			/>
		<path d="M815.08,414.96v-17.37c-0.55,0.25-1.77,0.56-2.3,0.61v-1.72c1.15-0.23,2.39-0.99,2.9-1.58h1.58v20.07H815.08z"/>
		<path d="M827.84,396.97h-4.96c-0.11,1.71-0.3,4.44-0.45,5.95c0.4-0.66,1.32-1.16,2.5-1.16c2.65,0,3.54,1.98,3.54,5.28v2.33
			c0,3.27-0.82,5.85-4.35,5.85c-3.22,0-4.2-2.19-4.2-4.76v-0.34h2.18v0.53c0,1.3,0.43,2.71,2.01,2.71c1.77,0,2.09-1.47,2.09-3.63
			v-2.59c0-2.19-0.34-3.48-1.96-3.48c-1.28,0-1.82,0.73-2.14,2.18l-1.97-0.22c0.31-2.77,0.69-8.52,0.81-10.59h7.13L827.84,396.97z"
			/>
		<path d="M835.35,405.94v2.03h-5.16v-2.03H835.35z"/>
		<path d="M838.59,414.96v-17.37c-0.55,0.25-1.77,0.56-2.3,0.61v-1.72c1.15-0.23,2.39-0.99,2.9-1.58h1.58v20.07H838.59z"/>
		<path d="M849.63,399.34v-0.21c0-0.91-0.17-2.49-1.82-2.49c-1.64,0-2.04,1.2-2.04,3.71v2.96c0.44-0.8,1.23-1.56,2.8-1.56
			c2.55,0,3.39,2.01,3.39,4.45v3.7c0,3.07-0.91,5.3-4.21,5.3c-3.34,0-4.13-2.44-4.13-5.31v-9.49c0-3.41,0.96-5.64,4.21-5.64
			c3.24,0,3.89,2.37,3.89,4.43v0.14H849.63z M849.79,410.21v-3.64c0-1.7-0.4-2.86-1.9-2.86c-1.68,0-2.13,1.45-2.13,3.41v3.09
			c0,1.66,0.4,3.16,2.01,3.16C849.16,413.37,849.79,412.42,849.79,410.21z"/>
		<path d="M900.88,414.96v-17.37c-0.55,0.25-1.77,0.56-2.3,0.61v-1.72c1.15-0.23,2.39-0.99,2.9-1.58h1.58v20.07H900.88z"/>
		<path d="M911.92,399.34v-0.21c0-0.91-0.17-2.49-1.82-2.49c-1.64,0-2.04,1.2-2.04,3.71v2.96c0.44-0.8,1.23-1.56,2.8-1.56
			c2.55,0,3.39,2.01,3.39,4.45v3.7c0,3.07-0.91,5.3-4.21,5.3c-3.34,0-4.13-2.44-4.13-5.31v-9.49c0-3.41,0.96-5.64,4.21-5.64
			c3.24,0,3.89,2.37,3.89,4.43v0.14H911.92z M912.08,410.21v-3.64c0-1.7-0.4-2.86-1.9-2.86c-1.68,0-2.13,1.45-2.13,3.41v3.09
			c0,1.66,0.4,3.16,2.01,3.16C911.45,413.37,912.08,412.42,912.08,410.21z"/>
		<path d="M921.09,405.94v2.03h-5.16v-2.03H921.09z"/>
		<path d="M924.32,414.96v-17.37c-0.55,0.25-1.77,0.56-2.3,0.61v-1.72c1.15-0.23,2.39-0.99,2.9-1.58h1.58v20.07H924.32z"/>
		<path d="M936.7,395.02v1.64c-2.49,4.9-4.41,10.99-5.24,18.31h-2.23c0.67-6.41,2.75-13.26,5.22-17.99h-5.99v-1.95H936.7z"/>
		<path d="M993.24,414.96v-17.37c-0.55,0.25-1.77,0.56-2.3,0.61v-1.72c1.15-0.23,2.39-0.99,2.9-1.58h1.58v20.07H993.24z"/>
		<path d="M1005.62,395.02v1.64c-2.49,4.9-4.41,10.99-5.24,18.31h-2.23c0.67-6.41,2.75-13.26,5.22-17.99h-5.99v-1.95H1005.62z"/>
		<path d="M1011.79,405.94v2.03h-5.16v-2.03H1011.79z"/>
		<path d="M1015.03,414.96v-17.37c-0.55,0.25-1.77,0.56-2.3,0.61v-1.72c1.15-0.23,2.39-0.99,2.9-1.58h1.58v20.07H1015.03z"/>
		<path d="M1019.91,410.4v-2.26c0-2.58,1.06-3.37,1.99-3.93c-1.07-0.64-1.7-1.67-1.7-3.71v-1.19c0-2.84,1.37-4.52,4.07-4.52
			c2.39,0,3.89,1.38,3.89,4.53v1.08c0,2.51-0.81,3.28-1.75,3.8c1.2,0.56,2,1.59,2,3.91v2.16c0,3.34-1.36,4.94-4.29,4.94
			C1021.52,415.21,1019.91,413.78,1019.91,410.4z M1026.25,410.48v-2.58c0-1.91-0.68-2.7-2.09-2.7c-1.41,0-2.08,0.83-2.08,2.78v2.47
			c0,1.67,0.58,2.87,2.08,2.87C1025.76,413.31,1026.25,412.2,1026.25,410.48z M1022.31,399.21v1.67c0,1.45,0.59,2.42,1.9,2.42
			c1.23,0,1.85-0.74,1.85-2.47v-1.64c0-1.39-0.34-2.53-1.87-2.53C1022.78,396.66,1022.31,397.74,1022.31,399.21z"/>
		<path d="M1081.52,414.96v-17.37c-0.55,0.25-1.77,0.56-2.3,0.61v-1.72c1.15-0.23,2.39-0.99,2.9-1.58h1.58v20.07H1081.52z"/>
		<path d="M1086.41,410.4v-2.26c0-2.58,1.06-3.37,1.99-3.93c-1.07-0.64-1.7-1.67-1.7-3.71v-1.19c0-2.84,1.37-4.52,4.07-4.52
			c2.39,0,3.89,1.38,3.89,4.53v1.08c0,2.51-0.81,3.28-1.75,3.8c1.2,0.56,2,1.59,2,3.91v2.16c0,3.34-1.36,4.94-4.29,4.94
			C1088.02,415.21,1086.41,413.78,1086.41,410.4z M1092.74,410.48v-2.58c0-1.91-0.68-2.7-2.09-2.7c-1.41,0-2.08,0.83-2.08,2.78v2.47
			c0,1.67,0.58,2.87,2.08,2.87C1092.26,413.31,1092.74,412.2,1092.74,410.48z M1088.8,399.21v1.67c0,1.45,0.59,2.42,1.9,2.42
			c1.23,0,1.85-0.74,1.85-2.47v-1.64c0-1.39-0.34-2.53-1.87-2.53C1089.27,396.66,1088.8,397.74,1088.8,399.21z"/>
		<path d="M1101.79,405.94v2.03h-5.16v-2.03H1101.79z"/>
		<path d="M1105.03,414.96v-17.37c-0.55,0.25-1.77,0.56-2.3,0.61v-1.72c1.15-0.23,2.39-0.99,2.9-1.58h1.58v20.07H1105.03z"/>
		<path d="M1112.19,410.65v0.2c0,1.72,0.64,2.51,1.79,2.51c1.51,0,1.97-0.95,1.97-4.18v-3.59c-0.44,0.92-1.16,1.52-2.65,1.52
			c-2.56,0-3.45-1.92-3.45-4.67v-2.9c0-2.95,1.34-4.76,4.15-4.76c2.66,0,4.09,1.58,4.09,4.88v8.98c0,3.89-0.41,6.58-4.14,6.58
			c-3.13,0-3.91-2.15-3.91-4.45v-0.1H1112.19z M1112.02,399.34v3.09c0,1.38,0.29,2.76,1.85,2.76c1.68,0,2.07-1.5,2.07-3.52v-2.28
			c0-1.82-0.54-2.78-1.95-2.78C1112.69,396.61,1112.02,397.41,1112.02,399.34z"/>
	</g>
</g>
<g>
	<g>
		<line class="st3" x1="386.5" y1="101.5" x2="389" y2="101.5"/>
		<line class="st4" x1="394.08" y1="101.5" x2="452.46" y2="101.5"/>
		<line class="st3" x1="455" y1="101.5" x2="457.5" y2="101.5"/>
	</g>
</g>
<g>
	<g>
		<line class="st5" x1="565" y1="101.5" x2="567.5" y2="101.5"/>
		<line class="st6" x1="572.58" y1="101.5" x2="630.96" y2="101.5"/>
		<line class="st5" x1="633.5" y1="101.5" x2="636" y2="101.5"/>
	</g>
</g>
<g>
	<g>
		<line class="st3" x1="828" y1="101.5" x2="830.5" y2="101.5"/>
		<line class="st4" x1="835.58" y1="101.5" x2="893.96" y2="101.5"/>
		<line class="st3" x1="896.5" y1="101.5" x2="899" y2="101.5"/>
	</g>
</g>
<g>
	<rect x="1164" y="102" class="st7" width="40" height="40"/>
</g>
<rect x="1164" y="162" class="st8" width="40" height="40"/>
<rect x="1164" y="222" class="st9" width="40" height="40"/>
<g>
	<g>
		<path d="M1242.76,103.88h9.39v3.29h-6.52v10.87h6.15v3.29h-6.15v15.95h-2.87V103.88z"/>
		<path d="M1264.9,127.7v1.13c0,4.25-0.62,8.9-5.49,8.9c-4.67,0-5.47-4.1-5.47-9v-16.99c0-5.35,1.85-8.3,5.5-8.3
			c4.53,0,5.34,3.98,5.34,8.36v1.3h-2.91v-1.57c0-2.65-0.33-4.85-2.47-4.85c-2.02,0-2.53,1.98-2.53,4.93v17.34
			c0,3.35,0.59,5.55,2.62,5.55c2.1,0,2.48-2.26,2.48-5.41v-1.4H1264.9z"/>
		<path d="M1267.67,103.88h4.69c4.19,0,5.76,2.73,5.76,7.26v1.5c0,4.7-1.15,6.13-2.5,6.76c1.46,0.57,3.05,2.16,3.05,6.7v2.47
			c0,5.82-1.63,8.71-6.22,8.71h-4.79V103.88z M1272.24,118.01c2.41,0,3.14-1.21,3.14-5.1v-1.5c0-3.03-0.9-4.52-3.21-4.52h-1.7v11.11
			H1272.24z M1270.47,134.29h1.73c2.9,0,3.62-1.72,3.62-5.78v-2.31c0-3.64-1.03-5.21-3.63-5.21h-1.73V134.29z"/>
		<path d="M1245.63,183.69v15.6h-2.87v-33.4h4.71c4.05,0,6.05,2.16,6.05,7.69v1.53c0,4.54-1.29,6.4-2.75,7.03
			c1.71,0.79,2.51,2.38,2.51,6.85c0,2.86-0.04,8.2,0.26,10.31h-2.8c-0.34-2.08-0.28-7.7-0.28-10.04c0-4.33-0.49-5.56-3.16-5.56
			H1245.63z M1245.63,180.67h1.76c2.56,0,3.23-1.84,3.23-5.41v-1.49c0-3.05-0.67-4.88-3.37-4.88h-1.62V180.67z"/>
		<path d="M1269.98,185.34c0-6.12,0.08-12.72,0.17-16.3h-0.04c-0.67,5.6-2.73,20.31-4.17,30.23h-2.81
			c-1.09-8.59-3.22-24.3-3.87-30.26h-0.08c0.08,3.87,0.22,11.45,0.22,17.17v13.08h-2.67v-33.4h4.25c1.48,9.87,3.25,22.12,3.61,26.37
			h0.04c0.42-4.16,2.49-17.08,3.96-26.37h4.17v33.4h-2.78V185.34z"/>
		<path d="M1245.38,250.62l-1.29,10.66h-2.91l4.43-33.4h4.09l4.61,33.4h-3.01l-1.39-10.66H1245.38z M1249.55,247.35
			c-0.94-7.36-1.62-13.04-1.88-16.2h-0.12c-0.1,2.58-1.06,10.1-1.79,16.2H1249.55z"/>
		<path d="M1258.98,231.17h-4.36v-3.29h11.57v3.29h-4.34v30.11h-2.87V231.17z"/>
		<path d="M1281.33,247.34c0-6.12,0.08-12.72,0.17-16.3h-0.04c-0.67,5.6-2.73,20.31-4.17,30.23h-2.81
			c-1.09-8.59-3.22-24.3-3.87-30.26h-0.08c0.08,3.87,0.22,11.45,0.22,17.17v13.08h-2.67v-33.4h4.25c1.48,9.87,3.25,22.12,3.61,26.37
			h0.04c0.42-4.16,2.49-17.08,3.96-26.37h4.17v33.4h-2.78V247.34z"/>
	</g>
</g>
</svg>
